{"glyphs":{"0":{"ha":1043,"x_min":null,"x_max":null,"o":"m 521 -22 b 997 489 767 -22 997 149 b 521 1006 997 833 767 1006 b 46 489 276 1006 46 833 b 521 -22 46 149 276 -22 z m 521 17 b 331 489 419 17 331 175 b 521 969 331 810 419 969 b 713 489 624 969 713 810 b 521 17 713 175 624 17 z "},"1":{"ha":460,"x_min":null,"x_max":null,"o":"m 414 0 b 393 503 400 163 393 332 b 414 1004 393 672 400 842 l 403 1004 b 46 843 314 919 168 843 b 156 449 124 772 156 657 b 129 0 156 332 146 185 z "},"2":{"ha":839,"x_min":null,"x_max":null,"o":"m 792 1 l 792 286 b 501 251 722 258 608 251 l 201 251 b 793 767 269 389 793 499 b 440 1006 793 928 618 1006 b 69 760 257 1006 69 922 b 254 592 69 642 164 592 b 424 713 340 592 424 636 b 361 786 424 751 396 786 b 331 758 340 786 331 772 b 372 731 331 744 340 731 b 410 711 397 731 410 721 b 361 688 410 700 394 688 b 272 811 304 688 272 747 b 421 975 272 889 318 975 b 554 828 490 975 554 928 b 46 1 554 522 46 308 z "},"3":{"ha":893,"x_min":null,"x_max":null,"o":"m 429 -21 b 847 326 633 -21 847 100 b 624 592 847 493 743 557 b 796 807 722 633 796 710 b 432 1010 796 939 613 1010 b 72 794 251 1010 72 940 b 260 644 72 697 171 644 b 399 747 363 644 399 699 b 336 821 399 786 371 821 b 306 793 315 821 306 807 b 347 765 306 779 315 765 b 385 746 372 765 385 756 b 336 722 385 735 369 722 b 249 851 281 722 249 800 b 378 969 249 926 311 969 b 525 804 450 969 525 919 b 261 589 525 664 422 589 l 261 565 b 560 274 406 565 560 479 b 385 11 560 94 469 11 b 236 201 308 11 236 78 b 350 356 236 281 274 356 b 399 332 383 356 399 343 b 361 313 399 322 386 313 b 319 285 329 313 319 299 b 350 257 319 271 329 257 b 413 331 385 257 413 292 b 253 458 413 411 336 458 b 46 246 154 458 46 393 b 429 -21 46 121 161 -21 z "},"4":{"ha":918,"x_min":null,"x_max":null,"o":"m 842 0 b 826 242 835 81 829 161 l 872 242 l 872 283 l 825 283 b 842 975 817 514 822 744 l 557 975 l 46 276 l 46 242 l 574 242 b 557 0 569 161 564 81 z m 351 283 b 557 919 351 538 424 721 b 575 283 576 707 582 496 z "},"5":{"ha":900,"x_min":null,"x_max":null,"o":"m 407 -24 b 854 350 638 -24 854 97 b 519 664 854 547 732 664 b 169 586 421 664 303 639 l 200 767 l 803 767 l 803 997 b 543 975 735 975 654 975 l 189 975 l 121 526 b 353 578 208 560 286 578 b 603 261 510 578 603 479 b 408 13 603 132 543 13 b 271 182 335 13 271 74 b 382 303 271 244 311 303 b 443 274 424 303 443 288 b 396 249 443 261 428 249 b 343 214 356 249 343 231 b 382 178 343 196 356 178 b 461 271 425 178 461 222 b 285 403 461 333 415 403 b 46 211 171 403 46 335 b 407 -24 46 99 150 -24 z "},"6":{"ha":968,"x_min":null,"x_max":null,"o":"m 508 -18 b 922 393 718 -18 922 122 b 621 701 922 594 778 701 b 354 589 528 701 429 664 b 626 957 369 843 514 957 b 701 896 678 957 701 928 b 617 821 701 861 671 822 b 583 838 594 821 583 829 b 610 849 583 843 592 849 b 636 869 631 849 636 860 b 617 888 636 878 631 888 b 560 821 582 888 560 856 b 682 721 560 757 619 721 b 813 849 746 721 813 761 b 575 1003 813 933 735 1003 b 46 463 346 1003 46 861 b 508 -18 46 144 282 -18 z m 508 24 b 347 364 433 24 347 176 b 508 635 347 528 431 635 b 633 376 574 635 633 558 b 508 24 633 150 575 24 z "},"7":{"ha":768,"x_min":null,"x_max":null,"o":"m 457 0 b 722 975 457 253 503 542 b 624 965 693 958 660 965 b 256 1004 521 965 393 1004 b 46 810 106 1004 46 910 b 233 571 46 694 124 571 b 325 675 282 571 325 604 b 272 739 325 708 301 739 b 246 715 254 739 246 726 b 281 690 246 703 254 690 b 197 643 324 690 289 643 b 115 718 144 643 115 681 b 226 803 115 760 150 803 b 585 750 318 803 507 750 b 121 0 467 569 121 263 z "},"8":{"ha":936,"x_min":null,"x_max":null,"o":"m 468 -21 b 890 236 679 -21 890 65 b 572 542 890 404 715 494 b 818 799 681 585 818 681 b 467 1004 818 936 643 1004 b 115 799 292 1004 115 936 b 358 542 115 674 225 599 b 46 236 218 496 46 421 b 468 -21 46 65 257 -21 z m 467 606 b 371 814 403 646 371 735 b 467 963 371 893 403 963 b 564 815 532 963 564 894 b 467 606 564 736 532 647 z m 461 13 b 310 206 361 13 310 101 b 472 496 310 314 364 436 b 625 215 574 439 625 319 b 461 13 625 107 571 13 z "},"9":{"ha":968,"x_min":null,"x_max":null,"o":"m 393 -17 b 922 524 622 -17 922 125 b 460 1004 922 842 686 1004 b 46 642 250 1004 46 876 b 381 300 46 386 222 300 b 614 397 489 300 589 342 b 376 24 614 133 472 24 b 292 103 328 24 292 51 b 351 165 292 135 315 165 b 385 149 374 165 385 157 b 358 138 385 143 376 138 b 332 117 338 138 332 126 b 351 99 332 108 338 99 b 417 167 394 99 417 131 b 292 274 417 215 376 274 b 156 138 225 274 156 238 b 393 -17 156 53 233 -17 z m 500 386 b 335 686 422 386 335 506 b 460 963 335 863 393 963 b 621 622 535 963 621 810 b 500 386 621 469 564 386 z "}," ":{"ha":250,"x_min":null,"x_max":null,"o":""},"A":{"ha":1022,"x_min":null,"x_max":null,"o":"m 239 0 b 444 232 239 156 336 232 b 715 0 554 232 674 154 l 1000 0 b 651 975 856 325 740 650 l 367 975 b 31 0 328 711 171 325 z m 249 194 b 411 881 272 419 332 653 b 644 238 489 694 586 431 b 478 281 600 267 539 281 b 249 194 390 281 300 253 z "},"Á":{"ha":1022,"x_min":null,"x_max":null,"o":"m 454 1051 l 754 1269 l 481 1269 l 413 1051 z m 239 0 b 444 232 239 156 336 232 b 715 0 554 232 674 154 l 1000 0 b 651 975 856 325 740 650 l 367 975 b 31 0 328 711 171 325 z m 249 194 b 411 881 272 419 332 653 b 644 238 489 694 586 431 b 478 281 600 267 539 281 b 249 194 390 281 300 253 z "},"Ă":{"ha":1022,"x_min":null,"x_max":null,"o":"m 501 1051 b 685 1208 629 1051 685 1138 b 608 1303 685 1275 643 1303 b 551 1258 578 1303 551 1286 b 568 1238 551 1246 557 1238 b 582 1250 578 1238 582 1243 b 569 1263 582 1256 578 1263 b 564 1267 567 1263 564 1264 b 588 1282 564 1275 575 1282 b 617 1251 600 1282 617 1274 b 501 1182 617 1213 590 1182 b 386 1251 413 1182 386 1213 b 415 1282 386 1274 403 1282 b 439 1267 428 1282 439 1275 b 433 1263 439 1264 436 1263 b 421 1250 425 1263 421 1256 b 435 1238 421 1243 425 1238 b 451 1258 446 1238 451 1246 b 394 1303 451 1286 425 1303 b 318 1208 360 1303 318 1275 b 501 1051 318 1138 374 1051 z m 239 0 b 444 232 239 156 336 232 b 715 0 554 232 674 154 l 1000 0 b 651 975 856 325 740 650 l 367 975 b 31 0 328 711 171 325 z m 249 194 b 411 881 272 419 332 653 b 644 238 489 694 586 431 b 478 281 600 267 539 281 b 249 194 390 281 300 253 z "},"Â":{"ha":1022,"x_min":null,"x_max":null,"o":"m 332 1069 l 499 1210 l 672 1069 l 706 1069 l 599 1294 l 394 1294 l 299 1069 z m 239 0 b 444 232 239 156 336 232 b 715 0 554 232 674 154 l 1000 0 b 651 975 856 325 740 650 l 367 975 b 31 0 328 711 171 325 z m 249 194 b 411 881 272 419 332 653 b 644 238 489 694 586 431 b 478 281 600 267 539 281 b 249 194 390 281 300 253 z "},"Ä":{"ha":1022,"x_min":null,"x_max":null,"o":"m 375 1056 b 481 1154 426 1056 481 1089 b 375 1254 481 1221 426 1254 b 271 1154 322 1254 271 1221 b 375 1056 271 1089 322 1056 z m 633 1056 b 736 1154 683 1056 736 1089 b 633 1254 736 1221 683 1254 b 526 1154 579 1254 526 1221 b 633 1056 526 1089 579 1056 z m 239 0 b 444 232 239 156 336 232 b 715 0 554 232 674 154 l 1000 0 b 651 975 856 325 740 650 l 367 975 b 31 0 328 711 171 325 z m 249 194 b 411 881 272 419 332 653 b 644 238 489 694 586 431 b 478 281 600 267 539 281 b 249 194 390 281 300 253 z "},"À":{"ha":1022,"x_min":null,"x_max":null,"o":"m 589 1051 l 521 1269 l 247 1269 l 546 1051 z m 239 0 b 444 232 239 156 336 232 b 715 0 554 232 674 154 l 1000 0 b 651 975 856 325 740 650 l 367 975 b 31 0 328 711 171 325 z m 249 194 b 411 881 272 419 332 653 b 644 238 489 694 586 431 b 478 281 600 267 539 281 b 249 194 390 281 300 253 z "},"Ā":{"ha":1022,"x_min":null,"x_max":null,"o":"m 721 1079 l 721 1131 l 286 1131 l 286 1079 z m 239 0 b 444 232 239 156 336 232 b 715 0 554 232 674 154 l 1000 0 b 651 975 856 325 740 650 l 367 975 b 31 0 328 711 171 325 z m 249 194 b 411 881 272 419 332 653 b 644 238 489 694 586 431 b 478 281 600 267 539 281 b 249 194 390 281 300 253 z "},"Ą":{"ha":1022,"x_min":null,"x_max":null,"o":"m 979 -139 b 951 -162 960 -139 951 -150 b 988 -186 951 -175 960 -186 b 1021 -204 1010 -186 1021 -196 b 979 -224 1021 -214 1007 -224 b 899 -132 926 -224 899 -181 b 997 0 899 -81 931 -21 l 1000 0 b 651 975 856 325 740 650 l 367 975 b 31 0 328 711 171 325 l 239 0 b 444 232 239 156 336 232 b 715 0 554 232 674 154 l 951 0 b 774 -183 836 -25 774 -111 b 914 -297 774 -244 818 -297 b 1033 -203 975 -297 1033 -262 b 979 -139 1033 -168 1008 -139 z m 478 281 b 249 194 390 281 300 253 b 411 881 272 419 332 653 b 644 238 489 694 586 431 b 478 281 600 267 539 281 z "},"Å":{"ha":1022,"x_min":null,"x_max":null,"o":"m 503 992 b 594 1101 557 992 594 1042 b 503 1211 594 1161 557 1211 b 411 1101 450 1211 411 1161 b 503 992 411 1042 450 992 z m 503 1050 b 458 1100 476 1050 458 1075 b 503 1153 458 1128 476 1153 b 546 1100 531 1153 546 1128 b 503 1050 546 1075 531 1050 z m 239 0 b 444 232 239 156 336 232 b 715 0 554 232 674 154 l 1000 0 b 651 975 856 325 740 650 l 367 975 b 31 0 328 711 171 325 z m 249 194 b 411 881 272 419 332 653 b 644 238 489 694 586 431 b 478 281 600 267 539 281 b 249 194 390 281 300 253 z "},"Ã":{"ha":1022,"x_min":null,"x_max":null,"o":"m 310 1046 b 360 1082 346 1046 360 1064 b 338 1108 360 1096 350 1108 b 326 1099 329 1108 326 1103 b 342 1089 326 1093 329 1089 b 354 1082 350 1089 354 1085 b 331 1069 354 1075 344 1069 b 276 1135 296 1069 276 1104 b 311 1176 276 1157 288 1176 b 601 1053 374 1176 493 1053 b 731 1206 686 1053 731 1136 b 658 1300 731 1257 707 1300 b 608 1264 621 1300 608 1281 b 631 1238 608 1250 618 1238 b 642 1247 638 1238 642 1243 b 626 1257 642 1253 638 1257 b 614 1264 618 1257 614 1261 b 638 1276 614 1271 624 1276 b 694 1217 675 1276 694 1244 b 658 1175 694 1194 682 1175 b 374 1300 597 1175 467 1300 b 238 1133 279 1300 238 1210 b 310 1046 238 1085 261 1046 z m 239 0 b 444 232 239 156 336 232 b 715 0 554 232 674 154 l 1000 0 b 651 975 856 325 740 650 l 367 975 b 31 0 328 711 171 325 z m 249 194 b 411 881 272 419 332 653 b 644 238 489 694 586 431 b 478 281 600 267 539 281 b 249 194 390 281 300 253 z "},"Æ":{"ha":1442,"x_min":null,"x_max":null,"o":"m 1140 -21 b 1414 171 1331 -21 1414 78 b 1222 339 1414 257 1344 339 b 1053 207 1135 339 1053 293 b 1115 133 1053 168 1081 133 b 1146 161 1136 133 1146 147 b 1104 189 1146 175 1136 189 b 1067 208 1079 189 1067 199 b 1115 232 1067 219 1082 232 b 1215 138 1185 232 1215 186 b 1061 25 1215 47 1140 25 b 936 38 1017 25 971 32 b 915 488 922 186 915 339 l 957 488 b 1236 404 1049 488 1167 471 l 1236 613 b 957 529 1167 546 1049 529 l 915 529 b 917 942 917 651 917 849 b 1032 958 957 953 996 958 b 1192 829 1124 958 1192 921 b 1099 739 1192 782 1161 739 b 1050 763 1065 739 1050 751 b 1088 782 1050 772 1063 782 b 1129 810 1119 782 1129 796 b 1099 838 1129 824 1119 838 b 1036 764 1064 838 1036 803 b 1175 661 1036 715 1072 661 b 1368 833 1307 661 1368 747 b 1115 1004 1368 919 1318 1004 b 651 975 1018 1004 794 975 l 492 975 b 31 0 397 669 190 232 l 239 0 b 489 164 279 103 392 164 b 651 0 576 164 651 114 l 767 13 b 1140 -21 883 13 989 -21 z m 661 132 b 450 218 590 193 519 218 b 290 179 396 218 343 203 b 582 915 368 414 501 710 l 656 921 b 672 488 667 776 672 632 b 661 132 672 369 668 250 z "},"B":{"ha":883,"x_min":null,"x_max":null,"o":"m 383 -12 b 856 296 649 -12 856 75 b 651 564 856 415 788 533 b 803 782 750 611 803 699 b 421 1003 803 928 649 1003 b 42 975 308 1003 215 975 b 74 488 63 819 74 639 b 42 0 74 336 63 157 b 383 -12 215 0 276 -12 z m 372 39 b 324 42 357 39 340 39 b 307 482 313 179 307 329 b 324 947 307 639 313 797 b 361 949 336 949 350 949 b 560 760 482 949 560 892 b 431 544 560 590 489 544 b 388 575 401 544 388 560 b 438 607 388 590 399 607 b 481 646 467 607 481 626 b 438 683 481 664 467 683 b 346 603 382 683 346 649 b 465 499 346 557 383 521 b 589 301 536 479 589 429 b 372 39 589 136 514 39 z "},"C":{"ha":872,"x_min":null,"x_max":null,"o":"m 526 -21 b 846 203 722 -21 846 68 b 708 340 846 276 796 340 b 564 182 649 340 564 288 b 601 135 564 150 583 135 b 632 168 617 135 632 147 b 592 236 632 207 592 214 b 617 265 592 256 603 265 b 686 149 644 265 686 226 b 571 24 686 72 635 24 b 317 525 463 24 317 160 b 543 960 317 749 397 960 b 647 846 611 960 647 900 b 575 758 647 785 610 758 b 518 807 546 758 518 776 b 542 839 518 824 526 839 b 594 829 567 839 574 829 b 615 850 607 829 615 839 b 585 872 615 861 606 872 b 479 757 518 872 479 815 b 650 615 479 689 533 615 b 828 783 763 615 828 696 b 519 1004 828 922 683 1004 b 39 496 299 1004 39 857 b 526 -21 39 142 268 -21 z "},"Ć":{"ha":872,"x_min":null,"x_max":null,"o":"m 400 1051 l 700 1269 l 426 1269 l 358 1051 z m 526 -21 b 846 203 722 -21 846 68 b 708 340 846 276 796 340 b 564 182 649 340 564 288 b 601 135 564 150 583 135 b 632 168 617 135 632 147 b 592 236 632 207 592 214 b 617 265 592 256 603 265 b 686 149 644 265 686 226 b 571 24 686 72 635 24 b 317 525 463 24 317 160 b 543 960 317 749 397 960 b 647 846 611 960 647 900 b 575 758 647 785 610 758 b 518 807 546 758 518 776 b 542 839 518 824 526 839 b 594 829 567 839 574 829 b 615 850 607 829 615 839 b 585 872 615 861 606 872 b 479 757 518 872 479 815 b 650 615 479 689 533 615 b 828 783 763 615 828 696 b 519 1004 828 922 683 1004 b 39 496 299 1004 39 857 b 526 -21 39 142 268 -21 z "},"Č":{"ha":872,"x_min":null,"x_max":null,"o":"m 544 1036 l 651 1261 l 618 1261 l 444 1121 l 278 1261 l 244 1261 l 340 1036 z m 526 -21 b 846 203 722 -21 846 68 b 708 340 846 276 796 340 b 564 182 649 340 564 288 b 601 135 564 150 583 135 b 632 168 617 135 632 147 b 592 236 632 207 592 214 b 617 265 592 256 603 265 b 686 149 644 265 686 226 b 571 24 686 72 635 24 b 317 525 463 24 317 160 b 543 960 317 749 397 960 b 647 846 611 960 647 900 b 575 758 647 785 610 758 b 518 807 546 758 518 776 b 542 839 518 824 526 839 b 594 829 567 839 574 829 b 615 850 607 829 615 839 b 585 872 615 861 606 872 b 479 757 518 872 479 815 b 650 615 479 689 533 615 b 828 783 763 615 828 696 b 519 1004 828 922 683 1004 b 39 496 299 1004 39 857 b 526 -21 39 142 268 -21 z "},"Ç":{"ha":872,"x_min":null,"x_max":null,"o":"m 526 -21 b 846 203 722 -21 846 68 b 708 340 846 276 796 340 b 564 182 649 340 564 288 b 601 135 564 150 583 135 b 632 168 617 135 632 147 b 592 236 632 207 592 214 b 617 265 592 256 603 265 b 686 149 644 265 686 226 b 571 24 686 72 635 24 b 317 525 463 24 317 160 b 543 960 317 749 397 960 b 647 846 611 960 647 900 b 575 758 647 785 610 758 b 518 807 546 758 518 776 b 542 839 518 824 526 839 b 594 829 567 839 574 829 b 615 850 607 829 615 839 b 585 872 615 861 606 872 b 479 757 518 872 479 815 b 650 615 479 689 533 615 b 828 783 763 615 828 696 b 519 1004 828 922 683 1004 b 39 496 299 1004 39 857 b 411 -10 39 196 203 33 l 379 -97 b 410 -93 390 -94 400 -93 b 492 -199 456 -93 492 -139 b 424 -321 492 -286 456 -321 b 375 -262 399 -321 375 -299 b 410 -224 375 -243 388 -224 b 431 -233 424 -224 431 -228 b 415 -240 431 -237 425 -240 b 397 -253 401 -240 397 -247 b 410 -264 397 -258 401 -264 b 436 -233 425 -264 436 -250 b 379 -190 436 -212 421 -190 b 311 -258 336 -190 311 -222 b 436 -347 311 -300 349 -347 b 626 -199 525 -347 626 -303 b 476 -60 626 -119 575 -60 b 426 -64 461 -60 444 -61 l 443 -15 b 526 -21 471 -19 499 -21 z "},"Ċ":{"ha":872,"x_min":null,"x_max":null,"o":"m 447 1036 b 592 1185 544 1036 592 1110 b 447 1332 592 1258 544 1332 b 306 1185 353 1332 306 1258 b 447 1036 306 1110 353 1036 z m 526 -21 b 846 203 722 -21 846 68 b 708 340 846 276 796 340 b 564 182 649 340 564 288 b 601 135 564 150 583 135 b 632 168 617 135 632 147 b 592 236 632 207 592 214 b 617 265 592 256 603 265 b 686 149 644 265 686 226 b 571 24 686 72 635 24 b 317 525 463 24 317 160 b 543 960 317 749 397 960 b 647 846 611 960 647 900 b 575 758 647 785 610 758 b 518 807 546 758 518 776 b 542 839 518 824 526 839 b 594 829 567 839 574 829 b 615 850 607 829 615 839 b 585 872 615 861 606 872 b 479 757 518 872 479 815 b 650 615 479 689 533 615 b 828 783 763 615 828 696 b 519 1004 828 922 683 1004 b 39 496 299 1004 39 857 b 526 -21 39 142 268 -21 z "},"D":{"ha":988,"x_min":null,"x_max":null,"o":"m 453 -18 b 942 503 696 -18 942 133 b 488 1004 942 819 761 1004 b 46 975 350 1004 204 975 b 67 488 60 813 67 650 b 46 0 67 325 60 163 b 453 -18 226 0 267 -18 z m 331 26 b 317 486 322 175 317 331 b 331 944 317 640 322 796 b 657 503 539 961 657 824 b 331 26 657 181 518 17 z "},"Ð":{"ha":988,"x_min":null,"x_max":null,"o":"m 488 1004 b 46 975 350 1004 204 975 b 67 508 60 819 67 664 l -17 508 l -17 467 l 67 467 b 46 0 67 311 60 156 b 453 -18 226 0 267 -18 b 942 503 696 -18 942 133 b 488 1004 942 819 761 1004 z m 331 26 b 317 467 322 169 317 318 l 429 467 l 429 508 l 317 508 b 331 944 317 656 322 803 b 657 503 539 961 657 824 b 331 26 657 181 518 17 z "},"Ď":{"ha":988,"x_min":null,"x_max":null,"o":"m 590 1036 l 697 1261 l 664 1261 l 490 1121 l 324 1261 l 290 1261 l 386 1036 z m 453 -18 b 942 503 696 -18 942 133 b 488 1004 942 819 761 1004 b 46 975 350 1004 204 975 b 67 488 60 813 67 650 b 46 0 67 325 60 163 b 453 -18 226 0 267 -18 z m 331 26 b 317 486 322 175 317 331 b 331 944 317 640 322 796 b 657 503 539 961 657 824 b 331 26 657 181 518 17 z "},"Đ":{"ha":988,"x_min":null,"x_max":null,"o":"m 488 1004 b 46 975 350 1004 204 975 b 67 508 60 819 67 664 l -17 508 l -17 467 l 67 467 b 46 0 67 311 60 156 b 453 -18 226 0 267 -18 b 942 503 696 -18 942 133 b 488 1004 942 819 761 1004 z m 331 26 b 317 467 322 169 317 318 l 429 467 l 429 508 l 317 508 b 331 944 317 656 322 803 b 657 503 539 961 657 824 b 331 26 657 181 518 17 z "},"E":{"ha":836,"x_min":null,"x_max":null,"o":"m 535 -21 b 808 171 725 -21 808 78 b 617 339 808 257 739 339 b 447 207 529 339 447 293 b 510 133 447 168 475 133 b 540 161 531 133 540 147 b 499 189 540 175 531 189 b 461 208 474 189 461 199 b 510 232 461 219 476 232 b 610 138 579 232 610 186 b 456 25 610 47 535 25 b 331 38 411 25 365 32 b 310 488 317 186 310 339 l 351 488 b 631 404 443 488 561 471 l 631 613 b 351 529 561 546 443 529 l 310 529 b 311 942 311 651 311 849 b 426 958 351 953 390 958 b 586 829 518 958 586 921 b 493 739 586 782 556 739 b 444 763 460 739 444 751 b 482 782 444 772 457 782 b 524 810 514 782 524 796 b 493 838 524 824 514 838 b 431 764 458 838 431 803 b 569 661 431 715 467 661 b 763 833 701 661 763 747 b 510 1004 763 919 713 1004 b 46 975 413 1004 189 975 b 67 488 60 813 67 650 b 46 0 67 325 60 163 b 161 13 86 8 124 13 b 535 -21 278 13 383 -21 z "},"É":{"ha":836,"x_min":null,"x_max":null,"o":"m 340 1050 l 640 1268 l 367 1268 l 299 1050 z m 535 -21 b 808 171 725 -21 808 78 b 617 339 808 257 739 339 b 447 207 529 339 447 293 b 510 133 447 168 475 133 b 540 161 531 133 540 147 b 499 189 540 175 531 189 b 461 208 474 189 461 199 b 510 232 461 219 476 232 b 610 138 579 232 610 186 b 456 25 610 47 535 25 b 331 38 411 25 365 32 b 310 488 317 186 310 339 l 351 488 b 631 404 443 488 561 471 l 631 613 b 351 529 561 546 443 529 l 310 529 b 311 942 311 651 311 849 b 426 958 351 953 390 958 b 586 829 518 958 586 921 b 493 739 586 782 556 739 b 444 763 460 739 444 751 b 482 782 444 772 457 782 b 524 810 514 782 524 796 b 493 838 524 824 514 838 b 431 764 458 838 431 803 b 569 661 431 715 467 661 b 763 833 701 661 763 747 b 510 1004 763 919 713 1004 b 46 975 413 1004 189 975 b 67 488 60 813 67 650 b 46 0 67 325 60 163 b 161 13 86 8 124 13 b 535 -21 278 13 383 -21 z "},"Ě":{"ha":836,"x_min":null,"x_max":null,"o":"m 485 1035 l 592 1260 l 558 1260 l 385 1119 l 218 1260 l 185 1260 l 281 1035 z m 535 -21 b 808 171 725 -21 808 78 b 617 339 808 257 739 339 b 447 207 529 339 447 293 b 510 133 447 168 475 133 b 540 161 531 133 540 147 b 499 189 540 175 531 189 b 461 208 474 189 461 199 b 510 232 461 219 476 232 b 610 138 579 232 610 186 b 456 25 610 47 535 25 b 331 38 411 25 365 32 b 310 488 317 186 310 339 l 351 488 b 631 404 443 488 561 471 l 631 613 b 351 529 561 546 443 529 l 310 529 b 311 942 311 651 311 849 b 426 958 351 953 390 958 b 586 829 518 958 586 921 b 493 739 586 782 556 739 b 444 763 460 739 444 751 b 482 782 444 772 457 782 b 524 810 514 782 524 796 b 493 838 524 824 514 838 b 431 764 458 838 431 803 b 569 661 431 715 467 661 b 763 833 701 661 763 747 b 510 1004 763 919 713 1004 b 46 975 413 1004 189 975 b 67 488 60 813 67 650 b 46 0 67 325 60 163 b 161 13 86 8 124 13 b 535 -21 278 13 383 -21 z "},"Ê":{"ha":836,"x_min":null,"x_max":null,"o":"m 218 1068 l 385 1208 l 558 1068 l 592 1068 l 485 1293 l 281 1293 l 185 1068 z m 535 -21 b 808 171 725 -21 808 78 b 617 339 808 257 739 339 b 447 207 529 339 447 293 b 510 133 447 168 475 133 b 540 161 531 133 540 147 b 499 189 540 175 531 189 b 461 208 474 189 461 199 b 510 232 461 219 476 232 b 610 138 579 232 610 186 b 456 25 610 47 535 25 b 331 38 411 25 365 32 b 310 488 317 186 310 339 l 351 488 b 631 404 443 488 561 471 l 631 613 b 351 529 561 546 443 529 l 310 529 b 311 942 311 651 311 849 b 426 958 351 953 390 958 b 586 829 518 958 586 921 b 493 739 586 782 556 739 b 444 763 460 739 444 751 b 482 782 444 772 457 782 b 524 810 514 782 524 796 b 493 838 524 824 514 838 b 431 764 458 838 431 803 b 569 661 431 715 467 661 b 763 833 701 661 763 747 b 510 1004 763 919 713 1004 b 46 975 413 1004 189 975 b 67 488 60 813 67 650 b 46 0 67 325 60 163 b 161 13 86 8 124 13 b 535 -21 278 13 383 -21 z "},"Ë":{"ha":836,"x_min":null,"x_max":null,"o":"m 261 1054 b 367 1153 313 1054 367 1088 b 261 1253 367 1219 313 1253 b 157 1153 208 1253 157 1219 b 261 1054 157 1088 208 1054 z m 519 1054 b 622 1153 569 1054 622 1088 b 519 1253 622 1219 569 1253 b 413 1153 465 1253 413 1219 b 519 1054 413 1088 465 1054 z m 535 -21 b 808 171 725 -21 808 78 b 617 339 808 257 739 339 b 447 207 529 339 447 293 b 510 133 447 168 475 133 b 540 161 531 133 540 147 b 499 189 540 175 531 189 b 461 208 474 189 461 199 b 510 232 461 219 476 232 b 610 138 579 232 610 186 b 456 25 610 47 535 25 b 331 38 411 25 365 32 b 310 488 317 186 310 339 l 351 488 b 631 404 443 488 561 471 l 631 613 b 351 529 561 546 443 529 l 310 529 b 311 942 311 651 311 849 b 426 958 351 953 390 958 b 586 829 518 958 586 921 b 493 739 586 782 556 739 b 444 763 460 739 444 751 b 482 782 444 772 457 782 b 524 810 514 782 524 796 b 493 838 524 824 514 838 b 431 764 458 838 431 803 b 569 661 431 715 467 661 b 763 833 701 661 763 747 b 510 1004 763 919 713 1004 b 46 975 413 1004 189 975 b 67 488 60 813 67 650 b 46 0 67 325 60 163 b 161 13 86 8 124 13 b 535 -21 278 13 383 -21 z "},"Ė":{"ha":836,"x_min":null,"x_max":null,"o":"m 388 1035 b 532 1183 485 1035 532 1108 b 388 1331 532 1257 485 1331 b 246 1183 293 1331 246 1257 b 388 1035 246 1108 293 1035 z m 535 -21 b 808 171 725 -21 808 78 b 617 339 808 257 739 339 b 447 207 529 339 447 293 b 510 133 447 168 475 133 b 540 161 531 133 540 147 b 499 189 540 175 531 189 b 461 208 474 189 461 199 b 510 232 461 219 476 232 b 610 138 579 232 610 186 b 456 25 610 47 535 25 b 331 38 411 25 365 32 b 310 488 317 186 310 339 l 351 488 b 631 404 443 488 561 471 l 631 613 b 351 529 561 546 443 529 l 310 529 b 311 942 311 651 311 849 b 426 958 351 953 390 958 b 586 829 518 958 586 921 b 493 739 586 782 556 739 b 444 763 460 739 444 751 b 482 782 444 772 457 782 b 524 810 514 782 524 796 b 493 838 524 824 514 838 b 431 764 458 838 431 803 b 569 661 431 715 467 661 b 763 833 701 661 763 747 b 510 1004 763 919 713 1004 b 46 975 413 1004 189 975 b 67 488 60 813 67 650 b 46 0 67 325 60 163 b 161 13 86 8 124 13 b 535 -21 278 13 383 -21 z "},"È":{"ha":836,"x_min":null,"x_max":null,"o":"m 475 1050 l 407 1268 l 133 1268 l 432 1050 z m 535 -21 b 808 171 725 -21 808 78 b 617 339 808 257 739 339 b 447 207 529 339 447 293 b 510 133 447 168 475 133 b 540 161 531 133 540 147 b 499 189 540 175 531 189 b 461 208 474 189 461 199 b 510 232 461 219 476 232 b 610 138 579 232 610 186 b 456 25 610 47 535 25 b 331 38 411 25 365 32 b 310 488 317 186 310 339 l 351 488 b 631 404 443 488 561 471 l 631 613 b 351 529 561 546 443 529 l 310 529 b 311 942 311 651 311 849 b 426 958 351 953 390 958 b 586 829 518 958 586 921 b 493 739 586 782 556 739 b 444 763 460 739 444 751 b 482 782 444 772 457 782 b 524 810 514 782 524 796 b 493 838 524 824 514 838 b 431 764 458 838 431 803 b 569 661 431 715 467 661 b 763 833 701 661 763 747 b 510 1004 763 919 713 1004 b 46 975 413 1004 189 975 b 67 488 60 813 67 650 b 46 0 67 325 60 163 b 161 13 86 8 124 13 b 535 -21 278 13 383 -21 z "},"Ē":{"ha":836,"x_min":null,"x_max":null,"o":"m 607 1078 l 607 1129 l 172 1129 l 172 1078 z m 535 -21 b 808 171 725 -21 808 78 b 617 339 808 257 739 339 b 447 207 529 339 447 293 b 510 133 447 168 475 133 b 540 161 531 133 540 147 b 499 189 540 175 531 189 b 461 208 474 189 461 199 b 510 232 461 219 476 232 b 610 138 579 232 610 186 b 456 25 610 47 535 25 b 331 38 411 25 365 32 b 310 488 317 186 310 339 l 351 488 b 631 404 443 488 561 471 l 631 613 b 351 529 561 546 443 529 l 310 529 b 311 942 311 651 311 849 b 426 958 351 953 390 958 b 586 829 518 958 586 921 b 493 739 586 782 556 739 b 444 763 460 739 444 751 b 482 782 444 772 457 782 b 524 810 514 782 524 796 b 493 838 524 824 514 838 b 431 764 458 838 431 803 b 569 661 431 715 467 661 b 763 833 701 661 763 747 b 510 1004 763 919 713 1004 b 46 975 413 1004 189 975 b 67 488 60 813 67 650 b 46 0 67 325 60 163 b 161 13 86 8 124 13 b 535 -21 278 13 383 -21 z "},"Ę":{"ha":836,"x_min":null,"x_max":null,"o":"m 507 -21 l 535 -21 b 808 171 725 -21 808 78 b 617 339 808 257 739 339 b 447 207 529 339 447 293 b 510 133 447 168 475 133 b 540 161 531 133 540 147 b 499 189 540 175 531 189 b 461 208 474 189 461 199 b 510 232 461 219 476 232 b 610 138 579 232 610 186 b 456 25 610 47 535 25 b 331 38 411 25 365 32 b 310 488 317 186 310 339 l 351 488 b 631 404 443 488 561 471 l 631 613 b 351 529 561 546 443 529 l 310 529 b 311 942 311 651 311 849 b 426 958 351 953 390 958 b 586 829 518 958 586 921 b 493 739 586 782 556 739 b 444 763 460 739 444 751 b 482 782 444 772 457 782 b 524 810 514 782 524 796 b 493 838 524 824 514 838 b 431 764 458 838 431 803 b 569 661 431 715 467 661 b 763 833 701 661 763 747 b 510 1004 763 919 713 1004 b 46 975 413 1004 189 975 b 67 488 60 813 67 650 b 46 0 67 325 60 163 b 161 13 86 8 124 13 b 456 -18 257 13 344 -10 b 308 -193 360 -50 308 -128 b 449 -307 308 -254 353 -307 b 568 -212 510 -307 568 -272 b 514 -149 568 -178 543 -149 b 486 -172 494 -149 486 -160 b 522 -196 486 -185 494 -196 b 556 -214 544 -196 556 -206 b 514 -233 556 -224 542 -233 b 433 -142 461 -233 433 -190 b 507 -21 433 -97 457 -47 z "},"F":{"ha":726,"x_min":null,"x_max":null,"o":"m 331 0 b 310 488 317 163 310 325 l 367 488 b 617 404 457 488 547 471 l 617 613 b 367 529 547 546 457 529 l 310 529 b 331 944 311 664 318 810 b 403 953 357 950 382 953 b 528 854 494 953 528 903 b 429 751 528 783 469 751 b 394 775 410 751 394 760 b 454 806 394 796 413 806 b 481 829 471 806 481 817 b 449 854 481 842 471 854 b 378 782 406 854 378 819 b 514 685 378 735 418 685 b 721 857 610 685 721 743 b 557 1004 721 932 676 1004 b 164 967 411 1004 307 967 b 46 975 128 967 89 969 b 67 488 60 813 67 650 b 46 0 67 325 60 163 z "},"G":{"ha":918,"x_min":null,"x_max":null,"o":"m 547 -15 b 886 74 664 -15 785 17 b 865 261 872 136 865 199 b 886 447 865 322 872 385 l 601 447 b 631 257 621 393 631 324 b 531 31 631 139 599 31 b 324 578 443 31 324 236 b 543 963 324 849 443 963 b 679 797 617 963 679 901 b 571 651 679 693 622 651 b 496 721 532 651 496 678 b 575 764 496 742 521 765 b 618 807 603 764 618 786 b 575 847 618 828 604 847 b 463 711 500 847 463 774 b 658 540 463 632 526 540 b 882 742 807 540 882 636 b 538 1004 882 911 719 1004 b 46 508 307 1004 46 853 b 547 -15 46 136 289 -15 z "},"Ğ":{"ha":918,"x_min":null,"x_max":null,"o":"m 465 1051 b 649 1208 593 1051 649 1138 b 572 1303 649 1275 607 1303 b 515 1258 542 1303 515 1286 b 532 1238 515 1246 521 1238 b 546 1250 542 1238 546 1243 b 533 1263 546 1256 542 1263 b 528 1267 531 1263 528 1264 b 551 1282 528 1275 539 1282 b 581 1251 564 1282 581 1274 b 465 1182 581 1213 554 1182 b 350 1251 376 1182 350 1213 b 379 1282 350 1274 367 1282 b 403 1267 392 1282 403 1275 b 397 1263 403 1264 400 1263 b 385 1250 389 1263 385 1256 b 399 1238 385 1243 389 1238 b 415 1258 410 1238 415 1246 b 358 1303 415 1286 389 1303 b 282 1208 324 1303 282 1275 b 465 1051 282 1138 338 1051 z m 547 -15 b 886 74 664 -15 785 17 b 865 261 872 136 865 199 b 886 447 865 322 872 385 l 601 447 b 631 257 621 393 631 324 b 531 31 631 139 599 31 b 324 578 443 31 324 236 b 543 963 324 849 443 963 b 679 797 617 963 679 901 b 571 651 679 693 622 651 b 496 721 532 651 496 678 b 575 764 496 742 521 765 b 618 807 603 764 618 786 b 575 847 618 828 604 847 b 463 711 500 847 463 774 b 658 540 463 632 526 540 b 882 742 807 540 882 636 b 538 1004 882 911 719 1004 b 46 508 307 1004 46 853 b 547 -15 46 136 289 -15 z "},"Ģ":{"ha":918,"x_min":null,"x_max":null,"o":"m 547 -15 b 886 74 664 -15 785 17 b 865 261 872 136 865 199 b 886 447 865 322 872 385 l 601 447 b 631 257 621 393 631 324 b 531 31 631 139 599 31 b 324 578 443 31 324 236 b 543 963 324 849 443 963 b 679 797 617 963 679 901 b 571 651 679 693 622 651 b 496 721 532 651 496 678 b 575 764 496 742 521 765 b 618 807 603 764 618 786 b 575 847 618 828 604 847 b 463 711 500 847 463 774 b 658 540 463 632 526 540 b 882 742 807 540 882 636 b 538 1004 882 911 719 1004 b 46 508 307 1004 46 853 b 547 -15 46 136 289 -15 z m 293 -362 b 461 -318 361 -362 418 -349 b 575 -90 518 -276 575 -204 l 379 -90 b 393 -206 388 -129 393 -169 b 293 -349 393 -285 368 -350 z "},"Ġ":{"ha":918,"x_min":null,"x_max":null,"o":"m 465 1036 b 610 1185 563 1036 610 1110 b 465 1332 610 1258 563 1332 b 324 1185 371 1332 324 1258 b 465 1036 324 1110 371 1036 z m 547 -15 b 886 74 664 -15 785 17 b 865 261 872 136 865 199 b 886 447 865 322 872 385 l 601 447 b 631 257 621 393 631 324 b 531 31 631 139 599 31 b 324 578 443 31 324 236 b 543 963 324 849 443 963 b 679 797 617 963 679 901 b 571 651 679 693 622 651 b 496 721 532 651 496 678 b 575 764 496 742 521 765 b 618 807 603 764 618 786 b 575 847 618 828 604 847 b 463 711 500 847 463 774 b 658 540 463 632 526 540 b 882 742 807 540 882 636 b 538 1004 882 911 719 1004 b 46 508 307 1004 46 853 b 547 -15 46 136 289 -15 z "},"H":{"ha":935,"x_min":null,"x_max":null,"o":"m 331 0 b 310 488 317 163 310 325 l 625 488 b 604 0 625 325 618 163 l 889 0 b 889 975 861 325 861 650 l 604 975 b 625 529 617 826 624 678 l 310 529 b 331 975 311 678 318 826 l 46 975 b 46 0 74 650 74 325 z "},"Ħ":{"ha":935,"x_min":null,"x_max":null,"o":"m 604 975 b 619 729 611 893 617 811 l 315 729 b 331 975 318 811 324 893 l 46 975 b 46 0 74 650 74 325 l 331 0 b 310 488 317 163 310 325 l 625 488 b 604 0 625 325 618 163 l 889 0 b 889 975 861 325 861 650 z m 310 529 b 314 688 310 582 311 635 l 621 688 b 625 529 624 635 625 582 z "},"I":{"ha":376,"x_min":null,"x_max":null,"o":"m 331 0 b 331 975 303 325 303 650 l 46 975 b 46 0 74 650 74 325 z "},"Í":{"ha":376,"x_min":null,"x_max":null,"o":"m 140 1051 l 440 1269 l 167 1269 l 99 1051 z m 331 0 b 331 975 303 325 303 650 l 46 975 b 46 0 74 650 74 325 z "},"Î":{"ha":376,"x_min":null,"x_max":null,"o":"m 18 1069 l 185 1210 l 358 1069 l 392 1069 l 285 1294 l 81 1294 l -15 1069 z m 331 0 b 331 975 303 325 303 650 l 46 975 b 46 0 74 650 74 325 z "},"Ï":{"ha":376,"x_min":null,"x_max":null,"o":"m 61 1056 b 167 1154 113 1056 167 1089 b 61 1254 167 1221 113 1254 b -43 1154 8 1254 -43 1221 b 61 1056 -43 1089 8 1056 z m 319 1056 b 422 1154 369 1056 422 1089 b 319 1254 422 1221 369 1254 b 213 1154 265 1254 213 1221 b 319 1056 213 1089 265 1056 z m 331 0 b 331 975 303 325 303 650 l 46 975 b 46 0 74 650 74 325 z "},"İ":{"ha":376,"x_min":null,"x_max":null,"o":"m 188 1036 b 332 1185 285 1036 332 1110 b 188 1332 332 1258 285 1332 b 46 1185 93 1332 46 1258 b 188 1036 46 1110 93 1036 z m 331 0 b 331 975 303 325 303 650 l 46 975 b 46 0 74 650 74 325 z "},"Ì":{"ha":376,"x_min":null,"x_max":null,"o":"m 275 1051 l 207 1269 l -67 1269 l 232 1051 z m 331 0 b 331 975 303 325 303 650 l 46 975 b 46 0 74 650 74 325 z "},"Ī":{"ha":376,"x_min":null,"x_max":null,"o":"m 407 1079 l 407 1131 l -28 1131 l -28 1079 z m 331 0 b 331 975 303 325 303 650 l 46 975 b 46 0 74 650 74 325 z "},"Į":{"ha":376,"x_min":null,"x_max":null,"o":"m 310 -139 b 282 -162 290 -139 282 -150 b 318 -186 282 -175 290 -186 b 351 -204 340 -186 351 -196 b 310 -224 351 -214 338 -224 b 229 -132 257 -224 229 -181 b 328 0 229 -81 261 -21 l 331 0 b 331 975 303 325 303 650 l 46 975 b 46 0 74 650 74 325 l 282 0 b 104 -183 167 -25 104 -111 b 244 -297 104 -244 149 -297 b 364 -203 306 -297 364 -262 b 310 -139 364 -168 339 -139 z "},"J":{"ha":750,"x_min":null,"x_max":null,"o":"m 314 -21 b 690 275 496 -21 690 75 b 706 975 690 536 678 756 l 421 975 b 465 356 446 726 465 515 b 314 8 465 135 428 8 b 175 147 224 8 175 82 b 263 244 175 217 221 244 b 328 193 296 244 328 225 b 282 136 328 164 311 136 b 253 147 272 136 265 147 b 229 129 238 147 229 139 b 257 110 229 119 238 110 b 390 221 349 110 390 163 b 215 368 390 290 328 368 b 8 189 104 368 8 308 b 314 -21 8 90 99 -21 z "},"K":{"ha":1036,"x_min":null,"x_max":null,"o":"m 990 -4 b 524 582 913 339 756 582 b 411 564 489 582 450 576 l 410 565 l 565 757 b 794 757 669 886 794 840 b 728 681 794 703 758 681 b 685 717 706 681 685 693 b 710 740 685 729 693 740 b 731 761 724 740 731 751 b 703 786 731 778 718 786 b 658 729 675 786 658 761 b 808 614 658 679 701 614 b 1024 822 954 614 1024 721 b 850 996 1024 929 949 996 b 594 854 771 996 676 953 l 310 511 b 331 975 310 665 317 821 l 46 975 b 67 488 60 813 67 650 b 46 0 67 325 60 163 l 331 0 b 310 450 318 150 311 300 l 338 482 b 422 528 364 513 393 528 b 675 -1 525 528 635 343 z "},"Ķ":{"ha":1036,"x_min":null,"x_max":null,"o":"m 990 -4 b 524 582 913 339 756 582 b 411 564 489 582 450 576 l 410 565 l 565 757 b 794 757 669 886 794 840 b 728 681 794 703 758 681 b 685 717 706 681 685 693 b 710 740 685 729 693 740 b 731 761 724 740 731 751 b 703 786 731 778 718 786 b 658 729 675 786 658 761 b 808 614 658 679 701 614 b 1024 822 954 614 1024 721 b 850 996 1024 929 949 996 b 594 854 771 996 676 953 l 310 511 b 331 975 310 665 317 821 l 46 975 b 67 488 60 813 67 650 b 46 0 67 325 60 163 l 331 0 b 310 450 318 150 311 300 l 338 482 b 422 528 364 513 393 528 b 675 -1 525 528 635 343 z m 338 -362 b 506 -318 406 -362 463 -349 b 619 -90 563 -276 619 -204 l 424 -90 b 438 -206 432 -129 438 -169 b 338 -349 438 -285 413 -350 z "},"L":{"ha":779,"x_min":null,"x_max":null,"o":"m 551 -21 b 756 158 703 -21 756 83 b 568 338 756 283 658 338 b 422 235 467 338 422 283 b 503 158 422 194 451 158 b 549 199 533 158 549 179 b 499 238 549 217 536 238 b 460 260 472 238 460 247 b 514 290 460 274 479 290 b 581 199 544 290 581 263 b 400 47 581 132 525 47 b 328 56 378 47 354 50 b 286 547 304 139 286 344 b 331 975 286 717 299 883 l 46 975 b 79 435 67 817 79 619 b 46 0 79 267 69 108 b 203 19 104 14 156 19 b 551 -21 335 19 431 -21 z "},"Ĺ":{"ha":779,"x_min":null,"x_max":null,"o":"m 113 1051 l 413 1269 l 139 1269 l 71 1051 z m 551 -21 b 756 158 703 -21 756 83 b 568 338 756 283 658 338 b 422 235 467 338 422 283 b 503 158 422 194 451 158 b 549 199 533 158 549 179 b 499 238 549 217 536 238 b 460 260 472 238 460 247 b 514 290 460 274 479 290 b 581 199 544 290 581 263 b 400 47 581 132 525 47 b 328 56 378 47 354 50 b 286 547 304 139 286 344 b 331 975 286 717 299 883 l 46 975 b 79 435 67 817 79 619 b 46 0 79 267 69 108 b 203 19 104 14 156 19 b 551 -21 335 19 431 -21 z "},"Ľ":{"ha":786,"x_min":null,"x_max":null,"o":"m 551 -21 b 756 158 703 -21 756 83 b 568 338 756 283 658 338 b 422 235 467 338 422 283 b 503 158 422 194 451 158 b 549 199 533 158 549 179 b 499 238 549 217 536 238 b 460 260 472 238 460 247 b 514 290 460 274 479 290 b 581 199 544 290 581 263 b 400 47 581 132 525 47 b 328 56 378 47 354 50 b 286 547 304 139 286 344 b 331 975 286 717 299 883 l 46 975 b 79 435 67 817 79 619 b 46 0 79 267 69 108 b 203 19 104 14 156 19 b 551 -21 335 19 431 -21 z m 539 688 b 763 975 647 688 763 789 l 550 975 b 564 860 558 936 564 896 b 464 717 564 781 539 715 l 464 703 b 539 688 490 692 515 688 z "},"Ļ":{"ha":779,"x_min":null,"x_max":null,"o":"m 551 -21 b 756 158 703 -21 756 83 b 568 338 756 283 658 338 b 422 235 467 338 422 283 b 503 158 422 194 451 158 b 549 199 533 158 549 179 b 499 238 549 217 536 238 b 460 260 472 238 460 247 b 514 290 460 274 479 290 b 581 199 544 290 581 263 b 400 47 581 132 525 47 b 328 56 378 47 354 50 b 286 547 304 139 286 344 b 331 975 286 717 299 883 l 46 975 b 79 435 67 817 79 619 b 46 0 79 267 69 108 b 203 19 104 14 156 19 b 551 -21 335 19 431 -21 z m 217 -362 b 385 -318 285 -362 342 -349 b 499 -90 442 -276 499 -204 l 303 -90 b 317 -206 311 -129 317 -169 b 217 -349 317 -285 292 -350 z "},"Ł":{"ha":779,"x_min":null,"x_max":null,"o":"m 568 338 b 422 235 467 338 422 283 b 503 158 422 194 451 158 b 549 199 533 158 549 179 b 499 238 549 217 536 238 b 460 260 472 238 460 247 b 514 290 460 274 479 290 b 581 199 544 290 581 263 b 400 47 581 132 525 47 b 328 56 378 47 354 50 b 286 547 304 139 286 344 l 286 554 l 363 619 l 363 667 l 286 601 b 331 975 289 751 301 893 l 46 975 b 79 435 67 817 79 619 l 79 425 l -1 356 l -1 308 l 79 376 b 46 0 76 231 67 96 b 203 19 104 14 156 19 b 551 -21 335 19 431 -21 b 756 158 703 -21 756 83 b 568 338 756 283 658 338 z "},"M":{"ha":1065,"x_min":null,"x_max":null,"o":"m 233 0 b 138 839 164 210 126 592 b 414 0 250 575 342 232 l 507 0 b 736 603 574 200 650 401 b 735 0 749 401 749 201 l 1019 0 b 1019 975 992 325 992 790 l 740 975 b 554 306 740 757 667 540 b 371 975 450 529 382 764 l 74 975 b 46 0 101 650 103 254 z "},"N":{"ha":939,"x_min":null,"x_max":null,"o":"m 254 0 b 107 844 149 176 93 543 b 575 0 297 564 425 281 l 883 0 b 897 975 856 325 842 725 l 675 975 b 821 99 751 754 836 429 b 339 975 626 408 431 776 l 46 975 b 32 0 74 650 88 325 z "},"Ń":{"ha":939,"x_min":null,"x_max":null,"o":"m 421 1051 l 721 1269 l 447 1269 l 379 1051 z m 254 0 b 107 844 149 176 93 543 b 575 0 297 564 425 281 l 883 0 b 897 975 856 325 842 725 l 675 975 b 821 99 751 754 836 429 b 339 975 626 408 431 776 l 46 975 b 32 0 74 650 88 325 z "},"Ň":{"ha":939,"x_min":null,"x_max":null,"o":"m 565 1036 l 672 1261 l 639 1261 l 465 1121 l 299 1261 l 265 1261 l 361 1036 z m 254 0 b 107 844 149 176 93 543 b 575 0 297 564 425 281 l 883 0 b 897 975 856 325 842 725 l 675 975 b 821 99 751 754 836 429 b 339 975 626 408 431 776 l 46 975 b 32 0 74 650 88 325 z "},"Ņ":{"ha":939,"x_min":null,"x_max":null,"o":"m 254 0 b 107 844 149 176 93 543 b 575 0 297 564 425 281 l 883 0 b 897 975 856 325 842 725 l 675 975 b 821 99 751 754 836 429 b 339 975 626 408 431 776 l 46 975 b 32 0 74 650 88 325 z m 296 -362 b 464 -318 364 -362 421 -349 b 578 -90 521 -276 578 -204 l 382 -90 b 396 -206 390 -129 396 -169 b 296 -349 396 -285 371 -350 z "},"Ŋ":{"ha":939,"x_min":null,"x_max":null,"o":"m 453 -357 b 886 -62 674 -357 886 -351 b 883 0 886 -43 885 -22 b 860 515 869 163 860 344 b 897 975 860 688 869 850 l 675 975 b 822 178 746 772 822 481 b 821 99 822 151 822 125 b 339 975 626 408 431 776 l 46 975 b 71 488 60 813 71 650 b 32 0 71 325 60 163 l 254 0 b 104 751 160 158 104 471 b 107 844 104 782 106 814 b 575 0 297 564 425 281 l 821 0 b 646 -219 821 -161 743 -219 b 453 -162 585 -219 515 -196 z "},"Ñ":{"ha":939,"x_min":null,"x_max":null,"o":"m 276 1046 b 326 1082 313 1046 326 1064 b 304 1108 326 1096 317 1108 b 293 1099 296 1108 293 1103 b 308 1089 293 1093 296 1089 b 321 1082 317 1089 321 1085 b 297 1069 321 1075 311 1069 b 243 1135 263 1069 243 1104 b 278 1176 243 1157 254 1176 b 568 1053 340 1176 460 1053 b 697 1206 653 1053 697 1136 b 625 1300 697 1257 674 1300 b 575 1264 588 1300 575 1281 b 597 1238 575 1250 585 1238 b 608 1247 604 1238 608 1243 b 593 1257 608 1253 604 1257 b 581 1264 585 1257 581 1261 b 604 1276 581 1271 590 1276 b 661 1217 642 1276 661 1244 b 625 1175 661 1194 649 1175 b 340 1300 564 1175 433 1300 b 204 1133 246 1300 204 1210 b 276 1046 204 1085 228 1046 z m 254 0 b 107 844 149 176 93 543 b 575 0 297 564 425 281 l 883 0 b 897 975 856 325 842 725 l 675 975 b 821 99 751 754 836 429 b 339 975 626 408 431 776 l 46 975 b 32 0 74 650 88 325 z "},"O":{"ha":1117,"x_min":null,"x_max":null,"o":"m 558 -21 b 1071 490 814 -21 1071 149 b 560 1004 1071 833 814 1004 b 46 489 301 1004 46 832 b 558 -21 46 149 301 -21 z m 618 21 b 307 596 417 21 307 331 b 496 963 307 792 367 963 b 806 378 693 963 806 644 b 618 21 806 186 746 21 z "},"Ó":{"ha":1117,"x_min":null,"x_max":null,"o":"m 510 1051 l 810 1269 l 536 1269 l 468 1051 z m 558 -21 b 1071 490 814 -21 1071 149 b 560 1004 1071 833 814 1004 b 46 489 301 1004 46 832 b 558 -21 46 149 301 -21 z m 618 21 b 307 596 417 21 307 331 b 496 963 307 792 367 963 b 806 378 693 963 806 644 b 618 21 806 186 746 21 z "},"Ô":{"ha":1117,"x_min":null,"x_max":null,"o":"m 388 1069 l 554 1210 l 728 1069 l 761 1069 l 654 1294 l 450 1294 l 354 1069 z m 558 -21 b 1071 490 814 -21 1071 149 b 560 1004 1071 833 814 1004 b 46 489 301 1004 46 832 b 558 -21 46 149 301 -21 z m 618 21 b 307 596 417 21 307 331 b 496 963 307 792 367 963 b 806 378 693 963 806 644 b 618 21 806 186 746 21 z "},"Ö":{"ha":1117,"x_min":null,"x_max":null,"o":"m 431 1056 b 536 1154 482 1056 536 1089 b 431 1254 536 1221 482 1254 b 326 1154 378 1254 326 1221 b 431 1056 326 1089 378 1056 z m 689 1056 b 792 1154 739 1056 792 1089 b 689 1254 792 1221 739 1254 b 582 1154 635 1254 582 1221 b 689 1056 582 1089 635 1056 z m 558 -21 b 1071 490 814 -21 1071 149 b 560 1004 1071 833 814 1004 b 46 489 301 1004 46 832 b 558 -21 46 149 301 -21 z m 618 21 b 307 596 417 21 307 331 b 496 963 307 792 367 963 b 806 378 693 963 806 644 b 618 21 806 186 746 21 z "},"Ò":{"ha":1117,"x_min":null,"x_max":null,"o":"m 644 1051 l 576 1269 l 303 1269 l 601 1051 z m 558 -21 b 1071 490 814 -21 1071 149 b 560 1004 1071 833 814 1004 b 46 489 301 1004 46 832 b 558 -21 46 149 301 -21 z m 618 21 b 307 596 417 21 307 331 b 496 963 307 792 367 963 b 806 378 693 963 806 644 b 618 21 806 186 746 21 z "},"Ő":{"ha":1117,"x_min":null,"x_max":null,"o":"m 306 1051 l 578 1269 l 304 1269 l 264 1051 z m 581 1051 l 881 1269 l 607 1269 l 539 1051 z m 558 -21 b 1071 490 814 -21 1071 149 b 560 1004 1071 833 814 1004 b 46 489 301 1004 46 832 b 558 -21 46 149 301 -21 z m 618 21 b 307 596 417 21 307 331 b 496 963 307 792 367 963 b 806 378 693 963 806 644 b 618 21 806 186 746 21 z "},"Ō":{"ha":1117,"x_min":null,"x_max":null,"o":"m 776 1079 l 776 1131 l 342 1131 l 342 1079 z m 558 -21 b 1071 490 814 -21 1071 149 b 560 1004 1071 833 814 1004 b 46 489 301 1004 46 832 b 558 -21 46 149 301 -21 z m 618 21 b 307 596 417 21 307 331 b 496 963 307 792 367 963 b 806 378 693 963 806 644 b 618 21 806 186 746 21 z "},"Ø":{"ha":1117,"x_min":null,"x_max":null,"o":"m 960 975 l 911 975 l 863 914 b 560 1004 774 974 667 1004 b 46 489 301 1004 46 832 b 217 97 46 313 114 182 l 139 0 l 186 0 l 246 75 b 558 -21 336 11 447 -21 b 1071 490 814 -21 1071 149 b 893 890 1071 672 999 806 z m 307 596 b 496 963 307 792 367 963 b 733 750 600 963 681 874 l 358 278 b 307 596 325 375 307 489 z m 618 21 b 375 238 508 21 426 111 l 750 710 b 806 378 786 608 806 489 b 618 21 806 186 746 21 z "},"Õ":{"ha":1117,"x_min":null,"x_max":null,"o":"m 365 1046 b 415 1082 401 1046 415 1064 b 393 1108 415 1096 406 1108 b 382 1099 385 1108 382 1103 b 397 1089 382 1093 385 1089 b 410 1082 406 1089 410 1085 b 386 1069 410 1075 400 1069 b 332 1135 351 1069 332 1104 b 367 1176 332 1157 343 1176 b 657 1053 429 1176 549 1053 b 786 1206 742 1053 786 1136 b 714 1300 786 1257 763 1300 b 664 1264 676 1300 664 1281 b 686 1238 664 1250 674 1238 b 697 1247 693 1238 697 1243 b 682 1257 697 1253 693 1257 b 669 1264 674 1257 669 1261 b 693 1276 669 1271 679 1276 b 750 1217 731 1276 750 1244 b 714 1175 750 1194 738 1175 b 429 1300 653 1175 522 1300 b 293 1133 335 1300 293 1210 b 365 1046 293 1085 317 1046 z m 558 -21 b 1071 490 814 -21 1071 149 b 560 1004 1071 833 814 1004 b 46 489 301 1004 46 832 b 558 -21 46 149 301 -21 z m 618 21 b 307 596 417 21 307 331 b 496 963 307 792 367 963 b 806 378 693 963 806 644 b 618 21 806 186 746 21 z "},"Œ":{"ha":1633,"x_min":null,"x_max":null,"o":"m 558 -21 b 897 60 660 -21 801 60 b 1332 -21 1065 60 1121 -21 b 1606 171 1522 -21 1606 78 b 1414 339 1606 257 1536 339 b 1244 207 1326 339 1244 293 b 1307 133 1244 168 1272 133 b 1338 161 1328 133 1338 147 b 1296 189 1338 175 1328 189 b 1258 208 1271 189 1258 199 b 1307 232 1258 219 1274 232 b 1407 138 1376 232 1407 186 b 1253 25 1407 47 1332 25 b 1128 38 1208 25 1163 32 b 1107 488 1114 186 1107 339 l 1149 488 b 1428 404 1240 488 1358 471 l 1428 613 b 1149 529 1358 546 1240 529 l 1107 529 b 1108 942 1108 651 1108 849 b 1224 958 1149 953 1188 958 b 1383 829 1315 958 1383 921 b 1290 739 1383 782 1353 739 b 1242 763 1257 739 1242 751 b 1279 782 1242 772 1254 782 b 1321 810 1311 782 1321 796 b 1290 838 1321 824 1311 838 b 1228 764 1256 838 1228 803 b 1367 661 1228 715 1264 661 b 1560 833 1499 661 1560 747 b 1307 1004 1560 919 1510 1004 b 906 924 1068 1004 992 924 b 560 1004 804 924 746 1004 b 46 489 301 1004 46 832 b 558 -21 46 149 301 -21 z m 618 21 b 307 596 417 21 307 331 b 496 963 307 792 367 963 b 806 378 693 963 806 644 b 618 21 806 186 746 21 z "},"P":{"ha":874,"x_min":null,"x_max":null,"o":"m 331 0 b 311 349 321 117 314 232 b 497 293 357 314 425 293 b 846 657 661 293 846 396 b 519 1004 846 838 738 1004 b 46 975 376 1004 264 975 b 67 488 60 813 67 650 b 46 0 67 325 60 163 z m 404 350 b 311 496 356 350 313 388 b 331 947 310 619 317 788 b 385 953 350 951 368 953 b 561 657 522 953 561 825 b 404 350 561 431 475 350 z "},"Þ":{"ha":810,"x_min":null,"x_max":null,"o":"m 331 0 b 318 190 325 64 321 126 l 521 190 b 782 478 690 190 782 335 b 508 754 782 617 696 754 l 315 754 b 331 975 319 828 324 901 l 46 975 b 46 0 74 650 74 325 z m 315 232 b 314 713 308 392 308 553 l 357 713 b 497 472 464 713 497 613 b 360 232 497 336 463 232 z "},"Q":{"ha":1117,"x_min":null,"x_max":null,"o":"m 803 -358 b 1029 -181 918 -358 1029 -294 b 842 -31 1029 -83 931 -31 b 703 -133 739 -31 703 -85 b 765 -207 703 -172 731 -207 b 796 -179 786 -207 796 -193 b 754 -151 796 -165 786 -151 b 717 -132 729 -151 717 -142 b 765 -108 717 -121 732 -108 b 854 -208 822 -108 854 -160 b 771 -299 854 -254 826 -299 b 610 -19 689 -299 610 -201 b 1071 490 901 0 1071 183 b 560 1004 1071 833 814 1004 b 46 489 301 1004 46 832 b 558 -21 46 149 301 -21 b 803 -358 558 -256 656 -358 z m 618 21 b 307 596 417 21 307 331 b 496 963 307 792 367 963 b 806 378 693 963 806 644 b 618 21 806 213 758 21 z "},"R":{"ha":865,"x_min":null,"x_max":null,"o":"m 331 0 b 310 471 317 146 310 308 b 331 943 310 639 317 793 b 404 951 357 949 382 951 b 572 779 508 951 572 893 b 433 579 572 644 503 579 b 385 611 401 579 385 594 b 442 647 385 628 404 647 b 468 682 458 647 468 664 b 422 721 468 700 456 721 b 353 636 394 721 353 697 b 485 393 353 556 428 525 b 549 0 521 313 549 193 l 838 0 b 478 538 838 389 700 488 l 478 544 b 810 778 692 544 810 661 b 503 1004 810 892 697 1004 b 46 975 381 1004 218 975 b 79 506 69 858 79 669 b 46 0 79 325 67 139 z "},"Ŕ":{"ha":865,"x_min":null,"x_max":null,"o":"m 406 1051 l 706 1269 l 432 1269 l 364 1051 z m 331 0 b 310 471 317 146 310 308 b 331 943 310 639 317 793 b 404 951 357 949 382 951 b 572 779 508 951 572 893 b 433 579 572 644 503 579 b 385 611 401 579 385 594 b 442 647 385 628 404 647 b 468 682 458 647 468 664 b 422 721 468 700 456 721 b 353 636 394 721 353 697 b 485 393 353 556 428 525 b 549 0 521 313 549 193 l 838 0 b 478 538 838 389 700 488 l 478 544 b 810 778 692 544 810 661 b 503 1004 810 892 697 1004 b 46 975 381 1004 218 975 b 79 506 69 858 79 669 b 46 0 79 325 67 139 z "},"Ř":{"ha":865,"x_min":null,"x_max":null,"o":"m 550 1036 l 657 1261 l 624 1261 l 450 1121 l 283 1261 l 250 1261 l 346 1036 z m 331 0 b 310 471 317 146 310 308 b 331 943 310 639 317 793 b 404 951 357 949 382 951 b 572 779 508 951 572 893 b 433 579 572 644 503 579 b 385 611 401 579 385 594 b 442 647 385 628 404 647 b 468 682 458 647 468 664 b 422 721 468 700 456 721 b 353 636 394 721 353 697 b 485 393 353 556 428 525 b 549 0 521 313 549 193 l 838 0 b 478 538 838 389 700 488 l 478 544 b 810 778 692 544 810 661 b 503 1004 810 892 697 1004 b 46 975 381 1004 218 975 b 79 506 69 858 79 669 b 46 0 79 325 67 139 z "},"Ŗ":{"ha":865,"x_min":null,"x_max":null,"o":"m 331 0 b 310 471 317 146 310 308 b 331 943 310 639 317 793 b 404 951 357 949 382 951 b 572 779 508 951 572 893 b 433 579 572 644 503 579 b 385 611 401 579 385 594 b 442 647 385 628 404 647 b 468 682 458 647 468 664 b 422 721 468 700 456 721 b 353 636 394 721 353 697 b 485 393 353 556 428 525 b 549 0 521 313 549 193 l 838 0 b 478 538 838 389 700 488 l 478 544 b 810 778 692 544 810 661 b 503 1004 810 892 697 1004 b 46 975 381 1004 218 975 b 79 506 69 858 79 669 b 46 0 79 325 67 139 z m 281 -362 b 449 -318 349 -362 406 -349 b 563 -90 506 -276 563 -204 l 367 -90 b 381 -206 375 -129 381 -169 b 281 -349 381 -285 356 -350 z "},"S":{"ha":819,"x_min":null,"x_max":null,"o":"m 371 -21 b 792 267 574 -21 792 76 b 283 839 792 532 283 675 b 438 972 283 932 374 972 b 579 836 507 972 579 926 b 508 743 579 769 542 743 b 460 783 482 743 460 760 b 490 808 460 797 469 808 b 526 840 515 808 526 825 b 492 872 526 857 515 872 b 428 794 451 872 428 836 b 586 668 428 736 474 668 b 783 818 685 668 783 721 b 481 1004 783 942 639 1004 b 58 721 293 1004 58 932 b 550 176 58 528 550 350 b 417 15 550 89 486 15 b 232 203 329 15 232 79 b 307 293 232 269 272 293 b 350 264 331 293 350 282 b 317 244 350 254 342 244 b 275 217 285 244 275 231 b 306 189 275 203 285 189 b 368 263 340 189 368 224 b 217 386 368 343 296 386 b 26 208 99 386 26 300 b 371 -21 26 99 128 -21 z "},"Ś":{"ha":819,"x_min":null,"x_max":null,"o":"m 388 1051 l 688 1269 l 414 1269 l 346 1051 z m 371 -21 b 792 267 574 -21 792 76 b 283 839 792 532 283 675 b 438 972 283 932 374 972 b 579 836 507 972 579 926 b 508 743 579 769 542 743 b 460 783 482 743 460 760 b 490 808 460 797 469 808 b 526 840 515 808 526 825 b 492 872 526 857 515 872 b 428 794 451 872 428 836 b 586 668 428 736 474 668 b 783 818 685 668 783 721 b 481 1004 783 942 639 1004 b 58 721 293 1004 58 932 b 550 176 58 528 550 350 b 417 15 550 89 486 15 b 232 203 329 15 232 79 b 307 293 232 269 272 293 b 350 264 331 293 350 282 b 317 244 350 254 342 244 b 275 217 285 244 275 231 b 306 189 275 203 285 189 b 368 263 340 189 368 224 b 217 386 368 343 296 386 b 26 208 99 386 26 300 b 371 -21 26 99 128 -21 z "},"Š":{"ha":819,"x_min":null,"x_max":null,"o":"m 532 1036 l 639 1261 l 606 1261 l 432 1121 l 265 1261 l 232 1261 l 328 1036 z m 371 -21 b 792 267 574 -21 792 76 b 283 839 792 532 283 675 b 438 972 283 932 374 972 b 579 836 507 972 579 926 b 508 743 579 769 542 743 b 460 783 482 743 460 760 b 490 808 460 797 469 808 b 526 840 515 808 526 825 b 492 872 526 857 515 872 b 428 794 451 872 428 836 b 586 668 428 736 474 668 b 783 818 685 668 783 721 b 481 1004 783 942 639 1004 b 58 721 293 1004 58 932 b 550 176 58 528 550 350 b 417 15 550 89 486 15 b 232 203 329 15 232 79 b 307 293 232 269 272 293 b 350 264 331 293 350 282 b 317 244 350 254 342 244 b 275 217 285 244 275 231 b 306 189 275 203 285 189 b 368 263 340 189 368 224 b 217 386 368 343 296 386 b 26 208 99 386 26 300 b 371 -21 26 99 128 -21 z "},"Ş":{"ha":819,"x_min":null,"x_max":null,"o":"m 792 267 b 283 839 792 532 283 675 b 438 972 283 932 374 972 b 579 836 507 972 579 926 b 508 743 579 769 542 743 b 460 783 482 743 460 760 b 490 808 460 797 469 808 b 526 840 515 808 526 825 b 492 872 526 857 515 872 b 428 794 451 872 428 836 b 586 668 428 736 474 668 b 783 818 685 668 783 721 b 481 1004 783 942 639 1004 b 58 721 293 1004 58 932 b 550 176 58 528 550 350 b 417 15 550 89 486 15 b 232 203 329 15 232 79 b 307 293 232 269 272 293 b 350 264 331 293 350 282 b 317 244 350 254 342 244 b 275 217 285 244 275 231 b 306 189 275 203 285 189 b 368 263 340 189 368 224 b 217 386 368 343 296 386 b 26 208 99 386 26 300 b 371 -21 26 99 128 -21 l 394 -21 l 367 -97 b 397 -93 378 -94 388 -93 b 479 -199 443 -93 479 -139 b 411 -321 479 -286 443 -321 b 363 -262 386 -321 363 -299 b 397 -224 363 -243 375 -224 b 418 -233 411 -224 418 -228 b 403 -240 418 -237 413 -240 b 385 -253 389 -240 385 -247 b 397 -264 385 -258 389 -264 b 424 -233 413 -264 424 -250 b 367 -190 424 -212 408 -190 b 299 -258 324 -190 299 -222 b 424 -347 299 -300 336 -347 b 614 -199 513 -347 614 -303 b 464 -60 614 -119 563 -60 b 414 -64 449 -60 432 -61 l 429 -18 b 792 267 614 -1 792 94 z "},"Ș":{"ha":819,"x_min":null,"x_max":null,"o":"m 371 -21 b 792 267 574 -21 792 76 b 283 839 792 532 283 675 b 438 972 283 932 374 972 b 579 836 507 972 579 926 b 508 743 579 769 542 743 b 460 783 482 743 460 760 b 490 808 460 797 469 808 b 526 840 515 808 526 825 b 492 872 526 857 515 872 b 428 794 451 872 428 836 b 586 668 428 736 474 668 b 783 818 685 668 783 721 b 481 1004 783 942 639 1004 b 58 721 293 1004 58 932 b 550 176 58 528 550 350 b 417 15 550 89 486 15 b 232 203 329 15 232 79 b 307 293 232 269 272 293 b 350 264 331 293 350 282 b 317 244 350 254 342 244 b 275 217 285 244 275 231 b 306 189 275 203 285 189 b 368 263 340 189 368 224 b 217 386 368 343 296 386 b 26 208 99 386 26 300 b 371 -21 26 99 128 -21 z m 263 -362 b 431 -318 331 -362 388 -349 b 544 -90 488 -276 544 -204 l 349 -90 b 363 -206 357 -129 363 -169 b 263 -349 363 -285 338 -350 z "},"ẞ":{"ha":1022,"x_min":null,"x_max":null,"o":"m 654 -18 b 994 338 835 -18 994 117 b 654 654 994 494 835 619 l 858 825 b 486 1004 733 975 611 1004 b 42 586 114 1004 42 814 b 54 0 42 385 97 154 l 339 0 b 294 429 308 144 294 293 b 463 957 294 724 360 957 b 678 726 550 957 644 865 l 469 547 b 733 208 576 517 733 389 b 644 39 733 92 697 39 b 463 169 593 39 526 86 l 421 63 b 654 -18 494 8 576 -18 z "},"T":{"ha":979,"x_min":null,"x_max":null,"o":"m 632 -1 b 593 660 613 218 593 439 b 604 933 593 751 596 842 l 681 933 b 789 817 739 933 789 900 b 701 718 789 767 757 718 b 653 742 668 718 653 731 b 690 761 653 751 665 761 b 732 789 722 761 732 775 b 701 817 732 803 722 817 b 639 743 667 817 639 782 b 788 621 639 663 711 621 b 965 790 874 621 965 675 b 736 975 965 879 897 975 l 235 975 b 6 790 74 975 6 879 b 183 621 6 675 97 621 b 332 743 260 621 332 663 b 269 817 332 782 304 817 b 239 789 249 817 239 803 b 281 761 239 775 249 761 b 318 742 306 761 318 751 b 269 718 318 731 303 718 b 182 817 214 718 182 767 b 290 933 182 900 232 933 l 375 933 b 386 660 383 842 386 751 b 347 -1 386 439 367 218 z "},"Ŧ":{"ha":979,"x_min":null,"x_max":null,"o":"m 235 975 b 6 790 74 975 6 879 b 183 621 6 675 97 621 b 332 743 260 621 332 663 b 269 817 332 782 304 817 b 239 789 249 817 239 803 b 281 761 239 775 249 761 b 318 742 306 761 318 751 b 269 718 318 731 303 718 b 182 817 214 718 182 767 b 290 933 182 900 232 933 l 375 933 b 386 660 383 842 386 751 b 383 508 386 610 385 558 l 267 508 l 267 467 l 382 467 b 347 -1 375 310 361 154 l 632 -1 b 597 467 618 154 604 310 l 713 467 l 713 508 l 596 508 b 593 660 594 558 593 610 b 604 933 593 751 596 842 l 681 933 b 789 817 739 933 789 900 b 701 718 789 767 757 718 b 653 742 668 718 653 731 b 690 761 653 751 665 761 b 732 789 722 761 732 775 b 701 817 732 803 722 817 b 639 743 667 817 639 782 b 788 621 639 663 711 621 b 965 790 874 621 965 675 b 736 975 965 879 897 975 z "},"Ť":{"ha":979,"x_min":null,"x_max":null,"o":"m 586 1036 l 693 1261 l 660 1261 l 486 1121 l 319 1261 l 286 1261 l 382 1036 z m 632 -1 b 593 660 613 218 593 439 b 604 933 593 751 596 842 l 681 933 b 789 817 739 933 789 900 b 701 718 789 767 757 718 b 653 742 668 718 653 731 b 690 761 653 751 665 761 b 732 789 722 761 732 775 b 701 817 732 803 722 817 b 639 743 667 817 639 782 b 788 621 639 663 711 621 b 965 790 874 621 965 675 b 736 975 965 879 897 975 l 235 975 b 6 790 74 975 6 879 b 183 621 6 675 97 621 b 332 743 260 621 332 663 b 269 817 332 782 304 817 b 239 789 249 817 239 803 b 281 761 239 775 249 761 b 318 742 306 761 318 751 b 269 718 318 731 303 718 b 182 817 214 718 182 767 b 290 933 182 900 232 933 l 375 933 b 386 660 383 842 386 751 b 347 -1 386 439 367 218 z "},"Ţ":{"ha":979,"x_min":null,"x_max":null,"o":"m 235 975 b 6 790 74 975 6 879 b 183 621 6 675 97 621 b 332 743 260 621 332 663 b 269 817 332 782 304 817 b 239 789 249 817 239 803 b 281 761 239 775 249 761 b 318 742 306 761 318 751 b 269 718 318 731 303 718 b 182 817 214 718 182 767 b 290 933 182 900 232 933 l 375 933 b 386 660 383 842 386 751 b 347 -1 386 439 367 218 l 456 -1 l 421 -97 b 451 -93 432 -94 442 -93 b 533 -199 497 -93 533 -139 b 465 -321 533 -286 497 -321 b 417 -262 440 -321 417 -299 b 451 -224 417 -243 429 -224 b 472 -233 465 -224 472 -228 b 457 -240 472 -237 467 -240 b 439 -253 443 -240 439 -247 b 451 -264 439 -258 443 -264 b 478 -233 467 -264 478 -250 b 421 -190 478 -212 463 -190 b 353 -258 378 -190 353 -222 b 478 -347 353 -300 390 -347 b 668 -199 567 -347 668 -303 b 518 -60 668 -119 617 -60 b 468 -64 503 -60 486 -61 l 490 -1 l 632 -1 b 593 660 613 218 593 439 b 604 933 593 751 596 842 l 681 933 b 789 817 739 933 789 900 b 701 718 789 767 757 718 b 653 742 668 718 653 731 b 690 761 653 751 665 761 b 732 789 722 761 732 775 b 701 817 732 803 722 817 b 639 743 667 817 639 782 b 788 621 639 663 711 621 b 965 790 874 621 965 675 b 736 975 965 879 897 975 z "},"Ț":{"ha":979,"x_min":null,"x_max":null,"o":"m 632 -1 b 593 660 613 218 593 439 b 604 933 593 751 596 842 l 681 933 b 789 817 739 933 789 900 b 701 718 789 767 757 718 b 653 742 668 718 653 731 b 690 761 653 751 665 761 b 732 789 722 761 732 775 b 701 817 732 803 722 817 b 639 743 667 817 639 782 b 788 621 639 663 711 621 b 965 790 874 621 965 675 b 736 975 965 879 897 975 l 235 975 b 6 790 74 975 6 879 b 183 621 6 675 97 621 b 332 743 260 621 332 663 b 269 817 332 782 304 817 b 239 789 249 817 239 803 b 281 761 239 775 249 761 b 318 742 306 761 318 751 b 269 718 318 731 303 718 b 182 817 214 718 182 767 b 290 933 182 900 232 933 l 375 933 b 386 660 383 842 386 751 b 347 -1 386 439 367 218 z m 317 -362 b 485 -318 385 -362 442 -349 b 599 -90 542 -276 599 -204 l 403 -90 b 417 -206 411 -129 417 -169 b 317 -349 417 -285 392 -350 z "},"U":{"ha":971,"x_min":null,"x_max":null,"o":"m 486 -21 b 926 374 706 -21 926 82 b 914 775 926 507 914 640 b 926 975 914 842 917 908 l 642 975 b 668 488 656 808 668 639 b 486 11 668 217 628 11 b 304 490 344 11 304 218 b 331 975 304 640 317 810 l 46 975 b 58 775 56 908 58 842 b 46 374 58 640 46 507 b 486 -21 46 82 265 -21 z "},"Ú":{"ha":971,"x_min":null,"x_max":null,"o":"m 465 1051 l 765 1269 l 492 1269 l 424 1051 z m 486 -21 b 926 374 706 -21 926 82 b 914 775 926 507 914 640 b 926 975 914 842 917 908 l 642 975 b 668 488 656 808 668 639 b 486 11 668 217 628 11 b 304 490 344 11 304 218 b 331 975 304 640 317 810 l 46 975 b 58 775 56 908 58 842 b 46 374 58 640 46 507 b 486 -21 46 82 265 -21 z "},"Û":{"ha":971,"x_min":null,"x_max":null,"o":"m 343 1069 l 510 1210 l 683 1069 l 717 1069 l 610 1294 l 406 1294 l 310 1069 z m 486 -21 b 926 374 706 -21 926 82 b 914 775 926 507 914 640 b 926 975 914 842 917 908 l 642 975 b 668 488 656 808 668 639 b 486 11 668 217 628 11 b 304 490 344 11 304 218 b 331 975 304 640 317 810 l 46 975 b 58 775 56 908 58 842 b 46 374 58 640 46 507 b 486 -21 46 82 265 -21 z "},"Ü":{"ha":971,"x_min":null,"x_max":null,"o":"m 386 1056 b 492 1154 438 1056 492 1089 b 386 1254 492 1221 438 1254 b 282 1154 333 1254 282 1221 b 386 1056 282 1089 333 1056 z m 644 1056 b 747 1154 694 1056 747 1089 b 644 1254 747 1221 694 1254 b 538 1154 590 1254 538 1221 b 644 1056 538 1089 590 1056 z m 486 -21 b 926 374 706 -21 926 82 b 914 775 926 507 914 640 b 926 975 914 842 917 908 l 642 975 b 668 488 656 808 668 639 b 486 11 668 217 628 11 b 304 490 344 11 304 218 b 331 975 304 640 317 810 l 46 975 b 58 775 56 908 58 842 b 46 374 58 640 46 507 b 486 -21 46 82 265 -21 z "},"Ù":{"ha":971,"x_min":null,"x_max":null,"o":"m 600 1051 l 532 1269 l 258 1269 l 557 1051 z m 486 -21 b 926 374 706 -21 926 82 b 914 775 926 507 914 640 b 926 975 914 842 917 908 l 642 975 b 668 488 656 808 668 639 b 486 11 668 217 628 11 b 304 490 344 11 304 218 b 331 975 304 640 317 810 l 46 975 b 58 775 56 908 58 842 b 46 374 58 640 46 507 b 486 -21 46 82 265 -21 z "},"Ű":{"ha":971,"x_min":null,"x_max":null,"o":"m 261 1051 l 533 1269 l 260 1269 l 219 1051 z m 536 1051 l 836 1269 l 563 1269 l 494 1051 z m 486 -21 b 926 374 706 -21 926 82 b 914 775 926 507 914 640 b 926 975 914 842 917 908 l 642 975 b 668 488 656 808 668 639 b 486 11 668 217 628 11 b 304 490 344 11 304 218 b 331 975 304 640 317 810 l 46 975 b 58 775 56 908 58 842 b 46 374 58 640 46 507 b 486 -21 46 82 265 -21 z "},"Ū":{"ha":971,"x_min":null,"x_max":null,"o":"m 732 1079 l 732 1131 l 297 1131 l 297 1079 z m 486 -21 b 926 374 706 -21 926 82 b 914 775 926 507 914 640 b 926 975 914 842 917 908 l 642 975 b 668 488 656 808 668 639 b 486 11 668 217 628 11 b 304 490 344 11 304 218 b 331 975 304 640 317 810 l 46 975 b 58 775 56 908 58 842 b 46 374 58 640 46 507 b 486 -21 46 82 265 -21 z "},"Ų":{"ha":971,"x_min":null,"x_max":null,"o":"m 642 975 b 668 488 656 808 668 639 b 486 11 668 217 628 11 b 304 490 344 11 304 218 b 331 975 304 640 317 810 l 46 975 b 58 775 56 908 58 842 b 46 374 58 640 46 507 b 486 -21 46 82 265 -21 b 518 -19 497 -21 508 -21 b 400 -183 442 -57 400 -125 b 540 -297 400 -244 444 -297 b 660 -203 601 -297 660 -262 b 606 -139 660 -168 635 -139 b 578 -162 586 -139 578 -150 b 614 -186 578 -175 586 -186 b 647 -204 636 -186 647 -196 b 606 -224 647 -214 633 -224 b 525 -132 553 -224 525 -181 b 596 -11 525 -87 549 -39 b 926 374 774 19 926 131 b 914 775 926 507 914 640 b 926 975 914 842 917 908 z "},"Ů":{"ha":971,"x_min":null,"x_max":null,"o":"m 514 992 b 606 1101 568 992 606 1042 b 514 1211 606 1161 568 1211 b 422 1101 461 1211 422 1161 b 514 992 422 1042 461 992 z m 514 1050 b 469 1100 488 1050 469 1075 b 514 1153 469 1128 488 1153 b 557 1100 542 1153 557 1128 b 514 1050 557 1075 542 1050 z m 486 -21 b 926 374 706 -21 926 82 b 914 775 926 507 914 640 b 926 975 914 842 917 908 l 642 975 b 668 488 656 808 668 639 b 486 11 668 217 628 11 b 304 490 344 11 304 218 b 331 975 304 640 317 810 l 46 975 b 58 775 56 908 58 842 b 46 374 58 640 46 507 b 486 -21 46 82 265 -21 z "},"V":{"ha":949,"x_min":null,"x_max":null,"o":"m 653 0 b 938 975 671 288 793 632 l 771 975 b 582 106 771 738 700 460 b 315 975 451 415 315 785 l 11 975 b 333 0 146 733 303 264 z "},"W":{"ha":1338,"x_min":null,"x_max":null,"o":"m 514 0 b 635 556 539 224 558 349 b 793 0 700 376 793 176 l 1139 0 b 1106 157 1115 36 1106 90 b 1314 975 1106 368 1210 701 l 1047 975 b 1094 649 1081 857 1094 750 b 1019 199 1094 497 1064 356 b 839 975 918 486 839 725 l 613 975 b 625 857 621 936 625 897 b 474 199 625 638 510 401 b 353 853 407 394 353 653 b 361 975 353 897 356 938 l 22 975 b 239 143 110 832 239 392 b 213 0 239 81 232 31 z "},"Ẃ":{"ha":1338,"x_min":null,"x_max":null,"o":"m 619 1051 l 919 1269 l 646 1269 l 578 1051 z m 514 0 b 635 556 539 224 558 349 b 793 0 700 376 793 176 l 1139 0 b 1106 157 1115 36 1106 90 b 1314 975 1106 368 1210 701 l 1047 975 b 1094 649 1081 857 1094 750 b 1019 199 1094 497 1064 356 b 839 975 918 486 839 725 l 613 975 b 625 857 621 936 625 897 b 474 199 625 638 510 401 b 353 853 407 394 353 653 b 361 975 353 897 356 938 l 22 975 b 239 143 110 832 239 392 b 213 0 239 81 232 31 z "},"Ŵ":{"ha":1338,"x_min":null,"x_max":null,"o":"m 497 1069 l 664 1210 l 838 1069 l 871 1069 l 764 1294 l 560 1294 l 464 1069 z m 514 0 b 635 556 539 224 558 349 b 793 0 700 376 793 176 l 1139 0 b 1106 157 1115 36 1106 90 b 1314 975 1106 368 1210 701 l 1047 975 b 1094 649 1081 857 1094 750 b 1019 199 1094 497 1064 356 b 839 975 918 486 839 725 l 613 975 b 625 857 621 936 625 897 b 474 199 625 638 510 401 b 353 853 407 394 353 653 b 361 975 353 897 356 938 l 22 975 b 239 143 110 832 239 392 b 213 0 239 81 232 31 z "},"Ẅ":{"ha":1338,"x_min":null,"x_max":null,"o":"m 540 1056 b 646 1154 592 1056 646 1089 b 540 1254 646 1221 592 1254 b 436 1154 488 1254 436 1221 b 540 1056 436 1089 488 1056 z m 799 1056 b 901 1154 849 1056 901 1089 b 799 1254 901 1221 849 1254 b 692 1154 744 1254 692 1221 b 799 1056 692 1089 744 1056 z m 514 0 b 635 556 539 224 558 349 b 793 0 700 376 793 176 l 1139 0 b 1106 157 1115 36 1106 90 b 1314 975 1106 368 1210 701 l 1047 975 b 1094 649 1081 857 1094 750 b 1019 199 1094 497 1064 356 b 839 975 918 486 839 725 l 613 975 b 625 857 621 936 625 897 b 474 199 625 638 510 401 b 353 853 407 394 353 653 b 361 975 353 897 356 938 l 22 975 b 239 143 110 832 239 392 b 213 0 239 81 232 31 z "},"Ẁ":{"ha":1338,"x_min":null,"x_max":null,"o":"m 754 1051 l 686 1269 l 413 1269 l 711 1051 z m 514 0 b 635 556 539 224 558 349 b 793 0 700 376 793 176 l 1139 0 b 1106 157 1115 36 1106 90 b 1314 975 1106 368 1210 701 l 1047 975 b 1094 649 1081 857 1094 750 b 1019 199 1094 497 1064 356 b 839 975 918 486 839 725 l 613 975 b 625 857 621 936 625 897 b 474 199 625 638 510 401 b 353 853 407 394 353 653 b 361 975 353 897 356 938 l 22 975 b 239 143 110 832 239 392 b 213 0 239 81 232 31 z "},"X":{"ha":936,"x_min":null,"x_max":null,"o":"m 210 0 b 410 376 222 89 300 225 b 624 0 485 251 557 125 l 908 0 b 544 551 778 183 657 368 b 925 975 664 699 800 849 l 733 975 b 518 596 726 911 636 761 b 301 975 442 722 369 849 l 6 975 b 385 418 150 789 286 603 b 11 0 246 239 99 71 z "},"Y":{"ha":968,"x_min":null,"x_max":null,"o":"m 642 0 b 615 328 610 139 615 244 b 954 975 724 593 818 760 l 804 975 b 600 413 744 725 679 576 b 306 975 468 603 382 785 l 22 975 b 390 328 167 760 301 543 b 357 0 390 232 385 114 z "},"Ý":{"ha":968,"x_min":null,"x_max":null,"o":"m 440 1051 l 740 1269 l 467 1269 l 399 1051 z m 642 0 b 615 328 610 139 615 244 b 954 975 724 593 818 760 l 804 975 b 600 413 744 725 679 576 b 306 975 468 603 382 785 l 22 975 b 390 328 167 760 301 543 b 357 0 390 232 385 114 z "},"Ŷ":{"ha":968,"x_min":null,"x_max":null,"o":"m 318 1069 l 485 1210 l 658 1069 l 692 1069 l 585 1294 l 381 1294 l 285 1069 z m 642 0 b 615 328 610 139 615 244 b 954 975 724 593 818 760 l 804 975 b 600 413 744 725 679 576 b 306 975 468 603 382 785 l 22 975 b 390 328 167 760 301 543 b 357 0 390 232 385 114 z "},"Ÿ":{"ha":968,"x_min":null,"x_max":null,"o":"m 361 1056 b 467 1154 413 1056 467 1089 b 361 1254 467 1221 413 1254 b 257 1154 308 1254 257 1221 b 361 1056 257 1089 308 1056 z m 619 1056 b 722 1154 669 1056 722 1089 b 619 1254 722 1221 669 1254 b 513 1154 565 1254 513 1221 b 619 1056 513 1089 565 1056 z m 642 0 b 615 328 610 139 615 244 b 954 975 724 593 818 760 l 804 975 b 600 413 744 725 679 576 b 306 975 468 603 382 785 l 22 975 b 390 328 167 760 301 543 b 357 0 390 232 385 114 z "},"Ỳ":{"ha":968,"x_min":null,"x_max":null,"o":"m 575 1051 l 507 1269 l 233 1269 l 532 1051 z m 642 0 b 615 328 610 139 615 244 b 954 975 724 593 818 760 l 804 975 b 600 413 744 725 679 576 b 306 975 468 603 382 785 l 22 975 b 390 328 167 760 301 543 b 357 0 390 232 385 114 z "},"Z":{"ha":910,"x_min":null,"x_max":null,"o":"m 604 -21 b 900 190 750 -21 900 44 b 732 347 900 296 815 347 b 574 208 653 347 574 300 b 636 135 574 169 601 135 b 667 163 657 135 667 149 b 625 190 667 176 657 190 b 588 210 600 190 588 200 b 636 233 588 221 603 233 b 724 132 693 233 725 183 b 533 17 721 40 642 17 b 394 25 490 17 443 21 b 888 975 475 288 672 719 b 313 1004 769 946 532 1004 b 4 788 97 1004 4 894 b 224 596 4 690 85 596 b 363 699 326 596 363 650 b 300 772 363 738 335 772 b 269 744 279 772 269 758 b 311 717 269 731 279 717 b 349 697 336 717 349 707 b 300 674 349 686 333 674 b 213 775 243 674 211 724 b 429 950 215 883 297 950 b 556 933 468 950 510 944 b 22 0 406 622 228 311 b 604 -21 117 36 392 -21 z "},"Ź":{"ha":910,"x_min":null,"x_max":null,"o":"m 460 1051 l 760 1269 l 486 1269 l 418 1051 z m 604 -21 b 900 190 750 -21 900 44 b 732 347 900 296 815 347 b 574 208 653 347 574 300 b 636 135 574 169 601 135 b 667 163 657 135 667 149 b 625 190 667 176 657 190 b 588 210 600 190 588 200 b 636 233 588 221 603 233 b 724 132 693 233 725 183 b 533 17 721 40 642 17 b 394 25 490 17 443 21 b 888 975 475 288 672 719 b 313 1004 769 946 532 1004 b 4 788 97 1004 4 894 b 224 596 4 690 85 596 b 363 699 326 596 363 650 b 300 772 363 738 335 772 b 269 744 279 772 269 758 b 311 717 269 731 279 717 b 349 697 336 717 349 707 b 300 674 349 686 333 674 b 213 775 243 674 211 724 b 429 950 215 883 297 950 b 556 933 468 950 510 944 b 22 0 406 622 228 311 b 604 -21 117 36 392 -21 z "},"Ž":{"ha":910,"x_min":null,"x_max":null,"o":"m 604 1036 l 711 1261 l 678 1261 l 504 1121 l 338 1261 l 304 1261 l 400 1036 z m 604 -21 b 900 190 750 -21 900 44 b 732 347 900 296 815 347 b 574 208 653 347 574 300 b 636 135 574 169 601 135 b 667 163 657 135 667 149 b 625 190 667 176 657 190 b 588 210 600 190 588 200 b 636 233 588 221 603 233 b 724 132 693 233 725 183 b 533 17 721 40 642 17 b 394 25 490 17 443 21 b 888 975 475 288 672 719 b 313 1004 769 946 532 1004 b 4 788 97 1004 4 894 b 224 596 4 690 85 596 b 363 699 326 596 363 650 b 300 772 363 738 335 772 b 269 744 279 772 269 758 b 311 717 269 731 279 717 b 349 697 336 717 349 707 b 300 674 349 686 333 674 b 213 775 243 674 211 724 b 429 950 215 883 297 950 b 556 933 468 950 510 944 b 22 0 406 622 228 311 b 604 -21 117 36 392 -21 z "},"Ż":{"ha":910,"x_min":null,"x_max":null,"o":"m 507 1036 b 651 1185 604 1036 651 1110 b 507 1332 651 1258 604 1332 b 365 1185 413 1332 365 1258 b 507 1036 365 1110 413 1036 z m 604 -21 b 900 190 750 -21 900 44 b 732 347 900 296 815 347 b 574 208 653 347 574 300 b 636 135 574 169 601 135 b 667 163 657 135 667 149 b 625 190 667 176 657 190 b 588 210 600 190 588 200 b 636 233 588 221 603 233 b 724 132 693 233 725 183 b 533 17 721 40 642 17 b 394 25 490 17 443 21 b 888 975 475 288 672 719 b 313 1004 769 946 532 1004 b 4 788 97 1004 4 894 b 224 596 4 690 85 596 b 363 699 326 596 363 650 b 300 772 363 738 335 772 b 269 744 279 772 269 758 b 311 717 269 731 279 717 b 349 697 336 717 349 707 b 300 674 349 686 333 674 b 213 775 243 674 211 724 b 429 950 215 883 297 950 b 556 933 468 950 510 944 b 22 0 406 622 228 311 b 604 -21 117 36 392 -21 z "},"":{"ha":1181,"x_min":null,"x_max":null,"o":"m 554 -239 b 1153 247 846 -239 1153 -83 b 888 569 1153 428 1050 557 b 1104 807 1032 599 1104 699 b 861 1004 1104 939 983 1004 b 425 836 629 1004 556 836 b 285 961 331 836 285 899 b 413 1081 285 1021 328 1081 b 503 1018 461 1081 503 1058 b 446 969 503 985 485 969 b 382 928 397 969 382 949 b 435 882 382 907 400 882 b 551 1026 503 882 551 950 b 322 1233 551 1164 438 1233 b 88 1018 206 1233 88 1163 b 324 800 88 910 163 800 b 394 807 346 800 369 803 b 375 549 394 754 388 642 b 901 149 754 549 901 360 b 622 -165 901 -64 765 -165 b 304 186 467 -165 304 -44 b 461 413 304 307 358 413 b 588 265 526 413 588 363 b 481 140 588 200 553 140 b 417 171 436 140 417 157 b 464 194 417 183 433 194 b 513 226 500 194 513 210 b 472 264 513 246 499 264 b 400 179 431 264 400 226 b 583 42 400 117 449 42 b 807 231 696 42 815 108 b 449 464 796 389 626 464 b 42 128 250 464 42 368 b 554 -239 42 -112 292 -239 z m 607 572 b 625 882 610 693 615 761 b 761 936 664 914 715 936 b 861 818 815 936 861 904 b 656 572 861 703 769 572 z "},"a":{"ha":869,"x_min":null,"x_max":null,"o":"m 814 183 b 824 426 814 268 824 361 b 406 767 824 664 596 767 b 156 606 228 767 156 685 b 326 464 156 510 243 464 b 474 571 401 464 474 501 b 411 644 474 610 446 644 b 381 617 390 644 381 631 b 422 589 381 603 390 589 b 460 569 447 589 460 579 b 411 546 460 558 444 546 b 324 632 351 546 324 588 b 417 725 324 696 367 725 b 590 440 494 725 590 649 b 589 406 590 429 590 417 b 390 435 529 425 458 435 b 38 211 211 435 38 367 b 288 -21 38 61 154 -21 b 554 103 381 -21 481 21 b 728 -19 568 19 636 -19 b 847 0 764 -19 804 -12 b 814 183 821 43 814 111 z m 415 71 b 315 203 361 71 315 117 b 485 392 315 313 385 392 b 588 368 517 392 550 383 b 415 71 574 214 517 71 z "},"á":{"ha":869,"x_min":null,"x_max":null,"o":"m 435 1049 l 367 831 l 408 831 l 708 1049 z m 814 183 b 824 426 814 268 824 361 b 406 767 824 664 596 767 b 156 606 228 767 156 685 b 326 464 156 510 243 464 b 474 571 401 464 474 501 b 411 644 474 610 446 644 b 381 617 390 644 381 631 b 422 589 381 603 390 589 b 460 569 447 589 460 579 b 411 546 460 558 444 546 b 324 632 351 546 324 588 b 417 725 324 696 367 725 b 590 440 494 725 590 649 b 589 406 590 429 590 417 b 390 435 529 425 458 435 b 38 211 211 435 38 367 b 288 -21 38 61 154 -21 b 554 103 381 -21 481 21 b 728 -19 568 19 636 -19 b 847 0 764 -19 804 -12 b 814 183 821 43 814 111 z m 415 71 b 315 203 361 71 315 117 b 485 392 315 313 385 392 b 588 368 517 392 550 383 b 415 71 574 214 517 71 z "},"ă":{"ha":869,"x_min":null,"x_max":null,"o":"m 456 831 b 639 988 583 831 639 917 b 563 1082 639 1054 597 1082 b 506 1038 532 1082 506 1065 b 522 1017 506 1025 511 1017 b 536 1029 532 1017 536 1022 b 524 1042 536 1035 532 1042 b 518 1046 521 1042 518 1043 b 542 1061 518 1054 529 1061 b 571 1031 554 1061 571 1053 b 456 961 571 992 544 961 b 340 1031 367 961 340 992 b 369 1061 340 1053 357 1061 b 393 1046 382 1061 393 1054 b 388 1042 393 1043 390 1042 b 375 1029 379 1042 375 1035 b 389 1017 375 1022 379 1017 b 406 1038 400 1017 406 1025 b 349 1082 406 1065 379 1082 b 272 988 314 1082 272 1054 b 456 831 272 917 328 831 z m 814 183 b 824 426 814 268 824 361 b 406 767 824 664 596 767 b 156 606 228 767 156 685 b 326 464 156 510 243 464 b 474 571 401 464 474 501 b 411 644 474 610 446 644 b 381 617 390 644 381 631 b 422 589 381 603 390 589 b 460 569 447 589 460 579 b 411 546 460 558 444 546 b 324 632 351 546 324 588 b 417 725 324 696 367 725 b 590 440 494 725 590 649 b 589 406 590 429 590 417 b 390 435 529 425 458 435 b 38 211 211 435 38 367 b 288 -21 38 61 154 -21 b 554 103 381 -21 481 21 b 728 -19 568 19 636 -19 b 847 0 764 -19 804 -12 b 814 183 821 43 814 111 z m 415 71 b 315 203 361 71 315 117 b 485 392 315 313 385 392 b 588 368 517 392 550 383 b 415 71 574 214 517 71 z "},"â":{"ha":869,"x_min":null,"x_max":null,"o":"m 626 849 l 660 849 l 553 1074 l 349 1074 l 253 849 l 286 849 l 453 989 z m 814 183 b 824 426 814 268 824 361 b 406 767 824 664 596 767 b 156 606 228 767 156 685 b 326 464 156 510 243 464 b 474 571 401 464 474 501 b 411 644 474 610 446 644 b 381 617 390 644 381 631 b 422 589 381 603 390 589 b 460 569 447 589 460 579 b 411 546 460 558 444 546 b 324 632 351 546 324 588 b 417 725 324 696 367 725 b 590 440 494 725 590 649 b 589 406 590 429 590 417 b 390 435 529 425 458 435 b 38 211 211 435 38 367 b 288 -21 38 61 154 -21 b 554 103 381 -21 481 21 b 728 -19 568 19 636 -19 b 847 0 764 -19 804 -12 b 814 183 821 43 814 111 z m 415 71 b 315 203 361 71 315 117 b 485 392 315 313 385 392 b 588 368 517 392 550 383 b 415 71 574 214 517 71 z "},"ä":{"ha":869,"x_min":null,"x_max":null,"o":"m 329 835 b 435 933 381 835 435 868 b 329 1033 435 1000 381 1033 b 225 933 276 1033 225 1000 b 329 835 225 868 276 835 z m 588 835 b 690 933 638 835 690 868 b 588 1033 690 1000 638 1033 b 481 933 533 1033 481 1000 b 588 835 481 868 533 835 z m 814 183 b 824 426 814 268 824 361 b 406 767 824 664 596 767 b 156 606 228 767 156 685 b 326 464 156 510 243 464 b 474 571 401 464 474 501 b 411 644 474 610 446 644 b 381 617 390 644 381 631 b 422 589 381 603 390 589 b 460 569 447 589 460 579 b 411 546 460 558 444 546 b 324 632 351 546 324 588 b 417 725 324 696 367 725 b 590 440 494 725 590 649 b 589 406 590 429 590 417 b 390 435 529 425 458 435 b 38 211 211 435 38 367 b 288 -21 38 61 154 -21 b 554 103 381 -21 481 21 b 728 -19 568 19 636 -19 b 847 0 764 -19 804 -12 b 814 183 821 43 814 111 z m 415 71 b 315 203 361 71 315 117 b 485 392 315 313 385 392 b 588 368 517 392 550 383 b 415 71 574 214 517 71 z "},"à":{"ha":869,"x_min":null,"x_max":null,"o":"m 475 1049 l 201 1049 l 500 831 l 543 831 z m 814 183 b 824 426 814 268 824 361 b 406 767 824 664 596 767 b 156 606 228 767 156 685 b 326 464 156 510 243 464 b 474 571 401 464 474 501 b 411 644 474 610 446 644 b 381 617 390 644 381 631 b 422 589 381 603 390 589 b 460 569 447 589 460 579 b 411 546 460 558 444 546 b 324 632 351 546 324 588 b 417 725 324 696 367 725 b 590 440 494 725 590 649 b 589 406 590 429 590 417 b 390 435 529 425 458 435 b 38 211 211 435 38 367 b 288 -21 38 61 154 -21 b 554 103 381 -21 481 21 b 728 -19 568 19 636 -19 b 847 0 764 -19 804 -12 b 814 183 821 43 814 111 z m 415 71 b 315 203 361 71 315 117 b 485 392 315 313 385 392 b 588 368 517 392 550 383 b 415 71 574 214 517 71 z "},"ā":{"ha":869,"x_min":null,"x_max":null,"o":"m 240 910 l 240 858 l 675 858 l 675 910 z m 814 183 b 824 426 814 268 824 361 b 406 767 824 664 596 767 b 156 606 228 767 156 685 b 326 464 156 510 243 464 b 474 571 401 464 474 501 b 411 644 474 610 446 644 b 381 617 390 644 381 631 b 422 589 381 603 390 589 b 460 569 447 589 460 579 b 411 546 460 558 444 546 b 324 632 351 546 324 588 b 417 725 324 696 367 725 b 590 440 494 725 590 649 b 589 406 590 429 590 417 b 390 435 529 425 458 435 b 38 211 211 435 38 367 b 288 -21 38 61 154 -21 b 554 103 381 -21 481 21 b 728 -19 568 19 636 -19 b 847 0 764 -19 804 -12 b 814 183 821 43 814 111 z m 415 71 b 315 203 361 71 315 117 b 485 392 315 313 385 392 b 588 368 517 392 550 383 b 415 71 574 214 517 71 z "},"ą":{"ha":869,"x_min":null,"x_max":null,"o":"m 826 -139 b 799 -162 807 -139 799 -150 b 835 -186 799 -175 807 -186 b 868 -204 857 -186 868 -196 b 826 -224 868 -214 854 -224 b 746 -132 774 -224 746 -181 b 833 -4 746 -83 775 -28 l 847 0 b 814 183 821 43 814 111 b 824 426 814 268 824 361 b 406 767 824 664 596 767 b 156 606 228 767 156 685 b 326 464 156 510 243 464 b 474 571 401 464 474 501 b 411 644 474 610 446 644 b 381 617 390 644 381 631 b 422 589 381 603 390 589 b 460 569 447 589 460 579 b 411 546 460 558 444 546 b 324 632 351 546 324 588 b 417 725 324 696 367 725 b 590 440 494 725 590 649 b 589 406 590 429 590 417 b 390 435 529 425 458 435 b 38 211 211 435 38 367 b 288 -21 38 61 154 -21 b 554 103 381 -21 481 21 b 728 -19 568 19 636 -19 l 742 -19 b 621 -183 663 -56 621 -124 b 761 -297 621 -244 665 -297 b 881 -203 822 -297 881 -262 b 826 -139 881 -168 856 -139 z m 415 71 b 315 203 361 71 315 117 b 485 392 315 313 385 392 b 588 368 517 392 550 383 b 415 71 574 214 517 71 z "},"å":{"ha":869,"x_min":null,"x_max":null,"o":"m 457 771 b 549 881 511 771 549 821 b 457 990 549 940 511 990 b 365 881 404 990 365 940 b 457 771 365 821 404 771 z m 457 932 b 500 879 485 932 500 907 b 457 829 500 854 485 829 b 413 879 431 829 413 854 b 457 932 413 907 431 932 z m 814 183 b 824 426 814 268 824 361 b 406 767 824 664 596 767 b 156 606 228 767 156 685 b 326 464 156 510 243 464 b 474 571 401 464 474 501 b 411 644 474 610 446 644 b 381 617 390 644 381 631 b 422 589 381 603 390 589 b 460 569 447 589 460 579 b 411 546 460 558 444 546 b 324 632 351 546 324 588 b 417 725 324 696 367 725 b 590 440 494 725 590 649 b 589 406 590 429 590 417 b 390 435 529 425 458 435 b 38 211 211 435 38 367 b 288 -21 38 61 154 -21 b 554 103 381 -21 481 21 b 728 -19 568 19 636 -19 b 847 0 764 -19 804 -12 b 814 183 821 43 814 111 z m 415 71 b 315 203 361 71 315 117 b 485 392 315 313 385 392 b 588 368 517 392 550 383 b 415 71 574 214 517 71 z "},"ã":{"ha":869,"x_min":null,"x_max":null,"o":"m 264 825 b 314 861 300 825 314 843 b 292 888 314 875 304 888 b 281 878 283 888 281 882 b 296 868 281 872 283 868 b 308 861 304 868 308 864 b 285 849 308 854 299 849 b 231 914 250 849 231 883 b 265 956 231 936 242 956 b 556 832 328 956 447 832 b 685 985 640 832 685 915 b 613 1079 685 1036 661 1079 b 563 1043 575 1079 563 1060 b 585 1017 563 1029 572 1017 b 596 1026 592 1017 596 1022 b 581 1036 596 1032 592 1036 b 568 1043 572 1036 568 1040 b 592 1056 568 1050 578 1056 b 649 996 629 1056 649 1024 b 613 954 649 974 636 954 b 328 1079 551 954 421 1079 b 192 913 233 1079 192 989 b 264 825 192 864 215 825 z m 814 183 b 824 426 814 268 824 361 b 406 767 824 664 596 767 b 156 606 228 767 156 685 b 326 464 156 510 243 464 b 474 571 401 464 474 501 b 411 644 474 610 446 644 b 381 617 390 644 381 631 b 422 589 381 603 390 589 b 460 569 447 589 460 579 b 411 546 460 558 444 546 b 324 632 351 546 324 588 b 417 725 324 696 367 725 b 590 440 494 725 590 649 b 589 406 590 429 590 417 b 390 435 529 425 458 435 b 38 211 211 435 38 367 b 288 -21 38 61 154 -21 b 554 103 381 -21 481 21 b 728 -19 568 19 636 -19 b 847 0 764 -19 804 -12 b 814 183 821 43 814 111 z m 415 71 b 315 203 361 71 315 117 b 485 392 315 313 385 392 b 588 368 517 392 550 383 b 415 71 574 214 517 71 z "},"æ":{"ha":1418,"x_min":null,"x_max":null,"o":"m 311 -18 b 661 133 431 -18 565 32 b 1010 -18 732 31 872 -18 b 1376 236 1196 -18 1376 71 b 1186 424 1376 363 1276 424 b 1047 304 1114 424 1047 383 b 1110 231 1047 265 1075 231 b 1140 258 1131 231 1140 244 b 1099 286 1140 272 1131 286 b 1061 306 1074 286 1061 296 b 1110 329 1061 317 1076 329 b 1197 200 1169 329 1197 268 b 1071 29 1197 89 1139 29 b 865 390 976 29 865 143 b 874 488 865 424 868 457 l 1390 488 b 1024 767 1390 668 1213 767 b 717 663 914 767 800 733 b 406 767 633 733 514 767 b 156 606 228 767 156 685 b 326 464 156 510 243 464 b 474 571 401 464 474 501 b 411 644 474 610 446 644 b 381 617 390 644 381 631 b 422 589 381 603 390 589 b 460 569 447 589 460 579 b 411 546 460 558 444 546 b 324 632 351 546 324 588 b 417 733 324 696 367 733 b 590 406 494 733 589 613 b 390 435 529 424 458 435 b 38 211 211 435 38 367 b 311 -18 38 58 163 -18 z m 879 533 b 1021 731 899 644 944 731 b 1139 547 1082 731 1139 657 z m 422 50 b 315 203 365 50 315 107 b 485 392 315 313 385 392 b 590 367 517 392 553 383 b 422 50 581 144 494 50 z "},"b":{"ha":856,"x_min":null,"x_max":null,"o":"m 324 -21 b 828 401 610 -21 828 128 b 488 768 828 642 708 768 b 315 746 435 768 376 761 b 331 975 319 822 324 899 l 46 975 b 67 500 60 819 67 660 b 46 25 67 340 60 182 b 324 -21 138 -6 232 -21 z m 331 24 b 310 496 317 181 310 339 b 314 697 310 563 311 631 b 390 707 340 704 367 707 b 544 401 496 707 544 638 b 331 24 544 118 444 24 z "},"c":{"ha":779,"x_min":null,"x_max":null,"o":"m 419 -21 b 742 126 529 -21 644 25 l 739 132 b 599 92 696 106 647 92 b 310 474 454 92 310 214 b 468 725 310 658 394 725 b 576 611 525 725 575 693 b 489 510 578 560 546 510 b 440 533 456 510 440 522 b 478 553 440 543 453 553 b 519 581 510 553 519 567 b 489 608 519 594 510 608 b 426 535 454 608 426 574 b 565 432 426 486 463 432 b 753 582 654 432 753 485 b 468 767 753 671 671 767 b 42 385 242 767 42 651 b 419 -21 42 135 219 -21 z "},"ć":{"ha":779,"x_min":null,"x_max":null,"o":"m 372 831 l 672 1049 l 399 1049 l 331 831 z m 419 -21 b 742 126 529 -21 644 25 l 739 132 b 599 92 696 106 647 92 b 310 474 454 92 310 214 b 468 725 310 658 394 725 b 576 611 525 725 575 693 b 489 510 578 560 546 510 b 440 533 456 510 440 522 b 478 553 440 543 453 553 b 519 581 510 553 519 567 b 489 608 519 594 510 608 b 426 535 454 608 426 574 b 565 432 426 486 463 432 b 753 582 654 432 753 485 b 468 767 753 671 671 767 b 42 385 242 767 42 651 b 419 -21 42 135 219 -21 z "},"č":{"ha":779,"x_min":null,"x_max":null,"o":"m 517 815 l 624 1040 l 590 1040 l 417 900 l 250 1040 l 217 1040 l 313 815 z m 419 -21 b 742 126 529 -21 644 25 l 739 132 b 599 92 696 106 647 92 b 310 474 454 92 310 214 b 468 725 310 658 394 725 b 576 611 525 725 575 693 b 489 510 578 560 546 510 b 440 533 456 510 440 522 b 478 553 440 543 453 553 b 519 581 510 553 519 567 b 489 608 519 594 510 608 b 426 535 454 608 426 574 b 565 432 426 486 463 432 b 753 582 654 432 753 485 b 468 767 753 671 671 767 b 42 385 242 767 42 651 b 419 -21 42 135 219 -21 z "},"ç":{"ha":779,"x_min":null,"x_max":null,"o":"m 599 92 b 310 474 454 92 310 214 b 468 725 310 658 394 725 b 576 611 525 725 575 693 b 489 510 578 560 546 510 b 440 533 456 510 440 522 b 478 553 440 543 453 553 b 519 581 510 553 519 567 b 489 608 519 594 510 608 b 426 535 454 608 426 574 b 565 432 426 486 463 432 b 753 582 654 432 753 485 b 468 767 753 671 671 767 b 42 385 242 767 42 651 b 379 -18 42 151 196 0 l 351 -97 b 382 -93 363 -94 372 -93 b 464 -199 428 -93 464 -139 b 396 -321 464 -286 428 -321 b 347 -262 371 -321 347 -299 b 382 -224 347 -243 360 -224 b 403 -233 396 -224 403 -228 b 388 -240 403 -237 397 -240 b 369 -253 374 -240 369 -247 b 382 -264 369 -258 374 -264 b 408 -233 397 -264 408 -250 b 351 -190 408 -212 393 -190 b 283 -258 308 -190 283 -222 b 408 -347 283 -300 321 -347 b 599 -199 497 -347 599 -303 b 449 -60 599 -119 547 -60 b 399 -64 433 -60 417 -61 l 414 -21 l 419 -21 b 742 126 529 -21 644 25 l 739 132 b 599 92 696 106 647 92 z "},"ċ":{"ha":779,"x_min":null,"x_max":null,"o":"m 419 815 b 564 964 517 815 564 889 b 419 1111 564 1038 517 1111 b 278 964 325 1111 278 1038 b 419 815 278 889 325 815 z m 419 -21 b 742 126 529 -21 644 25 l 739 132 b 599 92 696 106 647 92 b 310 474 454 92 310 214 b 468 725 310 658 394 725 b 576 611 525 725 575 693 b 489 510 578 560 546 510 b 440 533 456 510 440 522 b 478 553 440 543 453 553 b 519 581 510 553 519 567 b 489 608 519 594 510 608 b 426 535 454 608 426 574 b 565 432 426 486 463 432 b 753 582 654 432 753 485 b 468 767 753 671 671 767 b 42 385 242 767 42 651 b 419 -21 42 135 219 -21 z "},"d":{"ha":883,"x_min":null,"x_max":null,"o":"m 451 -18 b 838 60 582 -18 721 13 b 817 518 824 213 817 365 b 838 975 817 669 824 822 l 553 975 b 569 731 560 893 565 811 b 382 765 503 754 440 765 b 32 369 171 765 32 614 b 451 -18 32 83 214 -18 z m 513 31 b 315 388 392 31 315 194 b 510 693 315 561 375 693 b 571 685 528 693 549 690 b 578 46 578 472 576 240 b 513 31 554 36 533 31 z "},"ð":{"ha":897,"x_min":null,"x_max":null,"o":"m 433 -19 b 869 447 649 -19 869 133 b 500 965 869 751 694 904 l 556 1033 l 524 1056 l 458 976 b 289 999 403 992 344 997 l 289 957 b 417 926 339 957 382 946 l 349 843 l 381 818 l 450 904 b 560 697 506 857 540 783 b 390 764 517 743 457 764 b 28 385 225 764 28 624 b 433 -19 28 118 228 -19 z m 447 15 b 313 367 379 15 313 133 b 463 697 313 589 389 697 b 581 564 510 697 556 653 b 586 394 586 508 586 451 b 447 15 586 140 517 15 z "},"ď":{"ha":1229,"x_min":null,"x_max":null,"o":"m 451 -18 b 838 60 582 -18 721 13 b 817 518 824 213 817 365 b 838 975 817 669 824 822 l 553 975 b 569 731 560 893 565 811 b 382 765 503 754 440 765 b 32 369 171 765 32 614 b 451 -18 32 83 214 -18 z m 956 688 b 1183 975 1063 688 1181 785 l 967 975 b 981 860 975 936 981 896 b 881 717 981 781 956 715 l 881 703 b 956 688 907 692 932 688 z m 513 31 b 315 388 392 31 315 194 b 510 693 315 561 375 693 b 571 685 528 693 549 690 b 578 46 578 472 576 240 b 513 31 554 36 533 31 z "},"đ":{"ha":975,"x_min":null,"x_max":null,"o":"m 929 863 l 829 863 b 838 975 831 900 835 938 l 553 975 l 561 863 l 483 863 l 483 821 l 564 821 b 569 731 567 790 568 761 b 382 765 503 754 440 765 b 32 369 171 765 32 614 b 451 -18 32 83 214 -18 b 838 60 582 -18 721 13 b 817 518 824 213 817 365 b 826 821 817 618 819 719 l 929 821 z m 513 31 b 315 388 392 31 315 194 b 510 693 315 561 375 693 b 571 685 528 693 549 690 b 578 46 578 472 576 240 b 513 31 554 36 533 31 z "},"e":{"ha":854,"x_min":null,"x_max":null,"o":"m 433 -21 b 813 236 625 -21 813 81 b 622 424 813 363 713 424 b 483 304 550 424 483 383 b 546 231 483 265 511 231 b 576 258 567 231 576 244 b 535 286 576 272 567 286 b 497 306 510 286 497 296 b 546 329 497 317 513 329 b 633 200 606 329 633 268 b 507 29 633 89 575 29 b 301 390 413 29 301 143 b 310 488 301 424 304 457 l 826 488 b 460 767 826 668 649 767 b 28 375 250 767 28 644 b 433 -21 28 90 233 -21 z m 315 533 b 457 725 335 644 381 725 b 575 547 518 725 575 657 z "},"é":{"ha":854,"x_min":null,"x_max":null,"o":"m 403 831 l 703 1049 l 429 1049 l 361 831 z m 433 -21 b 813 236 625 -21 813 81 b 622 424 813 363 713 424 b 483 304 550 424 483 383 b 546 231 483 265 511 231 b 576 258 567 231 576 244 b 535 286 576 272 567 286 b 497 306 510 286 497 296 b 546 329 497 317 513 329 b 633 200 606 329 633 268 b 507 29 633 89 575 29 b 301 390 413 29 301 143 b 310 488 301 424 304 457 l 826 488 b 460 767 826 668 649 767 b 28 375 250 767 28 644 b 433 -21 28 90 233 -21 z m 315 533 b 457 725 335 644 381 725 b 575 547 518 725 575 657 z "},"ě":{"ha":854,"x_min":null,"x_max":null,"o":"m 547 815 l 654 1040 l 621 1040 l 447 900 l 281 1040 l 247 1040 l 343 815 z m 433 -21 b 813 236 625 -21 813 81 b 622 424 813 363 713 424 b 483 304 550 424 483 383 b 546 231 483 265 511 231 b 576 258 567 231 576 244 b 535 286 576 272 567 286 b 497 306 510 286 497 296 b 546 329 497 317 513 329 b 633 200 606 329 633 268 b 507 29 633 89 575 29 b 301 390 413 29 301 143 b 310 488 301 424 304 457 l 826 488 b 460 767 826 668 649 767 b 28 375 250 767 28 644 b 433 -21 28 90 233 -21 z m 315 533 b 457 725 335 644 381 725 b 575 547 518 725 575 657 z "},"ê":{"ha":854,"x_min":null,"x_max":null,"o":"m 281 849 l 447 989 l 621 849 l 654 849 l 547 1074 l 343 1074 l 247 849 z m 433 -21 b 813 236 625 -21 813 81 b 622 424 813 363 713 424 b 483 304 550 424 483 383 b 546 231 483 265 511 231 b 576 258 567 231 576 244 b 535 286 576 272 567 286 b 497 306 510 286 497 296 b 546 329 497 317 513 329 b 633 200 606 329 633 268 b 507 29 633 89 575 29 b 301 390 413 29 301 143 b 310 488 301 424 304 457 l 826 488 b 460 767 826 668 649 767 b 28 375 250 767 28 644 b 433 -21 28 90 233 -21 z m 315 533 b 457 725 335 644 381 725 b 575 547 518 725 575 657 z "},"ë":{"ha":854,"x_min":null,"x_max":null,"o":"m 324 835 b 429 933 375 835 429 868 b 324 1033 429 1000 375 1033 b 219 933 271 1033 219 1000 b 324 835 219 868 271 835 z m 582 835 b 685 933 632 835 685 868 b 582 1033 685 1000 632 1033 b 475 933 528 1033 475 1000 b 582 835 475 868 528 835 z m 433 -21 b 813 236 625 -21 813 81 b 622 424 813 363 713 424 b 483 304 550 424 483 383 b 546 231 483 265 511 231 b 576 258 567 231 576 244 b 535 286 576 272 567 286 b 497 306 510 286 497 296 b 546 329 497 317 513 329 b 633 200 606 329 633 268 b 507 29 633 89 575 29 b 301 390 413 29 301 143 b 310 488 301 424 304 457 l 826 488 b 460 767 826 668 649 767 b 28 375 250 767 28 644 b 433 -21 28 90 233 -21 z m 315 533 b 457 725 335 644 381 725 b 575 547 518 725 575 657 z "},"ė":{"ha":854,"x_min":null,"x_max":null,"o":"m 450 815 b 594 964 547 815 594 889 b 450 1111 594 1038 547 1111 b 308 964 356 1111 308 1038 b 450 815 308 889 356 815 z m 433 -21 b 813 236 625 -21 813 81 b 622 424 813 363 713 424 b 483 304 550 424 483 383 b 546 231 483 265 511 231 b 576 258 567 231 576 244 b 535 286 576 272 567 286 b 497 306 510 286 497 296 b 546 329 497 317 513 329 b 633 200 606 329 633 268 b 507 29 633 89 575 29 b 301 390 413 29 301 143 b 310 488 301 424 304 457 l 826 488 b 460 767 826 668 649 767 b 28 375 250 767 28 644 b 433 -21 28 90 233 -21 z m 315 533 b 457 725 335 644 381 725 b 575 547 518 725 575 657 z "},"è":{"ha":854,"x_min":null,"x_max":null,"o":"m 538 831 l 469 1049 l 196 1049 l 494 831 z m 433 -21 b 813 236 625 -21 813 81 b 622 424 813 363 713 424 b 483 304 550 424 483 383 b 546 231 483 265 511 231 b 576 258 567 231 576 244 b 535 286 576 272 567 286 b 497 306 510 286 497 296 b 546 329 497 317 513 329 b 633 200 606 329 633 268 b 507 29 633 89 575 29 b 301 390 413 29 301 143 b 310 488 301 424 304 457 l 826 488 b 460 767 826 668 649 767 b 28 375 250 767 28 644 b 433 -21 28 90 233 -21 z m 315 533 b 457 725 335 644 381 725 b 575 547 518 725 575 657 z "},"ē":{"ha":854,"x_min":null,"x_max":null,"o":"m 669 858 l 669 910 l 235 910 l 235 858 z m 433 -21 b 813 236 625 -21 813 81 b 622 424 813 363 713 424 b 483 304 550 424 483 383 b 546 231 483 265 511 231 b 576 258 567 231 576 244 b 535 286 576 272 567 286 b 497 306 510 286 497 296 b 546 329 497 317 513 329 b 633 200 606 329 633 268 b 507 29 633 89 575 29 b 301 390 413 29 301 143 b 310 488 301 424 304 457 l 826 488 b 460 767 826 668 649 767 b 28 375 250 767 28 644 b 433 -21 28 90 233 -21 z m 315 533 b 457 725 335 644 381 725 b 575 547 518 725 575 657 z "},"ę":{"ha":854,"x_min":null,"x_max":null,"o":"m 622 424 b 483 304 550 424 483 383 b 546 231 483 265 511 231 b 576 258 567 231 576 244 b 535 286 576 272 567 286 b 497 306 510 286 497 296 b 546 329 497 317 513 329 b 633 200 606 329 633 268 b 507 29 633 89 575 29 b 301 390 413 29 301 143 b 310 488 301 424 304 457 l 826 488 b 460 767 826 668 649 767 b 28 375 250 767 28 644 b 433 -21 28 90 233 -21 l 460 -21 b 374 -165 404 -58 374 -115 b 514 -279 374 -226 418 -279 b 633 -185 575 -279 633 -244 b 579 -121 633 -150 608 -121 b 551 -144 560 -121 551 -132 b 588 -168 551 -157 560 -168 b 621 -186 610 -168 621 -178 b 579 -206 621 -196 607 -206 b 499 -114 526 -206 499 -162 b 549 -8 499 -78 515 -36 b 813 236 693 22 813 113 b 622 424 813 363 713 424 z m 457 725 b 575 547 518 725 575 657 l 315 533 b 457 725 335 644 381 725 z "},"f":{"ha":551,"x_min":null,"x_max":null,"o":"m 368 0 b 351 713 349 233 342 476 l 443 713 l 443 754 b 264 925 313 754 264 846 b 328 1031 264 982 290 1031 b 388 921 365 1031 388 997 b 368 853 386 874 376 853 b 351 904 360 853 351 871 b 321 903 351 935 321 932 b 422 818 321 847 369 818 b 563 950 489 818 563 861 b 404 1069 563 1022 492 1069 b 99 754 285 1069 136 982 l 42 754 l 42 713 l 100 713 b 83 0 110 474 103 239 z "},"g":{"ha":813,"x_min":null,"x_max":null,"o":"m 329 -376 b 811 -31 535 -376 811 -292 b 553 192 811 43 758 192 b 296 185 464 192 367 185 b 196 207 236 185 196 190 b 386 249 196 233 250 249 b 774 517 581 249 774 338 b 418 769 774 676 601 760 b 563 944 418 896 494 944 b 661 868 614 944 661 915 b 617 808 661 828 639 808 b 576 861 596 808 576 825 b 561 885 576 878 568 885 b 543 858 551 885 543 875 b 654 765 543 799 596 765 b 815 913 758 765 815 840 b 640 1064 815 1006 733 1064 b 378 771 526 1064 397 979 b 1 524 188 769 1 688 b 243 264 1 400 82 300 b 29 85 94 233 29 156 b 214 -46 29 15 81 -46 l 475 -46 b 619 -164 575 -46 619 -101 b 406 -342 619 -246 542 -342 b 269 -244 332 -342 269 -312 b 331 -179 269 -210 292 -179 b 365 -206 351 -179 365 -189 b 332 -251 365 -228 332 -231 b 351 -268 332 -262 342 -268 b 389 -221 375 -268 389 -247 b 200 -94 389 -169 338 -94 b 46 -215 94 -94 46 -153 b 329 -376 46 -286 100 -376 z m 389 292 b 236 531 314 292 236 374 b 376 729 236 672 306 729 b 528 513 451 729 528 665 b 389 292 528 364 460 292 z "},"ğ":{"ha":813,"x_min":null,"x_max":null,"o":"m 329 -376 b 811 -31 535 -376 811 -292 b 553 192 811 43 758 192 b 296 185 464 192 367 185 b 196 207 236 185 196 190 b 386 249 196 233 250 249 b 774 517 581 249 774 338 b 418 769 774 676 601 760 b 563 944 418 896 494 944 b 661 868 614 944 661 915 b 617 808 661 828 639 808 b 576 861 596 808 576 825 b 561 885 576 878 568 885 b 543 858 551 885 543 875 b 654 765 543 799 596 765 b 815 913 758 765 815 840 b 640 1064 815 1006 733 1064 b 378 771 526 1064 397 979 b 1 524 188 769 1 688 b 243 264 1 400 82 300 b 29 85 94 233 29 156 b 214 -46 29 15 81 -46 l 475 -46 b 619 -164 575 -46 619 -101 b 406 -342 619 -246 542 -342 b 269 -244 332 -342 269 -312 b 331 -179 269 -210 292 -179 b 365 -206 351 -179 365 -189 b 332 -251 365 -228 332 -231 b 351 -268 332 -262 342 -268 b 389 -221 375 -268 389 -247 b 200 -94 389 -169 338 -94 b 46 -215 94 -94 46 -153 b 329 -376 46 -286 100 -376 z m 189 817 b 346 951 297 817 346 890 b 281 1032 346 1008 310 1032 b 231 994 254 1032 231 1018 b 246 976 231 983 236 976 b 257 988 254 976 257 981 b 247 997 257 992 254 997 b 242 1001 244 997 242 999 b 263 1014 242 1008 251 1014 b 288 988 272 1014 288 1007 b 189 929 288 954 264 929 b 89 988 113 929 89 954 b 114 1014 89 1007 104 1014 b 135 1001 125 1014 135 1008 b 129 997 135 999 132 997 b 119 988 122 997 119 992 b 131 976 119 981 122 976 b 146 994 140 976 146 983 b 96 1032 146 1018 122 1032 b 31 951 67 1032 31 1008 b 189 817 31 890 79 817 z m 389 292 b 236 531 314 292 236 374 b 376 729 236 672 306 729 b 528 513 451 729 528 665 b 389 292 528 364 460 292 z "},"ģ":{"ha":813,"x_min":null,"x_max":null,"o":"m 315 825 b 301 940 307 864 301 904 b 401 1083 301 1019 326 1085 l 401 1097 b 233 1053 333 1097 276 1083 b 144 825 176 1011 144 939 z m 329 -376 b 811 -31 535 -376 811 -292 b 553 192 811 43 758 192 b 296 185 464 192 367 185 b 196 207 236 185 196 190 b 386 249 196 233 250 249 b 774 517 581 249 774 338 b 418 769 774 676 601 760 b 563 944 418 896 494 944 b 661 868 614 944 661 915 b 617 808 661 828 639 808 b 576 861 596 808 576 825 b 561 885 576 878 568 885 b 543 858 551 885 543 875 b 654 765 543 799 596 765 b 815 913 758 765 815 840 b 640 1064 815 1006 733 1064 b 378 771 526 1064 397 979 b 1 524 188 769 1 688 b 243 264 1 400 82 300 b 29 85 94 233 29 156 b 214 -46 29 15 81 -46 l 475 -46 b 619 -164 575 -46 619 -101 b 406 -342 619 -246 542 -342 b 269 -244 332 -342 269 -312 b 331 -179 269 -210 292 -179 b 365 -206 351 -179 365 -189 b 332 -251 365 -228 332 -231 b 351 -268 332 -262 342 -268 b 389 -221 375 -268 389 -247 b 200 -94 389 -169 338 -94 b 46 -215 94 -94 46 -153 b 329 -376 46 -286 100 -376 z m 389 292 b 236 531 314 292 236 374 b 376 729 236 672 306 729 b 528 513 451 729 528 665 b 389 292 528 364 460 292 z "},"ġ":{"ha":813,"x_min":null,"x_max":null,"o":"m 254 813 b 382 943 340 813 382 878 b 254 1074 382 1008 340 1074 b 129 943 171 1074 129 1008 b 254 813 129 878 171 813 z m 329 -376 b 811 -31 535 -376 811 -292 b 553 192 811 43 758 192 b 296 185 464 192 367 185 b 196 207 236 185 196 190 b 386 249 196 233 250 249 b 774 517 581 249 774 338 b 418 769 774 676 601 760 b 563 944 418 896 494 944 b 661 868 614 944 661 915 b 617 808 661 828 639 808 b 576 861 596 808 576 825 b 561 885 576 878 568 885 b 543 858 551 885 543 875 b 654 765 543 799 596 765 b 815 913 758 765 815 840 b 640 1064 815 1006 733 1064 b 378 771 526 1064 397 979 b 1 524 188 769 1 688 b 243 264 1 400 82 300 b 29 85 94 233 29 156 b 214 -46 29 15 81 -46 l 475 -46 b 619 -164 575 -46 619 -101 b 406 -342 619 -246 542 -342 b 269 -244 332 -342 269 -312 b 331 -179 269 -210 292 -179 b 365 -206 351 -179 365 -189 b 332 -251 365 -228 332 -231 b 351 -268 332 -262 342 -268 b 389 -221 375 -268 389 -247 b 200 -94 389 -169 338 -94 b 46 -215 94 -94 46 -153 b 329 -376 46 -286 100 -376 z m 389 292 b 236 531 314 292 236 374 b 376 729 236 672 306 729 b 528 513 451 729 528 665 b 389 292 528 364 460 292 z "},"h":{"ha":874,"x_min":null,"x_max":null,"o":"m 836 0 b 808 489 808 163 808 326 b 576 771 808 719 697 771 b 310 568 475 771 367 704 b 331 975 313 704 319 839 l 46 975 b 46 0 74 650 74 325 l 331 0 b 310 496 317 165 310 331 b 464 651 351 599 413 651 b 569 450 522 651 569 586 b 551 0 569 232 561 114 z "},"ħ":{"ha":874,"x_min":null,"x_max":null,"o":"m 836 0 b 808 489 808 163 808 326 b 576 771 808 719 697 771 b 310 568 475 771 367 704 b 317 778 311 639 314 708 l 422 778 l 422 819 l 319 819 b 331 975 322 871 326 924 l 46 975 b 57 819 50 924 54 871 l -24 819 l -24 778 l 60 778 b 46 0 72 518 68 260 l 331 0 b 310 496 317 165 310 331 b 464 651 351 599 413 651 b 569 450 522 651 569 586 b 551 0 569 232 561 114 z "},"i":{"ha":376,"x_min":null,"x_max":null,"o":"m 186 815 b 343 965 272 815 343 878 b 186 1111 343 1044 274 1111 b 32 965 103 1111 32 1044 b 186 815 32 882 103 815 z m 331 0 b 310 378 317 126 310 251 b 331 754 310 503 317 629 l 46 754 b 67 378 60 629 67 503 b 46 0 67 251 60 126 z "},"ı":{"ha":376,"x_min":null,"x_max":null,"o":"m 331 0 b 310 378 317 126 310 251 b 331 754 310 503 317 629 l 46 754 b 67 378 60 629 67 503 b 46 0 67 251 60 126 z "},"í":{"ha":376,"x_min":null,"x_max":null,"o":"m 139 831 l 439 1049 l 165 1049 l 97 831 z m 331 0 b 310 378 317 126 310 251 b 331 754 310 503 317 629 l 46 754 b 67 378 60 629 67 503 b 46 0 67 251 60 126 z "},"î":{"ha":376,"x_min":null,"x_max":null,"o":"m 17 849 l 183 989 l 357 849 l 390 849 l 283 1074 l 79 1074 l -17 849 z m 331 0 b 310 378 317 126 310 251 b 331 754 310 503 317 629 l 46 754 b 67 378 60 629 67 503 b 46 0 67 251 60 126 z "},"ï":{"ha":531,"x_min":null,"x_max":null,"o":"m 136 835 b 242 933 188 835 242 868 b 136 1033 242 1000 188 1033 b 32 933 83 1033 32 1000 b 136 835 32 868 83 835 z m 394 835 b 497 933 444 835 497 868 b 394 1033 497 1000 444 1033 b 288 933 340 1033 288 1000 b 394 835 288 868 340 835 z m 407 0 b 386 378 393 126 386 251 b 407 754 386 503 393 629 l 122 754 b 143 378 136 629 143 503 b 122 0 143 251 136 126 z "},"ì":{"ha":376,"x_min":null,"x_max":null,"o":"m 274 831 l 206 1049 l -68 1049 l 231 831 z m 331 0 b 310 378 317 126 310 251 b 331 754 310 503 317 629 l 46 754 b 67 378 60 629 67 503 b 46 0 67 251 60 126 z "},"ī":{"ha":376,"x_min":null,"x_max":null,"o":"m 406 858 l 406 910 l -29 910 l -29 858 z m 331 0 b 310 378 317 126 310 251 b 331 754 310 503 317 629 l 46 754 b 67 378 60 629 67 503 b 46 0 67 251 60 126 z "},"į":{"ha":376,"x_min":null,"x_max":null,"o":"m 186 815 b 331 964 283 815 331 889 b 186 1111 331 1038 283 1111 b 44 964 92 1111 44 1038 b 186 815 44 889 92 815 z m 310 -139 b 282 -162 290 -139 282 -150 b 318 -186 282 -175 290 -186 b 351 -204 340 -186 351 -196 b 310 -224 351 -214 338 -224 b 229 -132 257 -224 229 -181 b 328 0 229 -81 261 -21 l 331 0 b 310 378 317 126 310 251 b 331 754 310 503 317 629 l 46 754 b 67 378 60 629 67 503 b 46 0 67 251 60 126 l 282 0 b 104 -183 167 -25 104 -111 b 244 -297 104 -244 149 -297 b 364 -203 306 -297 364 -262 b 310 -139 364 -168 339 -139 z "},"j":{"ha":418,"x_min":null,"x_max":null,"o":"m 210 815 b 368 965 297 815 368 882 b 210 1111 368 1044 297 1111 b 57 965 128 1111 57 1044 b 210 815 57 882 128 815 z m -26 -296 b 357 96 142 -296 357 -174 b 344 535 357 242 344 389 b 357 754 344 608 347 681 l 72 754 b 110 -50 90 586 110 390 b 7 -268 110 -203 54 -268 b -76 -174 -46 -268 -76 -218 b -18 -110 -76 -140 -58 -110 b 10 -133 -4 -110 10 -122 b -18 -149 10 -142 3 -149 b -39 -167 -32 -149 -39 -157 b -12 -186 -39 -176 -31 -186 b 26 -133 13 -186 26 -160 b -118 -40 26 -74 -44 -40 b -271 -154 -194 -40 -271 -75 b -26 -296 -271 -217 -189 -294 z "},"k":{"ha":842,"x_min":null,"x_max":null,"o":"m 500 596 b 646 540 564 664 644 621 b 606 499 646 511 624 499 b 582 517 593 499 582 506 b 599 550 582 535 599 535 b 581 565 599 560 590 565 b 558 540 571 565 558 557 b 654 465 558 494 604 465 b 814 619 764 465 814 543 b 682 767 814 694 767 767 b 544 700 635 767 583 744 l 310 432 b 331 975 308 613 315 794 l 46 975 b 46 0 74 650 74 325 l 331 0 b 311 389 319 129 313 260 l 324 404 b 363 431 336 418 349 431 b 529 0 399 431 486 263 l 814 0 b 443 535 700 283 572 453 z "},"ķ":{"ha":842,"x_min":null,"x_max":null,"o":"m 500 596 b 646 540 564 664 644 621 b 606 499 646 511 624 499 b 582 517 593 499 582 506 b 599 550 582 535 599 535 b 581 565 599 560 590 565 b 558 540 571 565 558 557 b 654 465 558 494 604 465 b 814 619 764 465 814 543 b 682 767 814 694 767 767 b 544 700 635 767 583 744 l 310 432 b 331 975 308 613 315 794 l 46 975 b 46 0 74 650 74 325 l 331 0 b 311 389 319 129 313 260 l 324 404 b 363 431 336 418 349 431 b 529 0 399 431 486 263 l 814 0 b 443 535 700 283 572 453 z m 349 -206 b 249 -349 349 -285 324 -350 l 249 -362 b 417 -318 317 -362 374 -349 b 531 -90 474 -276 531 -204 l 335 -90 b 349 -206 343 -129 349 -169 z "},"l":{"ha":376,"x_min":null,"x_max":null,"o":"m 331 0 b 331 975 303 325 303 650 l 46 975 b 46 0 74 650 74 325 z "},"ĺ":{"ha":376,"x_min":null,"x_max":null,"o":"m 140 1051 l 440 1269 l 167 1269 l 99 1051 z m 331 0 b 331 975 303 325 303 650 l 46 975 b 46 0 74 650 74 325 z "},"ľ":{"ha":376,"x_min":null,"x_max":null,"o":"m 285 1036 l 392 1261 l 358 1261 l 185 1121 l 18 1261 l -15 1261 l 81 1036 z m 331 0 b 331 975 303 325 303 650 l 46 975 b 46 0 74 650 74 325 z "},"ļ":{"ha":376,"x_min":null,"x_max":null,"o":"m 331 0 b 331 975 303 325 303 650 l 46 975 b 46 0 74 650 74 325 z m 15 -362 b 183 -318 83 -362 140 -349 b 297 -90 240 -276 297 -204 l 101 -90 b 115 -206 110 -129 115 -169 b 15 -349 115 -285 90 -350 z "},"ł":{"ha":376,"x_min":null,"x_max":null,"o":"m 310 528 b 331 975 311 678 318 826 l 46 975 b 64 318 64 756 71 538 l 6 268 l 6 221 l 63 269 b 46 0 60 179 54 90 l 331 0 b 310 481 317 160 310 321 l 369 532 l 369 579 z "},"m":{"ha":1378,"x_min":null,"x_max":null,"o":"m 1336 0 b 1308 489 1308 163 1308 326 b 1076 771 1308 719 1197 771 b 806 557 972 771 861 700 b 576 771 789 700 714 771 b 315 581 478 771 374 708 b 331 754 319 639 324 697 l 46 754 b 67 378 60 629 67 503 b 46 0 67 251 60 126 l 331 0 b 310 378 317 126 310 251 b 313 501 310 418 311 460 b 464 651 353 600 413 651 b 569 450 522 651 569 586 b 551 0 569 232 561 114 l 836 0 b 808 492 815 122 808 244 b 964 651 850 597 911 651 b 1069 450 1022 651 1069 586 b 1051 0 1069 232 1061 114 z "},"n":{"ha":876,"x_min":null,"x_max":null,"o":"m 836 0 b 808 489 808 163 808 326 b 576 771 808 719 697 771 b 315 581 478 771 374 708 b 331 754 319 639 324 697 l 46 754 b 67 378 60 629 67 503 b 46 0 67 251 60 126 l 331 0 b 310 378 317 126 310 251 b 313 501 310 418 311 460 b 464 651 353 600 413 651 b 569 450 522 651 569 586 b 551 0 569 232 561 114 z "},"ń":{"ha":876,"x_min":null,"x_max":null,"o":"m 418 1049 l 350 831 l 392 831 l 692 1049 z m 836 0 b 808 489 808 163 808 326 b 576 771 808 719 697 771 b 315 581 478 771 374 708 b 331 754 319 639 324 697 l 46 754 b 67 378 60 629 67 503 b 46 0 67 251 60 126 l 331 0 b 310 378 317 126 310 251 b 313 501 310 418 311 460 b 464 651 353 600 413 651 b 569 450 522 651 569 586 b 551 0 569 232 561 114 z "},"ň":{"ha":876,"x_min":null,"x_max":null,"o":"m 643 1040 l 610 1040 l 436 900 l 269 1040 l 236 1040 l 332 815 l 536 815 z m 836 0 b 808 489 808 163 808 326 b 576 771 808 719 697 771 b 315 581 478 771 374 708 b 331 754 319 639 324 697 l 46 754 b 67 378 60 629 67 503 b 46 0 67 251 60 126 l 331 0 b 310 378 317 126 310 251 b 313 501 310 418 311 460 b 464 651 353 600 413 651 b 569 450 522 651 569 586 b 551 0 569 232 561 114 z "},"ņ":{"ha":876,"x_min":null,"x_max":null,"o":"m 836 0 b 808 489 808 163 808 326 b 576 771 808 719 697 771 b 315 581 478 771 374 708 b 331 754 319 639 324 697 l 46 754 b 67 378 60 629 67 503 b 46 0 67 251 60 126 l 331 0 b 310 378 317 126 310 251 b 313 501 310 418 311 460 b 464 651 353 600 413 651 b 569 450 522 651 569 586 b 551 0 569 232 561 114 z m 367 -206 b 267 -349 367 -285 342 -350 l 267 -362 b 435 -318 335 -362 392 -349 b 549 -90 492 -276 549 -204 l 353 -90 b 367 -206 361 -129 367 -169 z "},"ŋ":{"ha":878,"x_min":null,"x_max":null,"o":"m 436 -253 b 808 49 643 -253 808 -111 l 808 372 b 576 765 808 719 697 765 b 315 581 478 765 374 707 b 331 754 319 639 324 697 l 46 754 b 67 378 60 629 67 503 b 46 0 67 251 60 126 l 331 0 b 310 378 317 126 310 251 b 313 501 310 418 311 460 b 464 651 353 600 413 651 b 569 450 522 651 569 586 l 571 32 b 447 -219 571 -108 557 -219 b 360 -201 424 -219 394 -214 l 349 -244 b 436 -253 378 -250 408 -253 z "},"ñ":{"ha":876,"x_min":null,"x_max":null,"o":"m 247 825 b 297 861 283 825 297 843 b 275 888 297 875 288 888 b 264 878 267 888 264 882 b 279 868 264 872 267 868 b 292 861 288 868 292 864 b 268 849 292 854 282 849 b 214 914 233 849 214 883 b 249 956 214 936 225 956 b 539 832 311 956 431 832 b 668 985 624 832 668 915 b 596 1079 668 1036 644 1079 b 546 1043 558 1079 546 1060 b 568 1017 546 1029 556 1017 b 579 1026 575 1017 579 1022 b 564 1036 579 1032 575 1036 b 551 1043 556 1036 551 1040 b 575 1056 551 1050 561 1056 b 632 996 613 1056 632 1024 b 596 954 632 974 619 954 b 311 1079 535 954 404 1079 b 175 913 217 1079 175 989 b 247 825 175 864 199 825 z m 836 0 b 808 489 808 163 808 326 b 576 771 808 719 697 771 b 315 581 478 771 374 708 b 331 754 319 639 324 697 l 46 754 b 67 378 60 629 67 503 b 46 0 67 251 60 126 l 331 0 b 310 378 317 126 310 251 b 313 501 310 418 311 460 b 464 651 353 600 413 651 b 569 450 522 651 569 586 b 551 0 569 232 561 114 z "},"o":{"ha":868,"x_min":null,"x_max":null,"o":"m 435 -21 b 840 371 671 -21 840 124 b 433 767 840 622 671 767 b 28 371 197 767 28 622 b 435 -21 28 124 197 -21 z m 488 21 b 286 504 367 21 286 299 b 379 725 286 628 314 725 b 579 242 500 725 579 449 b 488 21 579 118 551 21 z "},"ó":{"ha":868,"x_min":null,"x_max":null,"o":"m 386 831 l 686 1049 l 413 1049 l 344 831 z m 435 -21 b 840 371 671 -21 840 124 b 433 767 840 622 671 767 b 28 371 197 767 28 622 b 435 -21 28 124 197 -21 z m 488 21 b 286 504 367 21 286 299 b 379 725 286 628 314 725 b 579 242 500 725 579 449 b 488 21 579 118 551 21 z "},"ô":{"ha":868,"x_min":null,"x_max":null,"o":"m 264 849 l 431 989 l 604 849 l 638 849 l 531 1074 l 326 1074 l 231 849 z m 435 -21 b 840 371 671 -21 840 124 b 433 767 840 622 671 767 b 28 371 197 767 28 622 b 435 -21 28 124 197 -21 z m 488 21 b 286 504 367 21 286 299 b 379 725 286 628 314 725 b 579 242 500 725 579 449 b 488 21 579 118 551 21 z "},"ö":{"ha":868,"x_min":null,"x_max":null,"o":"m 307 835 b 413 933 358 835 413 868 b 307 1033 413 1000 358 1033 b 203 933 254 1033 203 1000 b 307 835 203 868 254 835 z m 565 835 b 668 933 615 835 668 868 b 565 1033 668 1000 615 1033 b 458 933 511 1033 458 1000 b 565 835 458 868 511 835 z m 435 -21 b 840 371 671 -21 840 124 b 433 767 840 622 671 767 b 28 371 197 767 28 622 b 435 -21 28 124 197 -21 z m 488 21 b 286 504 367 21 286 299 b 379 725 286 628 314 725 b 579 242 500 725 579 449 b 488 21 579 118 551 21 z "},"ò":{"ha":868,"x_min":null,"x_max":null,"o":"m 521 831 l 453 1049 l 179 1049 l 478 831 z m 435 -21 b 840 371 671 -21 840 124 b 433 767 840 622 671 767 b 28 371 197 767 28 622 b 435 -21 28 124 197 -21 z m 488 21 b 286 504 367 21 286 299 b 379 725 286 628 314 725 b 579 242 500 725 579 449 b 488 21 579 118 551 21 z "},"ő":{"ha":868,"x_min":null,"x_max":null,"o":"m 182 831 l 454 1049 l 181 1049 l 140 831 z m 457 831 l 757 1049 l 483 1049 l 415 831 z m 435 -21 b 840 371 671 -21 840 124 b 433 767 840 622 671 767 b 28 371 197 767 28 622 b 435 -21 28 124 197 -21 z m 488 21 b 286 504 367 21 286 299 b 379 725 286 628 314 725 b 579 242 500 725 579 449 b 488 21 579 118 551 21 z "},"ō":{"ha":868,"x_min":null,"x_max":null,"o":"m 653 858 l 653 910 l 218 910 l 218 858 z m 435 -21 b 840 371 671 -21 840 124 b 433 767 840 622 671 767 b 28 371 197 767 28 622 b 435 -21 28 124 197 -21 z m 488 21 b 286 504 367 21 286 299 b 379 725 286 628 314 725 b 579 242 500 725 579 449 b 488 21 579 118 551 21 z "},"ø":{"ha":868,"x_min":null,"x_max":null,"o":"m 768 754 l 719 754 l 676 701 b 433 767 610 744 526 767 b 28 371 197 767 28 622 b 153 74 28 242 74 140 l 92 0 l 139 0 l 182 51 b 435 -21 249 4 336 -21 b 840 371 671 -21 840 124 b 706 681 840 507 790 613 z m 286 504 b 379 725 286 628 314 725 b 535 532 446 725 500 642 l 315 269 b 286 504 297 346 286 429 z m 488 21 b 328 226 418 21 363 111 l 547 489 b 579 242 568 410 579 321 b 488 21 579 118 551 21 z "},"õ":{"ha":868,"x_min":null,"x_max":null,"o":"m 242 825 b 292 861 278 825 292 843 b 269 888 292 875 282 888 b 258 878 261 888 258 882 b 274 868 258 872 261 868 b 286 861 282 868 286 864 b 263 849 286 854 276 849 b 208 914 228 849 208 883 b 243 956 208 936 219 956 b 533 832 306 956 425 832 b 663 985 618 832 663 915 b 590 1079 663 1036 639 1079 b 540 1043 553 1079 540 1060 b 563 1017 540 1029 550 1017 b 574 1026 569 1017 574 1022 b 558 1036 574 1032 569 1036 b 546 1043 550 1036 546 1040 b 569 1056 546 1050 556 1056 b 626 996 607 1056 626 1024 b 590 954 626 974 614 954 b 306 1079 529 954 399 1079 b 169 913 211 1079 169 989 b 242 825 169 864 193 825 z m 435 -21 b 840 371 671 -21 840 124 b 433 767 840 622 671 767 b 28 371 197 767 28 622 b 435 -21 28 124 197 -21 z m 488 21 b 286 504 367 21 286 299 b 379 725 286 628 314 725 b 579 242 500 725 579 449 b 488 21 579 118 551 21 z "},"œ":{"ha":1453,"x_min":null,"x_max":null,"o":"m 457 -22 b 758 76 578 -22 683 13 b 1060 -15 835 19 938 -15 b 1425 238 1246 -15 1425 78 b 1267 381 1425 333 1344 381 b 1117 247 1189 381 1113 335 b 1221 146 1168 263 1221 221 b 1106 38 1221 82 1168 38 b 890 419 1010 38 890 139 b 893 488 890 443 892 465 l 1410 488 b 1060 765 1410 692 1258 765 b 749 676 929 765 825 733 b 456 768 675 736 572 768 b 28 371 207 768 28 622 b 457 -22 28 124 207 -22 z m 899 533 b 1040 731 918 644 964 731 b 1158 547 1101 731 1158 657 z m 513 21 b 300 513 389 21 300 304 b 399 725 300 631 329 725 b 611 233 522 725 611 440 b 513 21 611 114 581 21 z "},"p":{"ha":858,"x_min":null,"x_max":null,"o":"m 331 -222 b 317 -12 325 -153 319 -83 b 418 -18 351 -15 394 -18 b 829 389 643 -18 829 124 b 375 767 829 679 625 767 b 15 722 260 767 135 749 b 71 285 57 642 71 472 b 46 -222 71 115 58 -71 z m 371 33 b 314 36 361 33 336 35 b 310 253 311 108 310 181 b 331 718 310 407 317 563 b 364 721 342 719 353 721 b 551 389 497 721 551 586 b 371 33 551 150 494 33 z "},"þ":{"ha":886,"x_min":null,"x_max":null,"o":"m 331 -222 b 318 4 325 -147 321 -72 b 472 -18 369 -11 422 -18 b 857 389 676 -18 857 106 b 492 775 857 638 686 775 b 317 738 435 775 375 763 b 331 975 321 817 325 896 l 46 975 b 67 376 60 776 67 576 b 46 -222 67 176 60 -24 z m 383 32 b 317 46 361 32 339 36 b 310 378 313 157 310 267 b 317 710 310 489 313 600 b 390 725 342 719 367 725 b 572 389 499 725 572 608 b 383 32 572 128 479 32 z "},"q":{"ha":936,"x_min":null,"x_max":null,"o":"m 890 -222 b 890 739 863 99 863 418 b 551 768 763 758 649 768 b 46 372 214 768 46 651 b 421 -10 46 128 211 -10 b 622 26 468 -10 553 7 b 606 -222 618 -57 613 -139 z m 542 64 b 329 383 433 64 329 156 b 571 729 329 638 435 729 b 606 728 582 729 593 729 b 624 78 625 511 631 294 b 542 64 592 71 557 64 z "},"r":{"ha":757,"x_min":null,"x_max":null,"o":"m 569 767 b 317 597 481 767 379 714 b 331 754 321 650 325 701 l 46 754 b 67 378 60 629 67 503 b 46 0 67 251 60 126 l 331 0 b 310 343 318 115 311 229 b 488 676 315 589 415 676 b 557 608 526 676 557 650 b 472 503 557 532 510 503 b 431 533 450 503 431 514 b 468 553 431 543 443 553 b 510 581 500 553 510 567 b 479 608 510 594 500 608 b 417 535 444 608 417 574 b 556 432 417 486 453 432 b 743 604 644 432 743 485 b 569 767 743 706 664 767 z "},"ŕ":{"ha":757,"x_min":null,"x_max":null,"o":"m 161 1049 l 93 831 l 135 831 l 435 1049 z m 569 767 b 317 597 481 767 379 714 b 331 754 321 650 325 701 l 46 754 b 67 378 60 629 67 503 b 46 0 67 251 60 126 l 331 0 b 310 343 318 115 311 229 b 488 676 315 589 415 676 b 557 608 526 676 557 650 b 472 503 557 532 510 503 b 431 533 450 503 431 514 b 468 553 431 543 443 553 b 510 581 500 553 510 567 b 479 608 510 594 500 608 b 417 535 444 608 417 574 b 556 432 417 486 453 432 b 743 604 644 432 743 485 b 569 767 743 706 664 767 z "},"ř":{"ha":757,"x_min":null,"x_max":null,"o":"m 386 1040 l 353 1040 l 179 900 l 13 1040 l -21 1040 l 75 815 l 279 815 z m 569 767 b 317 597 481 767 379 714 b 331 754 321 650 325 701 l 46 754 b 67 378 60 629 67 503 b 46 0 67 251 60 126 l 331 0 b 310 343 318 115 311 229 b 488 676 315 589 415 676 b 557 608 526 676 557 650 b 472 503 557 532 510 503 b 431 533 450 503 431 514 b 468 553 431 543 443 553 b 510 581 500 553 510 567 b 479 608 510 594 500 608 b 417 535 444 608 417 574 b 556 432 417 486 453 432 b 743 604 644 432 743 485 b 569 767 743 706 664 767 z "},"ŗ":{"ha":757,"x_min":null,"x_max":null,"o":"m 569 767 b 317 597 481 767 379 714 b 331 754 321 650 325 701 l 46 754 b 67 378 60 629 67 503 b 46 0 67 251 60 126 l 331 0 b 310 343 318 115 311 229 b 488 676 315 589 415 676 b 557 608 526 676 557 650 b 472 503 557 532 510 503 b 431 533 450 503 431 514 b 468 553 431 543 443 553 b 510 581 500 553 510 567 b 479 608 510 594 500 608 b 417 535 444 608 417 574 b 556 432 417 486 453 432 b 743 604 644 432 743 485 b 569 767 743 706 664 767 z m 94 -206 b -6 -349 94 -285 69 -350 l -6 -362 b 163 -318 63 -362 119 -349 b 276 -90 219 -276 276 -204 l 81 -90 b 94 -206 89 -129 94 -169 z "},"s":{"ha":736,"x_min":null,"x_max":null,"o":"m 340 -21 b 708 236 529 -21 708 67 b 307 672 708 443 307 546 b 408 733 307 714 354 733 b 568 629 482 733 568 697 b 510 568 568 586 536 568 b 485 586 492 568 485 578 b 501 603 485 594 492 603 b 531 621 521 603 531 613 b 508 638 531 629 522 638 b 467 592 485 638 467 615 b 585 503 467 535 526 503 b 703 606 644 503 703 535 b 389 767 703 713 547 767 b 56 568 224 767 56 697 b 489 104 56 396 489 269 b 365 22 489 49 432 22 b 172 151 276 22 172 69 b 257 226 174 199 219 226 b 314 179 288 226 313 211 b 272 160 314 169 300 160 b 228 135 239 160 228 147 b 263 104 228 119 238 104 b 329 181 307 104 329 139 b 182 313 329 240 282 313 b 28 169 82 313 28 244 b 340 -21 28 44 179 -21 z "},"ś":{"ha":736,"x_min":null,"x_max":null,"o":"m 328 831 l 628 1049 l 354 1049 l 286 831 z m 340 -21 b 708 236 529 -21 708 67 b 307 672 708 443 307 546 b 408 733 307 714 354 733 b 568 629 482 733 568 697 b 510 568 568 586 536 568 b 485 586 492 568 485 578 b 501 603 485 594 492 603 b 531 621 521 603 531 613 b 508 638 531 629 522 638 b 467 592 485 638 467 615 b 585 503 467 535 526 503 b 703 606 644 503 703 535 b 389 767 703 713 547 767 b 56 568 224 767 56 697 b 489 104 56 396 489 269 b 365 22 489 49 432 22 b 172 151 276 22 172 69 b 257 226 174 199 219 226 b 314 179 288 226 313 211 b 272 160 314 169 300 160 b 228 135 239 160 228 147 b 263 104 228 119 238 104 b 329 181 307 104 329 139 b 182 313 329 240 282 313 b 28 169 82 313 28 244 b 340 -21 28 44 179 -21 z "},"š":{"ha":736,"x_min":null,"x_max":null,"o":"m 472 815 l 579 1040 l 546 1040 l 372 900 l 206 1040 l 172 1040 l 268 815 z m 340 -21 b 708 236 529 -21 708 67 b 307 672 708 443 307 546 b 408 733 307 714 354 733 b 568 629 482 733 568 697 b 510 568 568 586 536 568 b 485 586 492 568 485 578 b 501 603 485 594 492 603 b 531 621 521 603 531 613 b 508 638 531 629 522 638 b 467 592 485 638 467 615 b 585 503 467 535 526 503 b 703 606 644 503 703 535 b 389 767 703 713 547 767 b 56 568 224 767 56 697 b 489 104 56 396 489 269 b 365 22 489 49 432 22 b 172 151 276 22 172 69 b 257 226 174 199 219 226 b 314 179 288 226 313 211 b 272 160 314 169 300 160 b 228 135 239 160 228 147 b 263 104 228 119 238 104 b 329 181 307 104 329 139 b 182 313 329 240 282 313 b 28 169 82 313 28 244 b 340 -21 28 44 179 -21 z "},"ş":{"ha":736,"x_min":null,"x_max":null,"o":"m 708 236 b 307 672 708 443 307 546 b 408 733 307 714 354 733 b 568 629 482 733 568 697 b 510 568 568 586 536 568 b 485 586 492 568 485 578 b 501 603 485 594 492 603 b 531 621 521 603 531 613 b 508 638 531 629 522 638 b 467 592 485 638 467 615 b 585 503 467 535 526 503 b 703 606 644 503 703 535 b 389 767 703 713 547 767 b 56 568 224 767 56 697 b 489 104 56 396 489 269 b 365 22 489 49 432 22 b 172 151 276 22 172 69 b 257 226 174 199 219 226 b 314 179 288 226 313 211 b 272 160 314 169 300 160 b 228 135 239 160 228 147 b 263 104 228 119 238 104 b 329 181 307 104 329 139 b 182 313 329 240 282 313 b 28 169 82 313 28 244 b 335 -21 28 46 175 -19 l 307 -97 b 338 -93 318 -94 328 -93 b 419 -199 383 -93 419 -139 b 351 -321 419 -286 383 -321 b 303 -262 326 -321 303 -299 b 338 -224 303 -243 315 -224 b 358 -233 351 -224 358 -228 b 343 -240 358 -237 353 -240 b 325 -253 329 -240 325 -247 b 338 -264 325 -258 329 -264 b 364 -233 353 -264 364 -250 b 307 -190 364 -212 349 -190 b 239 -258 264 -190 239 -222 b 364 -347 239 -300 276 -347 b 554 -199 453 -347 554 -303 b 404 -60 554 -119 503 -60 b 354 -64 389 -60 372 -61 l 369 -19 b 708 236 547 -11 708 75 z "},"ș":{"ha":736,"x_min":null,"x_max":null,"o":"m 340 -21 b 708 236 529 -21 708 67 b 307 672 708 443 307 546 b 408 733 307 714 354 733 b 568 629 482 733 568 697 b 510 568 568 586 536 568 b 485 586 492 568 485 578 b 501 603 485 594 492 603 b 531 621 521 603 531 613 b 508 638 531 629 522 638 b 467 592 485 638 467 615 b 585 503 467 535 526 503 b 703 606 644 503 703 535 b 389 767 703 713 547 767 b 56 568 224 767 56 697 b 489 104 56 396 489 269 b 365 22 489 49 432 22 b 172 151 276 22 172 69 b 257 226 174 199 219 226 b 314 179 288 226 313 211 b 272 160 314 169 300 160 b 228 135 239 160 228 147 b 263 104 228 119 238 104 b 329 181 307 104 329 139 b 182 313 329 240 282 313 b 28 169 82 313 28 244 b 340 -21 28 44 179 -21 z m 203 -362 b 371 -318 271 -362 328 -349 b 485 -90 428 -276 485 -204 l 289 -90 b 303 -206 297 -129 303 -169 b 203 -349 303 -285 278 -350 z "},"ß":{"ha":1010,"x_min":null,"x_max":null,"o":"m 642 -18 b 982 338 822 -18 982 117 b 561 572 982 494 819 550 b 861 839 647 613 861 754 b 554 1004 861 939 721 1004 b 56 444 104 1004 56 731 b 60 208 56 365 60 285 b 42 0 60 133 57 61 l 326 0 b 299 389 310 110 299 250 b 489 957 299 675 346 957 b 607 808 565 957 607 890 b 408 528 607 708 544 585 b 721 208 504 497 721 389 b 636 22 721 92 685 22 b 481 247 588 22 528 90 l 408 63 b 642 -18 482 8 564 -18 z "},"t":{"ha":742,"x_min":null,"x_max":null,"o":"m 385 -21 b 714 224 606 -21 714 117 b 586 344 714 290 671 344 b 449 228 517 344 449 301 b 510 157 449 190 476 157 b 539 185 532 157 539 171 b 500 210 539 196 532 210 b 463 231 475 210 463 221 b 510 254 463 242 478 254 b 572 172 553 254 572 217 b 472 36 572 111 533 36 b 336 361 361 36 336 167 b 349 713 336 464 343 585 l 401 713 b 535 615 500 713 535 668 b 468 542 535 563 499 542 b 421 575 443 542 421 554 b 458 594 421 585 433 594 b 500 622 490 594 500 608 b 469 650 500 636 490 650 b 407 576 435 650 407 615 b 533 467 407 503 468 467 b 692 608 610 467 692 515 b 510 754 692 682 642 754 l 350 754 b 356 975 353 826 356 900 l 350 975 b 32 754 279 828 110 754 b 71 296 86 678 71 576 b 385 -21 71 74 226 -21 z "},"ŧ":{"ha":742,"x_min":null,"x_max":null,"o":"m 586 344 b 449 228 517 344 449 301 b 510 157 449 190 476 157 b 539 185 532 157 539 171 b 500 210 539 196 532 210 b 463 231 475 210 463 221 b 510 254 463 242 478 254 b 572 172 553 254 572 217 b 472 36 572 111 533 36 b 336 361 361 36 336 167 l 336 413 l 461 413 l 461 454 l 338 454 b 349 713 340 535 344 622 l 401 713 b 535 615 500 713 535 668 b 468 542 535 563 499 542 b 421 575 443 542 421 554 b 458 594 421 585 433 594 b 500 622 490 594 500 608 b 469 650 500 636 490 650 b 407 576 435 650 407 615 b 533 467 407 503 468 467 b 692 608 610 467 692 515 b 510 754 692 682 642 754 l 350 754 b 356 975 353 826 356 900 l 350 975 b 32 754 279 828 110 754 b 72 454 75 694 74 619 l 15 454 l 15 413 l 72 413 b 71 296 71 378 71 339 b 385 -21 71 74 226 -21 b 714 224 606 -21 714 117 b 586 344 714 290 671 344 z "},"ť":{"ha":793,"x_min":null,"x_max":null,"o":"m 551 801 b 779 1089 658 801 776 899 l 563 1089 b 576 974 571 1050 576 1010 b 476 831 576 894 551 829 l 476 817 b 551 801 503 806 528 801 z m 385 -21 b 714 224 606 -21 714 117 b 586 344 714 290 671 344 b 449 228 517 344 449 301 b 510 157 449 190 476 157 b 539 185 532 157 539 171 b 500 210 539 196 532 210 b 463 231 475 210 463 221 b 510 254 463 242 478 254 b 572 172 553 254 572 217 b 472 36 572 111 533 36 b 336 361 361 36 336 167 b 349 713 336 464 343 585 l 401 713 b 535 615 500 713 535 668 b 468 542 535 563 499 542 b 421 575 443 542 421 554 b 458 594 421 585 433 594 b 500 622 490 594 500 608 b 469 650 500 636 490 650 b 407 576 435 650 407 615 b 533 467 407 503 468 467 b 692 608 610 467 692 515 b 510 754 692 682 642 754 l 350 754 b 356 975 353 826 356 900 l 350 975 b 32 754 279 828 110 754 b 71 296 86 678 71 576 b 385 -21 71 74 226 -21 z "},"ţ":{"ha":742,"x_min":null,"x_max":null,"o":"m 714 224 b 586 344 714 290 671 344 b 449 228 517 344 449 301 b 510 157 449 190 476 157 b 539 185 532 157 539 171 b 500 210 539 196 532 210 b 463 231 475 210 463 221 b 510 254 463 242 478 254 b 572 172 553 254 572 217 b 472 36 572 111 533 36 b 336 361 361 36 336 167 b 349 713 336 464 343 585 l 401 713 b 535 615 500 713 535 668 b 468 542 535 563 499 542 b 421 575 443 542 421 554 b 458 594 421 585 433 594 b 500 622 490 594 500 608 b 469 650 500 636 490 650 b 407 576 435 650 407 615 b 533 467 407 503 468 467 b 692 608 610 467 692 515 b 510 754 692 682 642 754 l 350 754 b 356 975 353 826 356 900 l 350 975 b 32 754 279 828 110 754 b 71 296 86 678 71 576 b 363 -21 71 85 213 -11 l 335 -97 b 365 -93 346 -94 356 -93 b 447 -199 411 -93 447 -139 b 379 -321 447 -286 411 -321 b 331 -262 354 -321 331 -299 b 365 -224 331 -243 343 -224 b 386 -233 379 -224 386 -228 b 371 -240 386 -237 381 -240 b 353 -253 357 -240 353 -247 b 365 -264 353 -258 357 -264 b 392 -233 381 -264 392 -250 b 335 -190 392 -212 376 -190 b 267 -258 292 -190 267 -222 b 392 -347 267 -300 304 -347 b 582 -199 481 -347 582 -303 b 432 -60 582 -119 531 -60 b 382 -64 417 -60 400 -61 l 397 -21 b 714 224 610 -15 714 118 z "},"ț":{"ha":742,"x_min":null,"x_max":null,"o":"m 385 -21 b 714 224 606 -21 714 117 b 586 344 714 290 671 344 b 449 228 517 344 449 301 b 510 157 449 190 476 157 b 539 185 532 157 539 171 b 500 210 539 196 532 210 b 463 231 475 210 463 221 b 510 254 463 242 478 254 b 572 172 553 254 572 217 b 472 36 572 111 533 36 b 336 361 361 36 336 167 b 349 713 336 464 343 585 l 401 713 b 535 615 500 713 535 668 b 468 542 535 563 499 542 b 421 575 443 542 421 554 b 458 594 421 585 433 594 b 500 622 490 594 500 608 b 469 650 500 636 490 650 b 407 576 435 650 407 615 b 533 467 407 503 468 467 b 692 608 610 467 692 515 b 510 754 692 682 642 754 l 350 754 b 356 975 353 826 356 900 l 350 975 b 32 754 279 828 110 754 b 71 296 86 678 71 576 b 385 -21 71 74 226 -21 z m 196 -362 b 364 -318 264 -362 321 -349 b 478 -90 421 -276 478 -204 l 282 -90 b 296 -206 290 -129 296 -169 b 196 -349 296 -285 271 -350 z "},"u":{"ha":869,"x_min":null,"x_max":null,"o":"m 540 754 b 561 378 554 629 561 503 b 560 285 561 347 561 315 b 425 82 538 163 472 82 b 313 417 358 82 313 221 b 331 754 313 522 321 640 l 46 754 b 74 265 74 592 74 428 b 306 -17 74 35 185 -17 b 553 147 397 -17 493 38 b 540 0 550 99 546 50 l 825 0 b 804 378 811 126 804 251 b 825 754 804 503 811 629 z "},"ú":{"ha":869,"x_min":null,"x_max":null,"o":"m 413 1049 l 344 831 l 386 831 l 686 1049 z m 540 754 b 561 378 554 629 561 503 b 560 285 561 347 561 315 b 425 82 538 163 472 82 b 313 417 358 82 313 221 b 331 754 313 522 321 640 l 46 754 b 74 265 74 592 74 428 b 306 -17 74 35 185 -17 b 553 147 397 -17 493 38 b 540 0 550 99 546 50 l 825 0 b 804 378 811 126 804 251 b 825 754 804 503 811 629 z "},"û":{"ha":869,"x_min":null,"x_max":null,"o":"m 604 849 l 638 849 l 531 1074 l 326 1074 l 231 849 l 264 849 l 431 989 z m 540 754 b 561 378 554 629 561 503 b 560 285 561 347 561 315 b 425 82 538 163 472 82 b 313 417 358 82 313 221 b 331 754 313 522 321 640 l 46 754 b 74 265 74 592 74 428 b 306 -17 74 35 185 -17 b 553 147 397 -17 493 38 b 540 0 550 99 546 50 l 825 0 b 804 378 811 126 804 251 b 825 754 804 503 811 629 z "},"ü":{"ha":869,"x_min":null,"x_max":null,"o":"m 307 835 b 413 933 358 835 413 868 b 307 1033 413 1000 358 1033 b 203 933 254 1033 203 1000 b 307 835 203 868 254 835 z m 565 835 b 668 933 615 835 668 868 b 565 1033 668 1000 615 1033 b 458 933 511 1033 458 1000 b 565 835 458 868 511 835 z m 540 754 b 561 378 554 629 561 503 b 560 285 561 347 561 315 b 425 82 538 163 472 82 b 313 417 358 82 313 221 b 331 754 313 522 321 640 l 46 754 b 74 265 74 592 74 428 b 306 -17 74 35 185 -17 b 553 147 397 -17 493 38 b 540 0 550 99 546 50 l 825 0 b 804 378 811 126 804 251 b 825 754 804 503 811 629 z "},"ù":{"ha":869,"x_min":null,"x_max":null,"o":"m 453 1049 l 179 1049 l 478 831 l 521 831 z m 540 754 b 561 378 554 629 561 503 b 560 285 561 347 561 315 b 425 82 538 163 472 82 b 313 417 358 82 313 221 b 331 754 313 522 321 640 l 46 754 b 74 265 74 592 74 428 b 306 -17 74 35 185 -17 b 553 147 397 -17 493 38 b 540 0 550 99 546 50 l 825 0 b 804 378 811 126 804 251 b 825 754 804 503 811 629 z "},"ű":{"ha":869,"x_min":null,"x_max":null,"o":"m 181 1049 l 140 831 l 182 831 l 454 1049 z m 757 1049 l 483 1049 l 415 831 l 457 831 z m 540 754 b 561 378 554 629 561 503 b 560 285 561 347 561 315 b 425 82 538 163 472 82 b 313 417 358 82 313 221 b 331 754 313 522 321 640 l 46 754 b 74 265 74 592 74 428 b 306 -17 74 35 185 -17 b 553 147 397 -17 493 38 b 540 0 550 99 546 50 l 825 0 b 804 378 811 126 804 251 b 825 754 804 503 811 629 z "},"ū":{"ha":869,"x_min":null,"x_max":null,"o":"m 218 910 l 218 858 l 653 858 l 653 910 z m 540 754 b 561 378 554 629 561 503 b 560 285 561 347 561 315 b 425 82 538 163 472 82 b 313 417 358 82 313 221 b 331 754 313 522 321 640 l 46 754 b 74 265 74 592 74 428 b 306 -17 74 35 185 -17 b 553 147 397 -17 493 38 b 540 0 550 99 546 50 l 825 0 b 804 378 811 126 804 251 b 825 754 804 503 811 629 z "},"ų":{"ha":869,"x_min":null,"x_max":null,"o":"m 804 -139 b 776 -162 785 -139 776 -150 b 813 -186 776 -175 785 -186 b 846 -204 835 -186 846 -196 b 804 -224 846 -214 832 -224 b 724 -132 751 -224 724 -181 b 822 0 724 -81 756 -21 l 825 0 b 804 378 811 126 804 251 b 825 754 804 503 811 629 l 540 754 b 561 378 554 629 561 503 b 560 285 561 347 561 315 b 425 82 538 163 472 82 b 313 417 358 82 313 221 b 331 754 313 522 321 640 l 46 754 b 74 265 74 592 74 428 b 306 -17 74 35 185 -17 b 553 147 397 -17 493 38 b 540 0 550 99 546 50 l 776 0 b 599 -183 661 -25 599 -111 b 739 -297 599 -244 643 -297 b 858 -203 800 -297 858 -262 b 804 -139 858 -168 833 -139 z "},"ů":{"ha":869,"x_min":null,"x_max":null,"o":"m 435 771 b 526 881 489 771 526 821 b 435 990 526 940 489 990 b 343 881 382 990 343 940 b 435 771 343 821 382 771 z m 435 932 b 478 879 463 932 478 907 b 435 829 478 854 463 829 b 390 879 408 829 390 854 b 435 932 390 907 408 932 z m 540 754 b 561 378 554 629 561 503 b 560 285 561 347 561 315 b 425 82 538 163 472 82 b 313 417 358 82 313 221 b 331 754 313 522 321 640 l 46 754 b 74 265 74 592 74 428 b 306 -17 74 35 185 -17 b 553 147 397 -17 493 38 b 540 0 550 99 546 50 l 825 0 b 804 378 811 126 804 251 b 825 754 804 503 811 629 z "},"v":{"ha":750,"x_min":null,"x_max":null,"o":"m 471 0 b 728 754 529 251 614 503 l 576 754 b 522 354 619 669 554 447 l 482 238 b 307 754 389 421 344 571 l 22 754 b 292 0 140 503 229 251 z "},"w":{"ha":1050,"x_min":null,"x_max":null,"o":"m 390 0 b 538 494 407 165 465 329 b 649 0 607 329 635 165 l 826 0 b 1042 754 871 251 942 503 l 888 754 b 882 413 926 672 919 529 l 849 307 b 743 754 781 464 756 597 l 551 754 b 414 329 533 613 488 471 b 307 754 350 471 315 613 l 22 754 b 211 0 113 503 176 251 z "},"ẃ":{"ha":1050,"x_min":null,"x_max":null,"o":"m 533 831 l 833 1049 l 560 1049 l 492 831 z m 390 0 b 538 494 407 165 465 329 b 649 0 607 329 635 165 l 826 0 b 1042 754 871 251 942 503 l 888 754 b 882 413 926 672 919 529 l 849 307 b 743 754 781 464 756 597 l 551 754 b 414 329 533 613 488 471 b 307 754 350 471 315 613 l 22 754 b 211 0 113 503 176 251 z "},"ŵ":{"ha":1050,"x_min":null,"x_max":null,"o":"m 411 849 l 578 989 l 751 849 l 785 849 l 678 1074 l 474 1074 l 378 849 z m 390 0 b 538 494 407 165 465 329 b 649 0 607 329 635 165 l 826 0 b 1042 754 871 251 942 503 l 888 754 b 882 413 926 672 919 529 l 849 307 b 743 754 781 464 756 597 l 551 754 b 414 329 533 613 488 471 b 307 754 350 471 315 613 l 22 754 b 211 0 113 503 176 251 z "},"ẅ":{"ha":1050,"x_min":null,"x_max":null,"o":"m 454 835 b 560 933 506 835 560 868 b 454 1033 560 1000 506 1033 b 350 933 401 1033 350 1000 b 454 835 350 868 401 835 z m 713 835 b 815 933 763 835 815 868 b 713 1033 815 1000 763 1033 b 606 933 658 1033 606 1000 b 713 835 606 868 658 835 z m 390 0 b 538 494 407 165 465 329 b 649 0 607 329 635 165 l 826 0 b 1042 754 871 251 942 503 l 888 754 b 882 413 926 672 919 529 l 849 307 b 743 754 781 464 756 597 l 551 754 b 414 329 533 613 488 471 b 307 754 350 471 315 613 l 22 754 b 211 0 113 503 176 251 z "},"ẁ":{"ha":1050,"x_min":null,"x_max":null,"o":"m 668 831 l 600 1049 l 326 1049 l 625 831 z m 390 0 b 538 494 407 165 465 329 b 649 0 607 329 635 165 l 826 0 b 1042 754 871 251 942 503 l 888 754 b 882 413 926 672 919 529 l 849 307 b 743 754 781 464 756 597 l 551 754 b 414 329 533 613 488 471 b 307 754 350 471 315 613 l 22 754 b 211 0 113 503 176 251 z "},"x":{"ha":856,"x_min":null,"x_max":null,"o":"m 193 0 b 357 300 193 69 281 231 b 536 0 421 200 481 100 l 832 0 b 519 440 717 150 615 290 b 824 754 610 542 703 653 l 642 754 b 499 472 642 671 571 543 b 331 754 439 567 382 660 l 35 754 b 331 335 146 611 238 478 b 13 0 235 226 140 108 z "},"y":{"ha":846,"x_min":null,"x_max":null,"o":"m 240 -325 b 626 -12 393 -325 569 -232 l 824 754 l 643 754 b 597 42 708 550 664 301 b 335 754 479 260 383 521 l 17 754 b 372 -174 163 483 372 43 b 281 -294 372 -250 335 -294 b 172 -167 224 -294 174 -249 b 260 -65 171 -115 203 -65 b 308 -89 293 -65 308 -78 b 271 -108 308 -99 296 -108 b 229 -136 239 -108 229 -122 b 260 -164 229 -150 239 -164 b 322 -90 294 -164 322 -129 b 183 13 322 -42 286 13 b -4 -137 94 13 -4 -40 b 240 -325 -4 -256 108 -325 z "},"ý":{"ha":846,"x_min":null,"x_max":null,"o":"m 388 831 l 688 1049 l 414 1049 l 346 831 z m 240 -325 b 626 -12 393 -325 569 -232 l 824 754 l 643 754 b 597 42 708 550 664 301 b 335 754 479 260 383 521 l 17 754 b 372 -174 163 483 372 43 b 281 -294 372 -250 335 -294 b 172 -167 224 -294 174 -249 b 260 -65 171 -115 203 -65 b 308 -89 293 -65 308 -78 b 271 -108 308 -99 296 -108 b 229 -136 239 -108 229 -122 b 260 -164 229 -150 239 -164 b 322 -90 294 -164 322 -129 b 183 13 322 -42 286 13 b -4 -137 94 13 -4 -40 b 240 -325 -4 -256 108 -325 z "},"ŷ":{"ha":846,"x_min":null,"x_max":null,"o":"m 265 849 l 432 989 l 606 849 l 639 849 l 532 1074 l 328 1074 l 232 849 z m 240 -325 b 626 -12 393 -325 569 -232 l 824 754 l 643 754 b 597 42 708 550 664 301 b 335 754 479 260 383 521 l 17 754 b 372 -174 163 483 372 43 b 281 -294 372 -250 335 -294 b 172 -167 224 -294 174 -249 b 260 -65 171 -115 203 -65 b 308 -89 293 -65 308 -78 b 271 -108 308 -99 296 -108 b 229 -136 239 -108 229 -122 b 260 -164 229 -150 239 -164 b 322 -90 294 -164 322 -129 b 183 13 322 -42 286 13 b -4 -137 94 13 -4 -40 b 240 -325 -4 -256 108 -325 z "},"ÿ":{"ha":846,"x_min":null,"x_max":null,"o":"m 308 835 b 414 933 360 835 414 868 b 308 1033 414 1000 360 1033 b 204 933 256 1033 204 1000 b 308 835 204 868 256 835 z m 567 835 b 669 933 617 835 669 868 b 567 1033 669 1000 617 1033 b 460 933 513 1033 460 1000 b 567 835 460 868 513 835 z m 240 -325 b 626 -12 393 -325 569 -232 l 824 754 l 643 754 b 597 42 708 550 664 301 b 335 754 479 260 383 521 l 17 754 b 372 -174 163 483 372 43 b 281 -294 372 -250 335 -294 b 172 -167 224 -294 174 -249 b 260 -65 171 -115 203 -65 b 308 -89 293 -65 308 -78 b 271 -108 308 -99 296 -108 b 229 -136 239 -108 229 -122 b 260 -164 229 -150 239 -164 b 322 -90 294 -164 322 -129 b 183 13 322 -42 286 13 b -4 -137 94 13 -4 -40 b 240 -325 -4 -256 108 -325 z "},"ỳ":{"ha":846,"x_min":null,"x_max":null,"o":"m 522 831 l 454 1049 l 181 1049 l 479 831 z m 240 -325 b 626 -12 393 -325 569 -232 l 824 754 l 643 754 b 597 42 708 550 664 301 b 335 754 479 260 383 521 l 17 754 b 372 -174 163 483 372 43 b 281 -294 372 -250 335 -294 b 172 -167 224 -294 174 -249 b 260 -65 171 -115 203 -65 b 308 -89 293 -65 308 -78 b 271 -108 308 -99 296 -108 b 229 -136 239 -108 229 -122 b 260 -164 229 -150 239 -164 b 322 -90 294 -164 322 -129 b 183 13 322 -42 286 13 b -4 -137 94 13 -4 -40 b 240 -325 -4 -256 108 -325 z "},"z":{"ha":767,"x_min":null,"x_max":null,"o":"m 547 -21 b 792 165 667 -21 792 33 b 618 301 792 263 707 301 b 479 199 515 301 479 247 b 542 125 479 160 507 125 b 572 153 563 125 572 139 b 531 181 572 167 563 181 b 493 200 506 181 493 190 b 542 224 493 211 508 224 b 629 122 599 224 629 174 b 336 36 629 11 481 18 b 715 754 374 246 715 507 l 703 754 b 358 767 629 719 472 763 b 22 593 125 774 22 701 b 210 443 22 496 121 443 b 349 546 313 443 349 497 b 286 619 349 585 321 619 b 256 592 265 619 256 606 b 297 564 256 578 265 564 b 335 544 322 564 335 554 b 286 521 335 533 319 521 b 199 622 229 521 199 571 b 451 724 199 735 325 742 b 35 0 436 388 35 178 b 547 -21 197 21 389 -21 z "},"ź":{"ha":767,"x_min":null,"x_max":null,"o":"m 331 831 l 631 1049 l 357 1049 l 289 831 z m 547 -21 b 792 165 667 -21 792 33 b 618 301 792 263 707 301 b 479 199 515 301 479 247 b 542 125 479 160 507 125 b 572 153 563 125 572 139 b 531 181 572 167 563 181 b 493 200 506 181 493 190 b 542 224 493 211 508 224 b 629 122 599 224 629 174 b 336 36 629 11 481 18 b 715 754 374 246 715 507 l 703 754 b 358 767 629 719 472 763 b 22 593 125 774 22 701 b 210 443 22 496 121 443 b 349 546 313 443 349 497 b 286 619 349 585 321 619 b 256 592 265 619 256 606 b 297 564 256 578 265 564 b 335 544 322 564 335 554 b 286 521 335 533 319 521 b 199 622 229 521 199 571 b 451 724 199 735 325 742 b 35 0 436 388 35 178 b 547 -21 197 21 389 -21 z "},"ž":{"ha":767,"x_min":null,"x_max":null,"o":"m 475 815 l 582 1040 l 549 1040 l 375 900 l 208 1040 l 175 1040 l 271 815 z m 547 -21 b 792 165 667 -21 792 33 b 618 301 792 263 707 301 b 479 199 515 301 479 247 b 542 125 479 160 507 125 b 572 153 563 125 572 139 b 531 181 572 167 563 181 b 493 200 506 181 493 190 b 542 224 493 211 508 224 b 629 122 599 224 629 174 b 336 36 629 11 481 18 b 715 754 374 246 715 507 l 703 754 b 358 767 629 719 472 763 b 22 593 125 774 22 701 b 210 443 22 496 121 443 b 349 546 313 443 349 497 b 286 619 349 585 321 619 b 256 592 265 619 256 606 b 297 564 256 578 265 564 b 335 544 322 564 335 554 b 286 521 335 533 319 521 b 199 622 229 521 199 571 b 451 724 199 735 325 742 b 35 0 436 388 35 178 b 547 -21 197 21 389 -21 z "},"ż":{"ha":767,"x_min":null,"x_max":null,"o":"m 378 815 b 522 964 475 815 522 889 b 378 1111 522 1038 475 1111 b 236 964 283 1111 236 1038 b 378 815 236 889 283 815 z m 547 -21 b 792 165 667 -21 792 33 b 618 301 792 263 707 301 b 479 199 515 301 479 247 b 542 125 479 160 507 125 b 572 153 563 125 572 139 b 531 181 572 167 563 181 b 493 200 506 181 493 190 b 542 224 493 211 508 224 b 629 122 599 224 629 174 b 336 36 629 11 481 18 b 715 754 374 246 715 507 l 703 754 b 358 767 629 719 472 763 b 22 593 125 774 22 701 b 210 443 22 496 121 443 b 349 546 313 443 349 497 b 286 619 349 585 321 619 b 256 592 265 619 256 606 b 297 564 256 578 265 564 b 335 544 322 564 335 554 b 286 521 335 533 319 521 b 199 622 229 521 199 571 b 451 724 199 735 325 742 b 35 0 436 388 35 178 b 547 -21 197 21 389 -21 z "},"":{"ha":868,"x_min":null,"x_max":null,"o":"m 618 410 b 414 240 514 410 414 347 b 476 167 414 201 442 167 b 507 194 497 167 507 181 b 465 222 507 208 497 222 b 428 242 440 222 428 232 b 486 283 428 268 451 283 b 654 68 599 283 654 172 b 524 -114 654 -25 611 -114 b 293 394 421 -114 293 49 b 303 525 293 440 296 485 l 299 488 l 826 488 b 460 767 826 668 649 767 b 19 324 163 767 19 547 b 476 -149 19 90 175 -149 b 853 158 717 -149 853 14 b 618 410 853 335 733 410 z m 457 731 b 575 547 518 731 575 657 l 304 533 b 457 731 325 647 374 731 z "},"":{"ha":390,"x_min":null,"x_max":null,"o":"m 508 -551 b 774 -286 688 -551 774 -417 b 546 -42 774 -162 696 -42 b 378 -196 461 -42 378 -99 b 410 -242 378 -226 393 -242 b 440 -211 426 -242 440 -229 b 426 -133 440 -179 426 -169 b 472 -99 426 -111 449 -99 b 586 -212 546 -99 586 -153 b 404 -442 586 -336 499 -442 b 247 -201 285 -442 247 -346 b 379 829 247 68 379 507 b 150 1064 379 990 272 1064 b 25 1039 108 1064 65 1056 b 100 746 82 968 100 864 b 42 72 100 535 42 331 b 508 -551 42 -229 272 -551 z "},"":{"ha":376,"x_min":null,"x_max":null,"o":"m 268 -300 b 390 -279 304 -300 344 -293 b 292 38 315 -222 292 -106 b 357 813 292 275 357 586 b -1 1240 357 1056 286 1240 b -244 1003 -129 1240 -244 1156 b -44 789 -244 894 -176 789 b 103 924 29 789 103 839 b 75 964 103 950 89 964 b 49 938 60 964 49 953 b 60 868 49 908 60 900 b 19 839 60 849 40 839 b -72 968 -42 839 -72 899 b 47 1192 -72 1117 -11 1192 b 161 986 132 1189 161 1108 b 51 24 161 710 51 304 b 268 -300 51 -167 101 -300 z "},"ª":{"ha":549,"x_min":null,"x_max":null,"o":"m 485 676 b 490 813 485 724 490 776 b 254 1006 490 947 361 1006 b 113 914 154 1006 113 958 b 210 835 113 860 163 835 b 292 894 251 835 292 856 b 257 936 292 917 276 936 b 240 921 246 936 240 928 b 264 904 240 913 246 904 b 285 893 278 904 285 899 b 257 881 285 888 276 881 b 208 929 224 881 208 904 b 260 982 208 965 232 982 b 358 821 304 982 358 939 l 358 801 b 246 818 324 813 283 818 b 46 692 144 818 46 779 b 188 561 46 607 113 561 b 338 631 240 561 296 583 b 436 561 346 583 385 561 b 503 572 456 561 479 565 b 485 676 489 596 485 635 z m 260 613 b 203 686 229 613 203 638 b 299 793 203 749 242 793 b 357 779 317 793 336 789 b 260 613 349 693 317 613 z "},"º":{"ha":551,"x_min":null,"x_max":null,"o":"m 276 561 b 506 782 410 561 506 642 b 275 1006 506 924 410 1006 b 46 782 142 1006 46 924 b 276 561 46 642 142 561 z m 306 583 b 192 857 238 583 192 740 b 244 982 192 926 208 982 b 357 708 313 982 357 825 b 306 583 357 639 342 583 z "},"¹":{"ha":271,"x_min":null,"x_max":null,"o":"m 243 414 b 231 710 235 510 231 610 b 243 1004 231 810 235 908 l 238 1004 b 26 910 185 954 99 910 b 92 678 72 868 92 800 b 76 414 92 610 86 522 z "},"²":{"ha":532,"x_min":null,"x_max":null,"o":"m 485 422 l 485 589 b 314 568 444 572 378 568 l 138 568 b 486 872 178 650 486 714 b 278 1013 486 967 383 1013 b 60 868 171 1013 60 964 b 169 769 60 799 115 769 b 268 840 219 769 268 794 b 232 883 268 863 253 883 b 214 867 219 883 214 875 b 239 850 214 858 219 850 b 261 839 253 850 261 844 b 232 825 261 832 251 825 b 179 899 199 825 179 860 b 267 994 179 943 207 994 b 346 908 308 994 346 967 b 46 422 346 728 46 603 z "},"³":{"ha":564,"x_min":null,"x_max":null,"o":"m 272 408 b 518 613 392 408 518 479 b 386 769 518 711 457 749 b 488 896 444 793 488 839 b 274 1015 488 974 379 1015 b 63 888 167 1015 63 974 b 172 800 63 831 119 800 b 254 860 233 800 254 832 b 217 904 254 883 238 904 b 199 888 206 904 199 896 b 224 871 199 879 206 871 b 246 860 239 871 246 865 b 217 846 246 853 236 846 b 165 922 185 846 165 892 b 242 992 165 965 203 992 b 328 894 285 992 328 961 b 174 767 328 811 268 767 l 174 753 b 349 582 258 753 349 703 b 246 428 349 476 296 428 b 158 539 201 428 158 467 b 225 631 158 586 181 631 b 254 617 244 631 254 622 b 232 604 254 610 247 604 b 207 589 213 604 207 596 b 225 572 207 581 213 572 b 263 615 246 572 263 593 b 168 690 263 663 217 690 b 46 565 110 690 46 651 b 272 408 46 492 114 408 z "},"⁄":{"ha":618,"x_min":null,"x_max":null,"o":"m 85 -1 l 572 976 l 533 976 l 46 -1 z "},"½":{"ha":981,"x_min":null,"x_max":null,"o":"m 263 414 b 250 710 254 510 250 610 b 263 1004 250 810 254 908 l 257 1004 b 46 910 204 954 118 910 b 111 678 92 868 111 800 b 96 414 111 610 106 522 z m 189 -1 l 678 976 l 638 976 l 150 -1 z m 933 0 l 933 167 b 763 146 893 150 826 146 l 586 146 b 935 450 626 228 935 292 b 726 590 935 544 832 590 b 508 446 619 590 508 542 b 618 347 508 376 564 347 b 717 418 668 347 717 372 b 681 461 717 440 701 461 b 663 444 668 461 663 453 b 688 428 663 436 668 428 b 710 417 701 428 710 422 b 681 403 710 410 700 403 b 628 476 647 403 628 438 b 715 572 628 521 656 572 b 794 486 757 572 794 544 b 494 0 794 306 494 181 z "},"¼":{"ha":922,"x_min":null,"x_max":null,"o":"m 263 414 b 250 710 254 510 250 610 b 263 1004 250 810 254 908 l 257 1004 b 46 910 204 954 118 910 b 111 678 92 868 111 800 b 96 414 111 610 106 522 z m 189 -1 l 678 976 l 638 976 l 150 -1 z m 858 0 b 850 142 856 47 851 94 l 876 142 l 876 167 l 849 167 b 858 574 844 303 847 438 l 692 574 l 390 163 l 390 142 l 701 142 b 692 0 699 94 696 47 z m 571 167 b 692 540 571 317 613 424 b 703 167 703 415 706 292 z "},"¾":{"ha":1018,"x_min":null,"x_max":null,"o":"m 257 442 b 486 632 369 442 486 508 b 364 778 486 724 429 760 b 458 897 418 801 458 843 b 258 1008 458 969 358 1008 b 61 890 160 1008 61 969 b 164 807 61 836 115 807 b 240 864 221 807 240 838 b 206 904 240 885 225 904 b 189 889 194 904 189 897 b 211 874 189 882 194 874 b 232 863 225 874 232 868 b 206 850 232 857 224 850 b 157 921 175 850 157 893 b 229 986 157 963 192 986 b 310 894 268 986 310 958 b 164 776 310 818 253 776 l 164 764 b 329 603 244 764 329 717 b 232 458 329 504 279 458 b 150 564 190 458 150 496 b 214 649 150 607 171 649 b 240 635 232 649 240 642 b 219 625 240 631 233 625 b 196 610 201 625 196 617 b 214 594 196 601 201 594 b 247 635 232 594 247 613 b 160 704 247 679 206 704 b 46 588 106 704 46 669 b 257 442 46 519 110 442 z m 331 0 l 818 976 l 779 976 l 292 0 z m 956 0 b 947 132 953 44 949 88 l 972 132 l 972 154 l 947 154 b 956 532 943 281 946 406 l 801 532 l 522 150 l 522 132 l 810 132 b 801 0 808 88 804 44 z m 689 154 b 801 501 689 293 728 393 b 811 154 811 386 814 271 z "},".":{"ha":333,"x_min":null,"x_max":null,"o":"m 167 -21 b 288 99 228 -21 288 19 b 167 221 288 181 226 221 b 46 100 106 221 46 181 b 167 -21 46 19 107 -21 z "},",":{"ha":349,"x_min":null,"x_max":null,"o":"m 46 -212 b 214 -168 114 -212 171 -199 b 303 60 271 -126 303 -54 l 132 60 b 146 -56 140 21 146 -19 b 46 -199 146 -135 121 -200 z "},":":{"ha":333,"x_min":null,"x_max":null,"o":"m 167 525 b 288 644 228 525 288 565 b 167 767 288 726 226 767 b 46 646 106 767 46 726 b 167 525 46 565 107 525 z m 167 -21 b 288 99 228 -21 288 19 b 167 221 288 181 226 221 b 46 100 106 221 46 181 b 167 -21 46 19 107 -21 z "},";":{"ha":397,"x_min":null,"x_max":null,"o":"m 231 525 b 351 644 292 525 351 565 b 231 767 351 726 290 767 b 110 646 169 767 110 726 b 231 525 110 565 171 525 z m 46 -212 b 214 -168 114 -212 171 -199 b 303 60 271 -126 303 -54 l 132 60 b 146 -56 140 21 146 -19 b 46 -199 146 -135 121 -200 z "},"…":{"ha":924,"x_min":null,"x_max":null,"o":"m 167 -21 b 288 99 228 -21 288 19 b 167 221 288 181 226 221 b 46 100 106 221 46 181 b 167 -21 46 19 107 -21 z m 460 -21 b 581 99 521 -21 581 19 b 460 221 581 181 519 221 b 339 100 399 221 339 181 b 460 -21 339 19 400 -21 z m 757 -21 b 878 99 818 -21 878 19 b 757 221 878 181 817 221 b 636 100 696 221 636 181 b 757 -21 636 19 697 -21 z "},"!":{"ha":376,"x_min":null,"x_max":null,"o":"m 213 329 b 331 861 213 464 331 735 b 189 1003 331 956 260 1003 b 46 861 117 1003 46 956 b 167 329 46 735 167 464 z m 188 -21 b 308 99 249 -21 308 19 b 188 221 308 181 247 221 b 67 100 126 221 67 181 b 188 -21 67 19 128 -21 z "},"¡":{"ha":376,"x_min":null,"x_max":null,"o":"m 189 574 b 310 693 250 574 310 614 b 189 815 310 775 249 815 b 68 694 128 815 68 775 b 189 574 68 614 129 574 z m 331 -182 b 213 436 319 -36 213 301 l 167 436 b 46 -182 167 301 57 -36 z "},"?":{"ha":751,"x_min":null,"x_max":null,"o":"m 313 344 b 706 772 313 528 706 571 b 349 1004 706 929 522 1004 b 46 815 193 1004 46 944 b 233 665 46 718 144 665 b 372 768 336 665 372 719 b 310 842 372 807 344 842 b 279 814 289 842 279 828 b 321 786 279 800 289 786 b 358 767 346 786 358 776 b 310 743 358 756 343 743 b 222 842 254 743 222 792 b 353 974 222 922 288 974 b 472 826 414 974 472 929 b 268 344 472 621 268 519 z m 319 -21 b 440 99 381 -21 440 19 b 319 221 440 181 379 221 b 199 100 258 221 199 181 b 319 -21 199 19 260 -21 z "},"¿":{"ha":751,"x_min":null,"x_max":null,"o":"m 432 513 b 553 633 493 513 553 553 b 432 754 553 714 492 754 b 311 635 371 754 311 714 b 432 513 311 553 372 513 z m 403 -271 b 706 -82 558 -271 706 -211 b 518 68 706 15 607 68 b 379 -35 415 68 379 14 b 442 -108 379 -74 407 -108 b 472 -81 463 -108 472 -94 b 431 -53 472 -67 463 -53 b 393 -33 406 -53 393 -43 b 442 -10 393 -22 408 -10 b 529 -108 497 -10 529 -58 b 399 -240 529 -189 464 -240 b 279 -93 338 -240 279 -196 b 483 389 279 113 483 214 l 439 389 b 46 -39 439 206 46 163 b 403 -271 46 -196 229 -271 z "},"·":{"ha":333,"x_min":null,"x_max":null,"o":"m 167 296 b 288 415 228 296 288 336 b 167 538 288 497 226 538 b 46 417 106 538 46 497 b 167 296 46 336 107 296 z "},"•":{"ha":419,"x_min":null,"x_max":null,"o":"m 210 253 b 374 415 293 253 374 308 b 210 581 374 525 290 581 b 46 417 126 581 46 525 b 210 253 46 308 129 253 z "},"*":{"ha":450,"x_min":null,"x_max":null,"o":"m 224 597 b 261 643 242 597 261 613 b 232 793 261 686 232 728 b 343 690 289 760 307 711 b 400 700 368 675 390 685 b 381 754 410 717 406 739 b 236 801 343 776 293 768 b 381 847 293 835 343 826 b 400 903 406 863 408 888 b 343 913 390 919 368 928 b 232 810 307 890 289 843 b 261 958 232 876 261 915 b 225 1004 261 989 243 1004 b 188 958 207 1004 188 989 b 219 810 188 915 219 876 b 108 913 163 843 144 890 b 50 903 82 928 60 919 b 71 847 42 888 44 863 b 215 801 108 826 157 835 b 71 754 157 768 108 776 b 50 700 44 739 42 717 b 108 690 60 685 82 675 b 218 793 144 711 163 760 b 186 643 218 725 186 686 b 224 597 186 613 204 597 z "},"#":{"ha":751,"x_min":null,"x_max":null,"o":"m 194 0 l 286 390 l 422 390 l 332 0 l 365 0 l 457 390 l 663 390 l 663 432 l 467 432 l 490 529 l 706 529 l 706 571 l 499 571 l 593 975 l 560 975 l 465 571 l 328 571 l 422 975 l 389 975 l 294 571 l 88 571 l 88 529 l 285 529 l 263 432 l 46 432 l 46 390 l 251 390 l 161 0 z m 319 529 l 456 529 l 433 432 l 296 432 z "},"/":{"ha":428,"x_min":null,"x_max":null,"o":"m 86 -196 l 382 1068 l 340 1068 l 46 -196 z "},"\\":{"ha":421,"x_min":null,"x_max":null,"o":"m 375 -196 l 79 1069 l 46 1069 l 340 -196 z "},"(":{"ha":636,"x_min":null,"x_max":null,"o":"m 590 -129 b 331 464 419 -129 331 149 b 581 1019 331 751 417 1019 l 581 1061 b 46 464 149 1061 46 757 b 590 -171 46 140 150 -171 z "},")":{"ha":636,"x_min":null,"x_max":null,"o":"m 46 -171 b 590 451 485 -171 590 140 b 54 1061 590 757 488 1061 l 54 1019 b 306 451 218 1019 306 751 b 46 -129 306 149 217 -129 z "},"{":{"ha":710,"x_min":null,"x_max":null,"o":"m 467 -203 b 664 -78 575 -203 664 -153 b 554 10 664 -21 606 10 b 472 -50 493 10 472 -22 b 510 -93 472 -74 489 -93 b 526 -76 521 -93 526 -85 b 503 -61 526 -69 521 -61 b 481 -50 488 -61 481 -56 b 510 -36 481 -43 490 -36 b 560 -94 543 -36 561 -65 b 497 -158 560 -143 531 -158 b 364 299 344 -158 364 21 b 278 442 364 381 329 422 b 364 585 329 461 364 503 b 497 1042 364 863 344 1042 b 560 978 531 1042 560 1026 b 510 919 561 949 543 919 b 481 933 490 919 481 926 b 503 944 481 939 488 944 b 526 960 521 944 526 953 b 510 976 526 968 521 976 b 472 933 489 976 472 957 b 554 874 472 906 493 874 b 664 961 606 874 664 904 b 472 1085 664 1039 578 1085 b 79 654 303 1085 79 964 b 46 444 79 575 72 457 b 79 243 72 432 79 322 b 467 -203 79 -82 297 -203 z "},"}":{"ha":710,"x_min":null,"x_max":null,"o":"m 243 -203 b 631 243 413 -203 631 -82 b 664 444 631 322 638 432 b 631 654 638 457 631 575 b 238 1085 631 964 407 1085 b 46 961 132 1085 46 1039 b 156 874 46 904 104 874 b 238 933 217 874 238 906 b 200 976 238 957 221 976 b 183 960 189 976 183 968 b 207 944 183 953 189 944 b 229 933 222 944 229 939 b 200 919 229 926 219 919 b 150 978 167 919 149 949 b 213 1042 150 1026 179 1042 b 346 585 365 1042 346 863 b 432 442 346 503 381 461 b 346 299 381 422 346 381 b 213 -158 346 21 365 -158 b 150 -94 179 -158 150 -143 b 200 -36 149 -65 167 -36 b 229 -50 219 -36 229 -43 b 207 -61 229 -56 222 -61 b 183 -76 189 -61 183 -69 b 200 -93 183 -85 189 -93 b 238 -50 221 -93 238 -74 b 156 10 238 -22 217 10 b 46 -78 104 10 46 -21 b 243 -203 46 -153 135 -203 z "},"[":{"ha":497,"x_min":null,"x_max":null,"o":"m 451 -196 l 451 -140 l 331 -140 l 331 1014 l 451 1014 l 451 1069 l 46 1069 l 46 -196 z "},"]":{"ha":497,"x_min":null,"x_max":null,"o":"m 451 -196 l 451 1069 l 46 1069 l 46 1014 l 167 1014 l 167 -140 l 46 -140 l 46 -196 z "},"-":{"ha":456,"x_min":null,"x_max":null,"o":"m 410 404 l 410 446 l 46 446 l 46 404 z "},"­":{"ha":456,"x_min":null,"x_max":null,"o":"m 410 404 l 410 446 l 46 446 l 46 404 z "},"–":{"ha":721,"x_min":null,"x_max":null,"o":"m 675 404 l 675 446 l 46 446 l 46 404 z "},"—":{"ha":843,"x_min":null,"x_max":null,"o":"m 797 404 l 797 446 l 46 446 l 46 404 z "},"_":{"ha":721,"x_min":null,"x_max":null,"o":"m 675 -50 l 675 -8 l 46 -8 l 46 -50 z "},"‚":{"ha":272,"x_min":null,"x_max":null,"o":"m 92 -237 l 226 60 l 46 60 l 46 -237 z "},"„":{"ha":478,"x_min":null,"x_max":null,"o":"m 92 -237 l 226 60 l 46 60 l 46 -237 z m 296 -237 l 432 60 l 250 60 l 250 -237 z "},"“":{"ha":478,"x_min":null,"x_max":null,"o":"m 226 678 l 226 975 l 181 975 l 46 678 z m 432 678 l 432 975 l 386 975 l 250 678 z "},"”":{"ha":478,"x_min":null,"x_max":null,"o":"m 92 704 l 226 1001 l 46 1001 l 46 704 z m 296 704 l 432 1001 l 250 1001 l 250 704 z "},"‘":{"ha":272,"x_min":null,"x_max":null,"o":"m 226 707 l 226 1004 l 181 1004 l 46 707 z "},"’":{"ha":272,"x_min":null,"x_max":null,"o":"m 92 704 l 226 1001 l 46 1001 l 46 704 z "},"«":{"ha":625,"x_min":null,"x_max":null,"o":"m 339 157 l 168 381 l 339 610 l 317 638 l 46 381 l 317 129 z m 579 157 l 408 381 l 579 610 l 556 638 l 285 381 l 556 129 z "},"»":{"ha":625,"x_min":null,"x_max":null,"o":"m 339 381 l 68 638 l 46 610 l 217 381 l 46 157 l 68 129 z m 579 381 l 307 638 l 285 610 l 456 381 l 285 157 l 307 129 z "},"‹":{"ha":385,"x_min":null,"x_max":null,"o":"m 339 157 l 168 381 l 339 610 l 317 638 l 46 381 l 317 129 z "},"›":{"ha":385,"x_min":null,"x_max":null,"o":"m 339 381 l 68 638 l 46 610 l 217 381 l 46 157 l 68 129 z "},"\"":{"ha":492,"x_min":null,"x_max":null,"o":"m 46 704 b 226 1001 133 754 226 856 l 46 1001 b 46 704 76 903 79 774 z m 265 704 b 446 1001 353 754 446 856 l 265 1001 b 265 704 296 903 299 774 z "},"'":{"ha":272,"x_min":null,"x_max":null,"o":"m 46 704 b 226 1001 133 754 226 856 l 46 1001 b 46 704 76 903 79 774 z "},"¢":{"ha":850,"x_min":null,"x_max":null,"o":"m 356 -265 l 404 -14 b 433 -15 414 -15 424 -15 b 804 215 574 -15 718 57 l 769 233 b 553 78 724 135 636 78 b 432 122 504 78 465 94 l 547 703 b 722 488 607 668 669 594 l 799 685 b 558 761 725 726 642 751 l 604 999 l 571 999 l 524 765 b 469 767 506 767 488 767 b 46 385 246 767 46 651 b 371 -11 46 158 197 17 l 321 -265 z m 403 151 b 314 449 343 225 314 340 b 465 726 314 593 367 726 b 515 717 482 726 497 724 z "},"¤":{"ha":686,"x_min":null,"x_max":null,"o":"m 163 224 b 344 154 210 181 275 154 b 526 222 415 154 478 179 l 613 136 l 640 165 l 557 251 b 624 435 599 300 624 365 b 557 618 624 506 599 569 l 640 704 l 613 733 l 526 647 b 344 714 478 689 414 714 b 160 646 274 714 210 688 l 74 733 l 46 704 l 132 617 b 64 435 89 568 64 504 b 132 253 64 365 89 301 l 46 165 l 74 136 z m 343 296 b 206 435 275 296 206 343 b 343 575 206 528 275 575 b 481 435 413 575 481 528 b 343 296 481 343 413 296 z "},"$":{"ha":885,"x_min":null,"x_max":null,"o":"m 490 -94 l 490 0 b 839 339 689 35 839 151 b 490 675 839 493 651 593 l 490 933 b 672 754 568 911 643 854 b 789 840 747 754 789 794 b 490 1004 789 944 649 1004 l 490 1083 l 457 1083 l 457 1004 b 63 686 265 993 63 896 b 457 339 63 546 282 438 l 457 79 b 228 329 344 108 228 193 b 235 388 228 347 231 367 b 46 236 114 388 46 317 b 457 0 46 128 169 0 l 457 -94 z m 457 693 b 267 840 351 746 267 792 b 457 940 267 917 360 956 z m 542 68 b 490 72 525 68 508 69 l 490 319 b 665 149 589 261 665 206 b 542 68 665 94 611 68 z "},"€":{"ha":1069,"x_min":null,"x_max":null,"o":"m 625 -21 b 1024 96 758 -21 900 18 l 1010 143 b 750 50 922 81 833 50 b 401 406 579 50 438 179 l 578 406 l 578 447 l 397 447 b 394 503 396 465 394 483 l 578 503 l 578 544 l 394 544 b 672 961 401 811 554 961 b 808 704 758 961 828 881 b 993 839 928 704 993 769 b 682 1006 993 942 851 1006 b 108 544 440 1006 139 875 l 46 544 l 46 503 l 106 503 l 106 485 b 107 447 106 472 106 460 l 46 447 l 46 406 l 111 406 b 625 -21 146 119 372 -21 z "},"£":{"ha":1069,"x_min":null,"x_max":null,"o":"m 276 -21 b 542 81 397 -21 490 1 b 865 -21 651 28 763 -21 b 1024 190 951 -21 1024 51 b 1006 322 1024 229 1018 274 l 983 322 b 714 161 961 197 844 161 b 578 172 668 161 622 165 b 589 290 586 206 589 244 b 553 550 589 385 569 453 l 761 550 l 761 592 l 546 592 b 529 761 536 651 529 708 b 651 967 529 897 581 967 b 753 807 706 967 753 901 b 743 731 753 783 750 757 b 775 729 754 729 764 729 b 928 853 874 729 928 789 b 703 1004 928 926 857 1004 b 250 592 482 1004 282 865 l 161 592 l 161 550 l 256 550 b 297 229 275 425 299 313 b 204 243 263 239 232 243 b 46 122 101 243 46 185 b 276 -21 46 53 117 -21 z m 243 14 b 176 88 199 14 176 49 b 269 186 176 135 208 186 b 294 183 278 186 286 185 b 304 97 299 156 304 125 b 243 14 304 51 292 14 z "},"¥":{"ha":1024,"x_min":null,"x_max":null,"o":"m 665 0 l 665 190 l 778 190 l 778 232 l 665 232 l 665 325 l 778 325 l 778 367 l 672 367 b 978 975 760 569 863 772 l 842 975 b 631 367 821 796 718 569 b 328 975 535 490 419 708 l 46 975 b 374 367 183 813 374 468 l 246 367 l 246 325 l 381 325 l 381 232 l 246 232 l 246 190 l 381 190 l 381 0 z "},"+":{"ha":561,"x_min":null,"x_max":null,"o":"m 303 176 l 303 411 l 515 411 l 515 453 l 301 453 l 301 686 l 260 686 l 260 453 l 46 453 l 46 411 l 260 411 l 260 176 z "},"−":{"ha":510,"x_min":null,"x_max":null,"o":"m 464 413 l 464 454 l 46 454 l 46 413 z "},"×":{"ha":450,"x_min":null,"x_max":null,"o":"m 228 369 l 375 221 l 404 250 l 257 400 l 400 550 l 369 579 l 228 429 l 76 581 l 47 551 l 197 400 l 46 247 l 76 217 z "},"÷":{"ha":510,"x_min":null,"x_max":null,"o":"m 257 561 b 357 663 307 561 357 596 b 257 767 357 732 307 767 b 154 663 204 767 154 732 b 257 561 154 596 204 561 z m 464 413 l 464 454 l 46 454 l 46 413 z m 257 115 b 357 217 307 115 357 149 b 257 321 357 285 307 321 b 154 217 204 321 154 285 b 257 115 154 149 204 115 z "},"=":{"ha":510,"x_min":null,"x_max":null,"o":"m 464 481 l 464 522 l 46 522 l 46 481 z m 464 342 l 464 383 l 46 383 l 46 342 z "},"≠":{"ha":510,"x_min":null,"x_max":null,"o":"m 224 342 l 464 342 l 464 383 l 247 383 l 297 481 l 464 481 l 464 522 l 318 522 l 408 693 l 371 694 l 281 522 l 46 522 l 46 481 l 258 481 l 207 383 l 46 383 l 46 342 l 186 342 l 113 203 l 151 201 z "},">":{"ha":444,"x_min":null,"x_max":null,"o":"m 399 425 l 399 467 l 46 736 l 46 694 l 375 446 l 46 194 l 46 153 z "},"<":{"ha":444,"x_min":null,"x_max":null,"o":"m 399 194 l 69 446 l 399 694 l 399 736 l 46 467 l 46 425 l 399 153 z "},"≥":{"ha":450,"x_min":null,"x_max":null,"o":"m 404 425 l 404 467 l 51 736 l 51 694 l 381 446 l 51 194 l 51 153 z m 403 60 l 403 97 l 46 97 l 46 60 z "},"≤":{"ha":450,"x_min":null,"x_max":null,"o":"m 404 194 l 75 446 l 404 694 l 404 736 l 51 467 l 51 425 l 404 153 z m 403 60 l 403 97 l 46 97 l 46 60 z "},"±":{"ha":510,"x_min":null,"x_max":null,"o":"m 272 176 l 272 411 l 464 411 l 464 453 l 271 453 l 271 686 l 238 686 l 238 453 l 46 453 l 46 411 l 238 411 l 238 176 z m 464 56 l 464 97 l 46 97 l 46 56 z "},"≈":{"ha":629,"x_min":null,"x_max":null,"o":"m 471 368 b 583 507 506 363 583 371 l 560 507 b 518 403 560 428 551 403 b 179 542 443 403 301 542 b 61 407 124 542 67 507 l 85 407 b 150 514 92 490 108 514 b 471 368 242 514 389 382 z m 456 143 b 567 282 490 138 567 146 l 544 282 b 503 178 544 203 535 178 b 163 317 428 178 286 317 b 46 182 108 317 51 282 l 69 182 b 135 289 75 265 92 289 b 456 143 225 289 374 157 z "},"~":{"ha":613,"x_min":null,"x_max":null,"o":"m 456 331 b 567 469 490 325 567 333 l 544 469 b 503 365 544 390 535 365 b 163 504 428 365 286 504 b 46 369 108 504 51 469 l 69 369 b 135 476 75 453 92 476 b 456 331 225 476 374 344 z "},"^":{"ha":569,"x_min":null,"x_max":null,"o":"m 96 572 l 285 947 l 474 572 l 524 572 l 303 1003 l 269 1003 l 46 572 z "},"%":{"ha":967,"x_min":null,"x_max":null,"o":"m 257 521 b 456 760 406 521 456 642 b 257 1004 456 867 406 1004 b 46 760 97 1004 46 867 b 257 521 46 642 96 521 z m 242 -1 l 731 976 l 690 976 l 203 -1 z m 257 558 b 197 761 204 558 197 607 b 257 968 197 917 204 968 b 315 761 310 968 315 917 b 257 558 315 607 310 558 z m 721 -22 b 921 217 869 -22 921 99 b 721 461 921 324 869 461 b 510 217 561 461 510 324 b 721 -22 510 99 560 -22 z m 721 15 b 661 218 668 15 661 64 b 721 425 661 374 668 425 b 781 218 775 425 781 374 b 721 15 781 64 775 15 z "},"‰":{"ha":1431,"x_min":null,"x_max":null,"o":"m 257 521 b 456 760 406 521 456 642 b 257 1004 456 867 406 1004 b 46 760 97 1004 46 867 b 257 521 46 642 96 521 z m 242 -1 l 731 976 l 690 976 l 203 -1 z m 257 558 b 197 761 204 558 197 607 b 257 968 197 917 204 968 b 315 761 310 968 315 917 b 257 558 315 607 310 558 z m 721 -22 b 921 217 869 -22 921 99 b 721 461 921 324 869 461 b 510 217 561 461 510 324 b 721 -22 510 99 560 -22 z m 1185 -22 b 1385 217 1333 -22 1385 99 b 1185 461 1385 324 1333 461 b 974 217 1025 461 974 324 b 1185 -22 974 99 1024 -22 z m 721 15 b 661 218 668 15 661 64 b 721 425 661 374 668 425 b 781 218 775 425 781 374 b 721 15 781 64 775 15 z m 1185 15 b 1125 218 1132 15 1125 64 b 1185 425 1125 374 1132 425 b 1244 218 1239 425 1244 374 b 1185 15 1244 64 1239 15 z "},"◊":{"ha":668,"x_min":null,"x_max":null,"o":"m 364 0 l 622 488 l 364 975 l 307 975 l 46 488 l 307 0 z m 68 488 l 335 814 l 599 488 l 335 156 z "},"@":{"ha":974,"x_min":null,"x_max":null,"o":"m 499 -21 b 813 104 607 -21 719 18 l 790 129 b 508 18 710 53 608 18 b 93 433 231 18 93 226 b 492 840 93 638 226 840 b 883 450 793 840 883 619 b 797 243 883 314 835 243 b 753 331 772 243 753 272 b 781 674 753 492 767 594 b 665 656 744 660 704 656 b 438 679 578 656 490 679 b 214 407 332 679 214 607 b 394 207 214 269 304 207 b 567 331 469 207 544 251 b 728 167 581 228 653 167 b 928 457 853 167 928 303 b 490 882 928 656 803 882 b 46 433 194 882 46 658 b 499 -21 46 207 197 -21 z m 461 271 b 406 382 431 271 406 306 b 526 633 406 504 429 633 b 585 621 543 633 563 629 b 461 271 578 407 535 271 z "},"&":{"ha":1153,"x_min":null,"x_max":null,"o":"m 568 -337 b 913 0 722 -337 913 -229 b 761 325 913 111 844 219 b 883 303 803 310 844 303 b 1107 501 1008 303 1107 378 b 919 682 1107 629 1008 682 b 781 579 817 682 781 628 b 843 506 781 540 808 506 b 874 533 864 506 874 519 b 832 561 874 547 864 561 b 794 581 807 561 794 571 b 843 604 794 592 810 604 b 931 501 901 604 931 556 b 794 354 931 432 885 354 b 575 514 739 354 649 418 b 451 835 506 603 451 718 b 576 972 451 924 515 972 b 686 853 632 972 683 933 b 599 751 688 801 656 751 b 550 775 565 751 550 764 b 588 794 550 785 563 794 b 629 822 619 794 629 808 b 599 850 629 836 619 850 b 536 776 564 850 536 815 b 675 674 536 728 572 674 b 863 824 764 674 863 726 b 618 1004 863 949 747 1004 b 264 685 453 1004 264 910 b 303 528 264 633 278 581 b 46 201 186 494 46 378 b 290 -21 46 74 144 -21 b 540 193 419 -21 538 79 b 742 -149 646 67 742 -50 b 626 -278 742 -239 682 -278 b 539 -201 581 -278 539 -250 b 606 -124 539 -161 561 -124 b 644 -143 633 -124 644 -135 b 615 -157 644 -151 635 -157 b 586 -176 593 -157 586 -167 l 586 -179 b 611 -200 586 -190 594 -200 b 656 -149 636 -200 656 -176 b 542 -61 656 -108 626 -61 b 375 -192 435 -61 375 -126 b 568 -337 375 -287 463 -337 z m 421 132 b 257 322 317 132 257 224 b 324 485 257 381 278 440 b 457 294 360 421 406 358 b 501 196 489 254 501 222 b 421 132 501 154 465 132 z "},"¶":{"ha":549,"x_min":null,"x_max":null,"o":"m 372 -125 l 372 975 b 46 697 153 976 46 835 b 339 433 46 564 144 433 l 339 -125 z m 503 -125 l 503 975 l 468 975 l 468 -125 z "},"§":{"ha":631,"x_min":null,"x_max":null,"o":"m 290 -56 b 585 131 446 -56 585 -11 b 428 336 585 204 510 274 b 583 521 518 364 585 419 b 381 761 582 618 475 694 b 238 907 306 813 238 860 b 282 943 238 932 254 943 b 567 775 347 943 471 876 l 567 950 b 340 976 497 967 417 976 b 46 790 185 976 46 932 b 204 585 46 717 122 647 b 47 400 113 557 47 501 b 250 160 49 303 156 226 b 393 14 326 108 393 61 b 350 -22 393 -11 376 -22 b 65 146 283 -22 160 44 l 65 -29 b 290 -56 135 -46 214 -56 z m 372 378 b 363 385 369 379 365 382 b 225 518 289 436 225 483 b 258 543 225 529 238 538 b 269 536 263 542 265 539 b 406 403 342 485 406 438 b 372 378 406 392 394 383 z "},"©":{"ha":1096,"x_min":null,"x_max":null,"o":"m 547 -14 b 1050 488 842 -14 1050 211 b 547 989 1050 764 842 989 b 46 488 254 989 46 764 b 547 -14 46 211 254 -14 z m 547 14 b 74 488 269 14 74 225 b 547 961 74 750 269 961 b 1022 488 826 961 1022 750 b 547 14 1022 225 824 14 z m 543 224 b 786 381 639 224 735 272 l 768 390 b 565 257 726 300 646 257 b 340 514 453 257 340 346 b 517 728 340 646 417 728 b 726 614 583 728 658 692 l 750 692 b 546 746 682 728 610 746 b 269 490 393 746 269 656 b 543 224 269 322 407 224 z "},"®":{"ha":722,"x_min":null,"x_max":null,"o":"m 367 357 b 676 674 574 357 676 515 b 367 989 676 831 574 989 b 46 674 153 989 46 831 b 367 357 46 515 153 357 z m 361 383 b 81 674 174 383 81 528 b 363 964 81 818 174 964 b 646 672 550 964 646 818 b 361 383 646 528 551 383 z m 290 511 l 289 676 l 357 676 b 433 511 411 644 433 589 l 501 511 b 419 679 501 578 472 649 b 503 763 474 686 503 725 b 411 839 503 801 472 839 l 224 839 l 224 511 z m 288 825 l 363 825 b 438 758 414 825 438 792 b 357 690 438 724 414 690 l 289 690 z "},"™":{"ha":718,"x_min":null,"x_max":null,"o":"m 213 603 l 213 947 l 324 947 l 324 975 l 46 975 l 46 947 l 156 947 l 156 603 z m 406 603 l 406 933 l 521 603 l 542 603 l 650 939 l 650 603 l 672 603 l 672 975 l 606 975 l 513 688 l 413 975 l 349 975 l 349 603 z "},"°":{"ha":424,"x_min":null,"x_max":null,"o":"m 211 664 b 378 833 294 664 378 721 b 211 1001 378 946 294 1001 b 46 833 129 1001 46 946 b 211 664 46 721 129 664 z m 213 711 b 92 833 151 711 92 751 b 211 954 92 914 151 954 b 331 833 272 954 331 914 b 213 711 331 751 272 711 z "},"|":{"ha":114,"x_min":null,"x_max":null,"o":"m 68 -196 l 68 1068 l 46 1068 l 46 -196 z "},"¦":{"ha":114,"x_min":null,"x_max":null,"o":"m 68 592 l 68 1068 l 46 1068 l 46 592 z m 68 -196 l 68 279 l 46 279 l 46 -196 z "},"†":{"ha":399,"x_min":null,"x_max":null,"o":"m 210 319 b 228 706 210 465 211 501 b 211 853 213 763 213 783 b 353 828 310 851 314 828 l 353 897 b 211 876 314 897 310 878 b 228 1057 208 1010 228 1008 l 171 1057 b 188 876 171 1008 192 1010 b 46 897 89 878 85 897 l 46 828 b 188 853 85 828 89 851 b 171 706 186 783 186 767 b 190 319 188 501 190 465 z "},"‡":{"ha":399,"x_min":null,"x_max":null,"o":"m 210 319 b 228 706 210 465 211 501 b 214 769 221 732 217 750 b 353 744 310 767 315 744 l 353 814 b 213 793 314 814 310 794 b 211 863 213 811 211 833 l 211 875 b 353 850 310 874 314 850 l 353 919 b 211 899 314 919 310 900 b 228 1057 211 1010 228 1011 l 171 1057 b 189 899 171 1011 189 1010 b 46 919 89 900 85 919 l 46 850 b 188 875 85 850 89 874 l 188 863 b 186 793 188 832 186 811 b 46 814 89 794 85 814 l 46 744 b 183 769 83 744 89 767 b 171 706 181 751 178 733 b 190 319 188 501 190 465 z "},"̈":{"ha":0,"x_min":null,"x_max":null,"o":"m -407 835 b -301 933 -356 835 -301 868 b -407 1033 -301 1000 -356 1033 b -511 933 -460 1033 -511 1000 b -407 835 -511 868 -460 835 z m -149 835 b -46 933 -99 835 -46 868 b -149 1033 -46 1000 -99 1033 b -256 933 -203 1033 -256 1000 b -149 835 -256 868 -203 835 z "},"̇":{"ha":0,"x_min":null,"x_max":null,"o":"m -190 815 b -46 964 -93 815 -46 889 b -190 1111 -46 1038 -93 1111 b -332 964 -285 1111 -332 1038 b -190 815 -332 889 -285 815 z "},"̀":{"ha":0,"x_min":null,"x_max":null,"o":"m -46 831 l -114 1049 l -387 1049 l -89 831 z "},"́":{"ha":0,"x_min":null,"x_max":null,"o":"m -346 831 l -46 1049 l -319 1049 l -387 831 z "},"̋":{"ha":0,"x_min":null,"x_max":null,"o":"m -621 831 l -349 1049 l -622 1049 l -662 831 z m -346 831 l -46 1049 l -319 1049 l -387 831 z "},"̂":{"ha":0,"x_min":null,"x_max":null,"o":"m -419 849 l -253 989 l -79 849 l -46 849 l -153 1074 l -357 1074 l -453 849 z "},"̌":{"ha":0,"x_min":null,"x_max":null,"o":"m -153 815 l -46 1040 l -79 1040 l -253 900 l -419 1040 l -453 1040 l -357 815 z "},"̆":{"ha":0,"x_min":null,"x_max":null,"o":"m -229 831 b -46 988 -101 831 -46 917 b -122 1082 -46 1054 -87 1082 b -179 1038 -153 1082 -179 1065 b -162 1017 -179 1025 -174 1017 b -149 1029 -153 1017 -149 1022 b -161 1042 -149 1035 -153 1042 b -167 1046 -164 1042 -167 1043 b -143 1061 -167 1054 -156 1061 b -114 1031 -131 1061 -114 1053 b -229 961 -114 992 -140 961 b -344 1031 -318 961 -344 992 b -315 1061 -344 1053 -328 1061 b -292 1046 -303 1061 -292 1054 b -297 1042 -292 1043 -294 1042 b -310 1029 -306 1042 -310 1035 b -296 1017 -310 1022 -306 1017 b -279 1038 -285 1017 -279 1025 b -336 1082 -279 1065 -306 1082 b -412 988 -371 1082 -412 1054 b -229 831 -412 917 -357 831 z "},"̊":{"ha":0,"x_min":null,"x_max":null,"o":"m -137 771 b -46 881 -83 771 -46 821 b -137 990 -46 940 -83 990 b -229 881 -190 990 -229 940 b -137 771 -229 821 -190 771 z m -137 829 b -182 879 -164 829 -182 854 b -137 932 -182 907 -164 932 b -94 879 -110 932 -94 907 b -137 829 -94 854 -110 829 z "},"̃":{"ha":0,"x_min":null,"x_max":null,"o":"m -467 825 b -417 861 -431 825 -417 843 b -439 888 -417 875 -426 888 b -450 878 -447 888 -450 882 b -435 868 -450 872 -447 868 b -422 861 -426 868 -422 864 b -446 849 -422 854 -432 849 b -500 914 -481 849 -500 883 b -465 956 -500 936 -489 956 b -175 832 -403 956 -283 832 b -46 985 -90 832 -46 915 b -118 1079 -46 1036 -69 1079 b -168 1043 -156 1079 -168 1060 b -146 1017 -168 1029 -158 1017 b -135 1026 -139 1017 -135 1022 b -150 1036 -135 1032 -139 1036 b -162 1043 -158 1036 -162 1040 b -139 1056 -162 1050 -153 1056 b -82 996 -101 1056 -82 1024 b -118 954 -82 974 -94 954 b -403 1079 -179 954 -310 1079 b -539 913 -497 1079 -539 989 b -467 825 -539 864 -515 825 z "},"̄":{"ha":0,"x_min":null,"x_max":null,"o":"m -46 858 l -46 910 l -481 910 l -481 858 z "},"̒":{"ha":0,"x_min":null,"x_max":null,"o":"m -132 890 b -146 1006 -140 929 -146 969 b -46 1149 -146 1085 -121 1150 l -46 1163 b -214 1118 -114 1163 -171 1149 b -303 890 -271 1076 -303 1004 z "},"̦":{"ha":0,"x_min":null,"x_max":null,"o":"m -328 -362 b -160 -318 -260 -362 -203 -349 b -46 -90 -103 -276 -46 -204 l -242 -90 b -228 -206 -233 -129 -228 -169 b -328 -349 -228 -285 -253 -350 z "},"̧":{"ha":0,"x_min":null,"x_max":null,"o":"m -236 -347 b -46 -199 -147 -347 -46 -303 b -196 -60 -46 -119 -97 -60 b -246 -64 -211 -60 -228 -61 l -224 0 l -258 0 l -293 -97 b -262 -93 -282 -94 -272 -93 b -181 -199 -217 -93 -181 -139 b -249 -321 -181 -286 -217 -321 b -297 -262 -274 -321 -297 -299 b -262 -224 -297 -243 -285 -224 b -242 -233 -249 -224 -242 -228 b -257 -240 -242 -237 -247 -240 b -275 -253 -271 -240 -275 -247 b -262 -264 -275 -258 -271 -264 b -236 -233 -247 -264 -236 -250 b -293 -190 -236 -212 -251 -190 b -361 -258 -336 -190 -361 -222 b -236 -347 -361 -300 -324 -347 z "},"̨":{"ha":0,"x_min":null,"x_max":null,"o":"m -165 -297 b -46 -203 -104 -297 -46 -262 b -100 -139 -46 -168 -71 -139 b -128 -162 -119 -139 -128 -150 b -92 -186 -128 -175 -119 -186 b -58 -204 -69 -186 -58 -196 b -100 -224 -58 -214 -72 -224 b -181 -132 -153 -224 -181 -181 b -82 0 -181 -81 -149 -21 l -128 0 b -306 -183 -243 -25 -306 -111 b -165 -297 -306 -244 -261 -297 z "},"̵":{"ha":0,"x_min":null,"x_max":null,"o":"m -46 438 l -46 479 l -492 479 l -492 438 z "},"̶":{"ha":0,"x_min":null,"x_max":null,"o":"m -46 438 l -46 479 l -651 479 l -651 438 z "},"̷":{"ha":0,"x_min":null,"x_max":null,"o":"m -46 740 l -46 788 l -410 476 l -410 429 z "},"̸":{"ha":0,"x_min":null,"x_max":null,"o":"m -328 -21 l -46 975 l -81 975 l -361 -21 z "}}}
